StartChar: custom_0_2_0_0_0
Encoding: 20568 20568 600
Width: 70
Flags: H
LayerCount: 2
Fore
SplineSet
17 43 m 1
 15 43 l 1
 15 41 l 1
 17 41 l 1
 17 43 l 1
17 39 m 1
 15 39 l 1
 15 37 l 1
 17 37 l 1
 17 39 l 1
17 35 m 1
 15 35 l 1
 15 33 l 1
 17 33 l 1
 17 35 l 1
17 31 m 1
 15 31 l 1
 15 29 l 1
 17 29 l 1
 17 31 l 1
17 27 m 1
 15 27 l 1
 15 25 l 1
 17 25 l 1
 17 27 l 1
31 43 m 1
 29 43 l 1
 29 41 l 1
 31 41 l 1
 31 43 l 1
31 39 m 1
 29 39 l 1
 29 37 l 1
 31 37 l 1
 31 39 l 1
31 35 m 1
 29 35 l 1
 29 33 l 1
 31 33 l 1
 31 35 l 1
36 37 m 1
 34 37 l 1
 34 35 l 1
 36 35 l 1
 36 37 l 1
36 33 m 1
 34 33 l 1
 34 31 l 1
 36 31 l 1
 36 33 l 1
41 43 m 1
 39 43 l 1
 39 41 l 1
 41 41 l 1
 41 43 l 1
44 43 m 1
 42 43 l 1
 42 41 l 1
 43 41 l 1
 43 42 l 1
 44 42 l 1
 44 43 l 1
46 43 m 1
 45 43 l 1
 45 42 l 1
 44 42 l 1
 44 41 l 1
 46 41 l 1
 46 43 l 1
49 43 m 1
 47 43 l 1
 47 41 l 1
 49 41 l 1
 49 43 l 1
55 43 m 1
 53 43 l 1
 53 41 l 1
 55 41 l 1
 55 43 l 1
41 39 m 1
 39 39 l 1
 39 37 l 1
 41 37 l 1
 41 39 l 1
41 35 m 1
 39 35 l 1
 39 33 l 1
 41 33 l 1
 41 35 l 1
49 39 m 1
 47 39 l 1
 47 37 l 1
 49 37 l 1
 49 39 l 1
49 35 m 1
 47 35 l 1
 47 33 l 1
 49 33 l 1
 49 35 l 1
55 35 m 1
 53 35 l 1
 53 33 l 1
 55 33 l 1
 55 35 l 1
58 43 m 1
 56 43 l 1
 56 41 l 1
 57 41 l 1
 57 42 l 1
 58 42 l 1
 58 43 l 1
59 42 m 1
 58 42 l 1
 58 41 l 1
 60 41 l 1
 60 43 l 1
 59 43 l 1
 59 42 l 1
63 43 m 1
 61 43 l 1
 61 41 l 1
 63 41 l 1
 63 43 l 1
63 39 m 1
 61 39 l 1
 61 37 l 1
 63 37 l 1
 63 39 l 1
57 35 m 1
 56 35 l 1
 56 33 l 1
 58 33 l 1
 58 34 l 1
 57 34 l 1
 57 35 l 1
60 35 m 1
 58 35 l 1
 58 34 l 1
 59 34 l 1
 59 33 l 1
 60 33 l 1
 60 35 l 1
63 35 m 1
 61 35 l 1
 61 33 l 1
 63 33 l 1
 63 35 l 1
31 31 m 1
 29 31 l 1
 29 29 l 1
 31 29 l 1
 31 31 l 1
31 27 m 1
 29 27 l 1
 29 25 l 1
 31 25 l 1
 31 27 l 1
41 31 m 1
 39 31 l 1
 39 29 l 1
 41 29 l 1
 41 31 l 1
41 27 m 1
 39 27 l 1
 39 25 l 1
 41 25 l 1
 41 27 l 1
44 27 m 1
 42 27 l 1
 42 25 l 1
 43 25 l 1
 43 26 l 1
 44 26 l 1
 44 27 l 1
46 27 m 1
 45 27 l 1
 45 26 l 1
 44 26 l 1
 44 25 l 1
 46 25 l 1
 46 27 l 1
49 31 m 1
 47 31 l 1
 47 29 l 1
 49 29 l 1
 49 31 l 1
55 31 m 1
 53 31 l 1
 53 29 l 1
 55 29 l 1
 55 31 l 1
49 27 m 1
 47 27 l 1
 47 25 l 1
 49 25 l 1
 49 27 l 1
55 27 m 1
 53 27 l 1
 53 25 l 1
 55 25 l 1
 55 27 l 1
58 27 m 1
 56 27 l 1
 56 25 l 1
 57 25 l 1
 57 26 l 1
 58 26 l 1
 58 27 l 1
59 26 m 1
 58 26 l 1
 58 25 l 1
 60 25 l 1
 60 27 l 1
 59 27 l 1
 59 26 l 1
63 27 m 1
 61 27 l 1
 61 25 l 1
 63 25 l 1
 63 27 l 1
EndSplineSet
EndChar

StartChar: custom_0_2_0_0_1
Encoding: 20569 20569 601
Width: 70
Flags: H
LayerCount: 2
Fore
SplineSet
17 43 m 1
 15 43 l 1
 15 41 l 1
 17 41 l 1
 17 43 l 1
17 39 m 1
 15 39 l 1
 15 37 l 1
 17 37 l 1
 17 39 l 1
17 35 m 1
 15 35 l 1
 15 33 l 1
 17 33 l 1
 17 35 l 1
17 31 m 1
 15 31 l 1
 15 29 l 1
 17 29 l 1
 17 31 l 1
17 27 m 1
 15 27 l 1
 15 25 l 1
 17 25 l 1
 17 27 l 1
31 43 m 1
 29 43 l 1
 29 41 l 1
 31 41 l 1
 31 43 l 1
31 39 m 1
 29 39 l 1
 29 37 l 1
 31 37 l 1
 31 39 l 1
31 35 m 1
 29 35 l 1
 29 33 l 1
 31 33 l 1
 31 35 l 1
36 37 m 1
 34 37 l 1
 34 35 l 1
 36 35 l 1
 36 37 l 1
36 33 m 1
 34 33 l 1
 34 31 l 1
 36 31 l 1
 36 33 l 1
41 43 m 1
 39 43 l 1
 39 41 l 1
 41 41 l 1
 41 43 l 1
44 43 m 1
 42 43 l 1
 42 41 l 1
 43 41 l 1
 43 42 l 1
 44 42 l 1
 44 43 l 1
46 43 m 1
 45 43 l 1
 45 42 l 1
 44 42 l 1
 44 41 l 1
 46 41 l 1
 46 43 l 1
49 43 m 1
 47 43 l 1
 47 41 l 1
 49 41 l 1
 49 43 l 1
55 43 m 1
 53 43 l 1
 53 41 l 1
 55 41 l 1
 55 43 l 1
41 39 m 1
 39 39 l 1
 39 37 l 1
 41 37 l 1
 41 39 l 1
41 35 m 1
 39 35 l 1
 39 33 l 1
 41 33 l 1
 41 35 l 1
49 39 m 1
 47 39 l 1
 47 37 l 1
 49 37 l 1
 49 39 l 1
49 35 m 1
 47 35 l 1
 47 33 l 1
 49 33 l 1
 49 35 l 1
55 35 m 1
 53 35 l 1
 53 33 l 1
 55 33 l 1
 55 35 l 1
58 43 m 1
 56 43 l 1
 56 41 l 1
 57 41 l 1
 57 42 l 1
 58 42 l 1
 58 43 l 1
59 42 m 1
 58 42 l 1
 58 41 l 1
 60 41 l 1
 60 43 l 1
 59 43 l 1
 59 42 l 1
63 43 m 1
 61 43 l 1
 61 41 l 1
 63 41 l 1
 63 43 l 1
63 39 m 1
 61 39 l 1
 61 37 l 1
 63 37 l 1
 63 39 l 1
57 35 m 1
 56 35 l 1
 56 33 l 1
 58 33 l 1
 58 34 l 1
 57 34 l 1
 57 35 l 1
60 35 m 1
 58 35 l 1
 58 34 l 1
 59 34 l 1
 59 33 l 1
 60 33 l 1
 60 35 l 1
63 35 m 1
 61 35 l 1
 61 33 l 1
 63 33 l 1
 63 35 l 1
31 31 m 1
 29 31 l 1
 29 29 l 1
 31 29 l 1
 31 31 l 1
31 27 m 1
 29 27 l 1
 29 25 l 1
 31 25 l 1
 31 27 l 1
41 31 m 1
 39 31 l 1
 39 29 l 1
 41 29 l 1
 41 31 l 1
41 27 m 1
 39 27 l 1
 39 25 l 1
 41 25 l 1
 41 27 l 1
44 27 m 1
 42 27 l 1
 42 25 l 1
 43 25 l 1
 43 26 l 1
 44 26 l 1
 44 27 l 1
46 27 m 1
 45 27 l 1
 45 26 l 1
 44 26 l 1
 44 25 l 1
 46 25 l 1
 46 27 l 1
49 31 m 1
 47 31 l 1
 47 29 l 1
 49 29 l 1
 49 31 l 1
55 31 m 1
 53 31 l 1
 53 29 l 1
 55 29 l 1
 55 31 l 1
49 27 m 1
 47 27 l 1
 47 25 l 1
 49 25 l 1
 49 27 l 1
55 27 m 1
 53 27 l 1
 53 25 l 1
 55 25 l 1
 55 27 l 1
58 27 m 1
 56 27 l 1
 56 25 l 1
 57 25 l 1
 57 26 l 1
 58 26 l 1
 58 27 l 1
59 26 m 1
 58 26 l 1
 58 25 l 1
 60 25 l 1
 60 27 l 1
 59 27 l 1
 59 26 l 1
63 27 m 1
 61 27 l 1
 61 25 l 1
 63 25 l 1
 63 27 l 1
EndSplineSet
EndChar

StartChar: custom_0_2_0_0_2
Encoding: 20570 20570 602
Width: 70
Flags: H
LayerCount: 2
Fore
SplineSet
17 43 m 1
 15 43 l 1
 15 41 l 1
 17 41 l 1
 17 43 l 1
17 39 m 1
 15 39 l 1
 15 37 l 1
 17 37 l 1
 17 39 l 1
17 35 m 1
 15 35 l 1
 15 33 l 1
 17 33 l 1
 17 35 l 1
17 31 m 1
 15 31 l 1
 15 29 l 1
 17 29 l 1
 17 31 l 1
17 27 m 1
 15 27 l 1
 15 25 l 1
 17 25 l 1
 17 27 l 1
31 43 m 1
 29 43 l 1
 29 41 l 1
 31 41 l 1
 31 43 l 1
31 39 m 1
 29 39 l 1
 29 37 l 1
 31 37 l 1
 31 39 l 1
31 35 m 1
 29 35 l 1
 29 33 l 1
 31 33 l 1
 31 35 l 1
36 37 m 1
 34 37 l 1
 34 35 l 1
 36 35 l 1
 36 37 l 1
36 33 m 1
 34 33 l 1
 34 31 l 1
 36 31 l 1
 36 33 l 1
41 43 m 1
 39 43 l 1
 39 41 l 1
 41 41 l 1
 41 43 l 1
44 43 m 1
 42 43 l 1
 42 41 l 1
 43 41 l 1
 43 42 l 1
 44 42 l 1
 44 43 l 1
46 43 m 1
 45 43 l 1
 45 42 l 1
 44 42 l 1
 44 41 l 1
 46 41 l 1
 46 43 l 1
49 43 m 1
 47 43 l 1
 47 41 l 1
 49 41 l 1
 49 43 l 1
55 43 m 1
 53 43 l 1
 53 41 l 1
 55 41 l 1
 55 43 l 1
41 39 m 1
 39 39 l 1
 39 37 l 1
 41 37 l 1
 41 39 l 1
41 35 m 1
 39 35 l 1
 39 33 l 1
 41 33 l 1
 41 35 l 1
49 39 m 1
 47 39 l 1
 47 37 l 1
 49 37 l 1
 49 39 l 1
49 35 m 1
 47 35 l 1
 47 33 l 1
 49 33 l 1
 49 35 l 1
55 35 m 1
 53 35 l 1
 53 33 l 1
 55 33 l 1
 55 35 l 1
58 43 m 1
 56 43 l 1
 56 41 l 1
 57 41 l 1
 57 42 l 1
 58 42 l 1
 58 43 l 1
59 42 m 1
 58 42 l 1
 58 41 l 1
 60 41 l 1
 60 43 l 1
 59 43 l 1
 59 42 l 1
63 43 m 1
 61 43 l 1
 61 41 l 1
 63 41 l 1
 63 43 l 1
63 39 m 1
 61 39 l 1
 61 37 l 1
 63 37 l 1
 63 39 l 1
57 35 m 1
 56 35 l 1
 56 33 l 1
 58 33 l 1
 58 34 l 1
 57 34 l 1
 57 35 l 1
60 35 m 1
 58 35 l 1
 58 34 l 1
 59 34 l 1
 59 33 l 1
 60 33 l 1
 60 35 l 1
63 35 m 1
 61 35 l 1
 61 33 l 1
 63 33 l 1
 63 35 l 1
31 31 m 1
 29 31 l 1
 29 29 l 1
 31 29 l 1
 31 31 l 1
31 27 m 1
 29 27 l 1
 29 25 l 1
 31 25 l 1
 31 27 l 1
41 31 m 1
 39 31 l 1
 39 29 l 1
 41 29 l 1
 41 31 l 1
41 27 m 1
 39 27 l 1
 39 25 l 1
 41 25 l 1
 41 27 l 1
44 27 m 1
 42 27 l 1
 42 25 l 1
 43 25 l 1
 43 26 l 1
 44 26 l 1
 44 27 l 1
46 27 m 1
 45 27 l 1
 45 26 l 1
 44 26 l 1
 44 25 l 1
 46 25 l 1
 46 27 l 1
49 31 m 1
 47 31 l 1
 47 29 l 1
 49 29 l 1
 49 31 l 1
55 31 m 1
 53 31 l 1
 53 29 l 1
 55 29 l 1
 55 31 l 1
49 27 m 1
 47 27 l 1
 47 25 l 1
 49 25 l 1
 49 27 l 1
55 27 m 1
 53 27 l 1
 53 25 l 1
 55 25 l 1
 55 27 l 1
58 27 m 1
 56 27 l 1
 56 25 l 1
 57 25 l 1
 57 26 l 1
 58 26 l 1
 58 27 l 1
59 26 m 1
 58 26 l 1
 58 25 l 1
 60 25 l 1
 60 27 l 1
 59 27 l 1
 59 26 l 1
63 27 m 1
 61 27 l 1
 61 25 l 1
 63 25 l 1
 63 27 l 1
EndSplineSet
EndChar

StartChar: custom_0_2_0_0_3
Encoding: 20571 20571 603
Width: 70
Flags: H
LayerCount: 2
Fore
SplineSet
17 43 m 1
 15 43 l 1
 15 41 l 1
 17 41 l 1
 17 43 l 1
17 39 m 1
 15 39 l 1
 15 37 l 1
 17 37 l 1
 17 39 l 1
17 35 m 1
 15 35 l 1
 15 33 l 1
 17 33 l 1
 17 35 l 1
17 31 m 1
 15 31 l 1
 15 29 l 1
 17 29 l 1
 17 31 l 1
17 27 m 1
 15 27 l 1
 15 25 l 1
 17 25 l 1
 17 27 l 1
31 43 m 1
 29 43 l 1
 29 41 l 1
 31 41 l 1
 31 43 l 1
31 39 m 1
 29 39 l 1
 29 37 l 1
 31 37 l 1
 31 39 l 1
31 35 m 1
 29 35 l 1
 29 33 l 1
 31 33 l 1
 31 35 l 1
36 37 m 1
 34 37 l 1
 34 35 l 1
 36 35 l 1
 36 37 l 1
36 33 m 1
 34 33 l 1
 34 31 l 1
 36 31 l 1
 36 33 l 1
41 43 m 1
 39 43 l 1
 39 41 l 1
 41 41 l 1
 41 43 l 1
44 43 m 1
 42 43 l 1
 42 41 l 1
 43 41 l 1
 43 42 l 1
 44 42 l 1
 44 43 l 1
46 43 m 1
 45 43 l 1
 45 42 l 1
 44 42 l 1
 44 41 l 1
 46 41 l 1
 46 43 l 1
49 43 m 1
 47 43 l 1
 47 41 l 1
 49 41 l 1
 49 43 l 1
55 43 m 1
 53 43 l 1
 53 41 l 1
 55 41 l 1
 55 43 l 1
41 39 m 1
 39 39 l 1
 39 37 l 1
 41 37 l 1
 41 39 l 1
41 35 m 1
 39 35 l 1
 39 33 l 1
 41 33 l 1
 41 35 l 1
49 39 m 1
 47 39 l 1
 47 37 l 1
 49 37 l 1
 49 39 l 1
49 35 m 1
 47 35 l 1
 47 33 l 1
 49 33 l 1
 49 35 l 1
55 35 m 1
 53 35 l 1
 53 33 l 1
 55 33 l 1
 55 35 l 1
58 43 m 1
 56 43 l 1
 56 41 l 1
 57 41 l 1
 57 42 l 1
 58 42 l 1
 58 43 l 1
59 42 m 1
 58 42 l 1
 58 41 l 1
 60 41 l 1
 60 43 l 1
 59 43 l 1
 59 42 l 1
63 43 m 1
 61 43 l 1
 61 41 l 1
 63 41 l 1
 63 43 l 1
63 39 m 1
 61 39 l 1
 61 37 l 1
 63 37 l 1
 63 39 l 1
57 35 m 1
 56 35 l 1
 56 33 l 1
 58 33 l 1
 58 34 l 1
 57 34 l 1
 57 35 l 1
60 35 m 1
 58 35 l 1
 58 34 l 1
 59 34 l 1
 59 33 l 1
 60 33 l 1
 60 35 l 1
63 35 m 1
 61 35 l 1
 61 33 l 1
 63 33 l 1
 63 35 l 1
31 31 m 1
 29 31 l 1
 29 29 l 1
 31 29 l 1
 31 31 l 1
31 27 m 1
 29 27 l 1
 29 25 l 1
 31 25 l 1
 31 27 l 1
41 31 m 1
 39 31 l 1
 39 29 l 1
 41 29 l 1
 41 31 l 1
41 27 m 1
 39 27 l 1
 39 25 l 1
 41 25 l 1
 41 27 l 1
44 27 m 1
 42 27 l 1
 42 25 l 1
 43 25 l 1
 43 26 l 1
 44 26 l 1
 44 27 l 1
46 27 m 1
 45 27 l 1
 45 26 l 1
 44 26 l 1
 44 25 l 1
 46 25 l 1
 46 27 l 1
49 31 m 1
 47 31 l 1
 47 29 l 1
 49 29 l 1
 49 31 l 1
55 31 m 1
 53 31 l 1
 53 29 l 1
 55 29 l 1
 55 31 l 1
49 27 m 1
 47 27 l 1
 47 25 l 1
 49 25 l 1
 49 27 l 1
55 27 m 1
 53 27 l 1
 53 25 l 1
 55 25 l 1
 55 27 l 1
58 27 m 1
 56 27 l 1
 56 25 l 1
 57 25 l 1
 57 26 l 1
 58 26 l 1
 58 27 l 1
59 26 m 1
 58 26 l 1
 58 25 l 1
 60 25 l 1
 60 27 l 1
 59 27 l 1
 59 26 l 1
63 27 m 1
 61 27 l 1
 61 25 l 1
 63 25 l 1
 63 27 l 1
EndSplineSet
EndChar

StartChar: custom_0_2_0_0_4
Encoding: 20572 20572 604
Width: 70
Flags: H
LayerCount: 2
Fore
SplineSet
17 43 m 1
 15 43 l 1
 15 41 l 1
 17 41 l 1
 17 43 l 1
17 39 m 1
 15 39 l 1
 15 37 l 1
 17 37 l 1
 17 39 l 1
17 35 m 1
 15 35 l 1
 15 33 l 1
 17 33 l 1
 17 35 l 1
17 31 m 1
 15 31 l 1
 15 29 l 1
 17 29 l 1
 17 31 l 1
17 27 m 1
 15 27 l 1
 15 25 l 1
 17 25 l 1
 17 27 l 1
31 43 m 1
 29 43 l 1
 29 41 l 1
 31 41 l 1
 31 43 l 1
31 39 m 1
 29 39 l 1
 29 37 l 1
 31 37 l 1
 31 39 l 1
31 35 m 1
 29 35 l 1
 29 33 l 1
 31 33 l 1
 31 35 l 1
36 37 m 1
 34 37 l 1
 34 35 l 1
 36 35 l 1
 36 37 l 1
36 33 m 1
 34 33 l 1
 34 31 l 1
 36 31 l 1
 36 33 l 1
41 43 m 1
 39 43 l 1
 39 41 l 1
 41 41 l 1
 41 43 l 1
44 43 m 1
 42 43 l 1
 42 41 l 1
 43 41 l 1
 43 42 l 1
 44 42 l 1
 44 43 l 1
46 43 m 1
 45 43 l 1
 45 42 l 1
 44 42 l 1
 44 41 l 1
 46 41 l 1
 46 43 l 1
49 43 m 1
 47 43 l 1
 47 41 l 1
 49 41 l 1
 49 43 l 1
55 43 m 1
 53 43 l 1
 53 41 l 1
 55 41 l 1
 55 43 l 1
41 39 m 1
 39 39 l 1
 39 37 l 1
 41 37 l 1
 41 39 l 1
41 35 m 1
 39 35 l 1
 39 33 l 1
 41 33 l 1
 41 35 l 1
49 39 m 1
 47 39 l 1
 47 37 l 1
 49 37 l 1
 49 39 l 1
49 35 m 1
 47 35 l 1
 47 33 l 1
 49 33 l 1
 49 35 l 1
55 35 m 1
 53 35 l 1
 53 33 l 1
 55 33 l 1
 55 35 l 1
58 43 m 1
 56 43 l 1
 56 41 l 1
 57 41 l 1
 57 42 l 1
 58 42 l 1
 58 43 l 1
59 42 m 1
 58 42 l 1
 58 41 l 1
 60 41 l 1
 60 43 l 1
 59 43 l 1
 59 42 l 1
63 43 m 1
 61 43 l 1
 61 41 l 1
 63 41 l 1
 63 43 l 1
63 39 m 1
 61 39 l 1
 61 37 l 1
 63 37 l 1
 63 39 l 1
57 35 m 1
 56 35 l 1
 56 33 l 1
 58 33 l 1
 58 34 l 1
 57 34 l 1
 57 35 l 1
60 35 m 1
 58 35 l 1
 58 34 l 1
 59 34 l 1
 59 33 l 1
 60 33 l 1
 60 35 l 1
63 35 m 1
 61 35 l 1
 61 33 l 1
 63 33 l 1
 63 35 l 1
31 31 m 1
 29 31 l 1
 29 29 l 1
 31 29 l 1
 31 31 l 1
31 27 m 1
 29 27 l 1
 29 25 l 1
 31 25 l 1
 31 27 l 1
41 31 m 1
 39 31 l 1
 39 29 l 1
 41 29 l 1
 41 31 l 1
41 27 m 1
 39 27 l 1
 39 25 l 1
 41 25 l 1
 41 27 l 1
44 27 m 1
 42 27 l 1
 42 25 l 1
 43 25 l 1
 43 26 l 1
 44 26 l 1
 44 27 l 1
46 27 m 1
 45 27 l 1
 45 26 l 1
 44 26 l 1
 44 25 l 1
 46 25 l 1
 46 27 l 1
49 31 m 1
 47 31 l 1
 47 29 l 1
 49 29 l 1
 49 31 l 1
55 31 m 1
 53 31 l 1
 53 29 l 1
 55 29 l 1
 55 31 l 1
49 27 m 1
 47 27 l 1
 47 25 l 1
 49 25 l 1
 49 27 l 1
55 27 m 1
 53 27 l 1
 53 25 l 1
 55 25 l 1
 55 27 l 1
58 27 m 1
 56 27 l 1
 56 25 l 1
 57 25 l 1
 57 26 l 1
 58 26 l 1
 58 27 l 1
59 26 m 1
 58 26 l 1
 58 25 l 1
 60 25 l 1
 60 27 l 1
 59 27 l 1
 59 26 l 1
63 27 m 1
 61 27 l 1
 61 25 l 1
 63 25 l 1
 63 27 l 1
EndSplineSet
EndChar

StartChar: custom_0_2_0_0_5
Encoding: 20573 20573 605
Width: 70
Flags: H
LayerCount: 2
Fore
SplineSet
17 43 m 1
 15 43 l 1
 15 41 l 1
 17 41 l 1
 17 43 l 1
17 39 m 1
 15 39 l 1
 15 37 l 1
 17 37 l 1
 17 39 l 1
17 35 m 1
 15 35 l 1
 15 33 l 1
 17 33 l 1
 17 35 l 1
17 31 m 1
 15 31 l 1
 15 29 l 1
 17 29 l 1
 17 31 l 1
17 27 m 1
 15 27 l 1
 15 25 l 1
 17 25 l 1
 17 27 l 1
31 43 m 1
 29 43 l 1
 29 41 l 1
 31 41 l 1
 31 43 l 1
31 39 m 1
 29 39 l 1
 29 37 l 1
 31 37 l 1
 31 39 l 1
31 35 m 1
 29 35 l 1
 29 33 l 1
 31 33 l 1
 31 35 l 1
36 37 m 1
 34 37 l 1
 34 35 l 1
 36 35 l 1
 36 37 l 1
36 33 m 1
 34 33 l 1
 34 31 l 1
 36 31 l 1
 36 33 l 1
41 43 m 1
 39 43 l 1
 39 41 l 1
 41 41 l 1
 41 43 l 1
44 43 m 1
 42 43 l 1
 42 41 l 1
 43 41 l 1
 43 42 l 1
 44 42 l 1
 44 43 l 1
46 43 m 1
 45 43 l 1
 45 42 l 1
 44 42 l 1
 44 41 l 1
 46 41 l 1
 46 43 l 1
49 43 m 1
 47 43 l 1
 47 41 l 1
 49 41 l 1
 49 43 l 1
55 43 m 1
 53 43 l 1
 53 41 l 1
 55 41 l 1
 55 43 l 1
41 39 m 1
 39 39 l 1
 39 37 l 1
 41 37 l 1
 41 39 l 1
41 35 m 1
 39 35 l 1
 39 33 l 1
 41 33 l 1
 41 35 l 1
49 39 m 1
 47 39 l 1
 47 37 l 1
 49 37 l 1
 49 39 l 1
49 35 m 1
 47 35 l 1
 47 33 l 1
 49 33 l 1
 49 35 l 1
55 35 m 1
 53 35 l 1
 53 33 l 1
 55 33 l 1
 55 35 l 1
58 43 m 1
 56 43 l 1
 56 41 l 1
 57 41 l 1
 57 42 l 1
 58 42 l 1
 58 43 l 1
59 42 m 1
 58 42 l 1
 58 41 l 1
 60 41 l 1
 60 43 l 1
 59 43 l 1
 59 42 l 1
63 43 m 1
 61 43 l 1
 61 41 l 1
 63 41 l 1
 63 43 l 1
63 39 m 1
 61 39 l 1
 61 37 l 1
 63 37 l 1
 63 39 l 1
57 35 m 1
 56 35 l 1
 56 33 l 1
 58 33 l 1
 58 34 l 1
 57 34 l 1
 57 35 l 1
60 35 m 1
 58 35 l 1
 58 34 l 1
 59 34 l 1
 59 33 l 1
 60 33 l 1
 60 35 l 1
63 35 m 1
 61 35 l 1
 61 33 l 1
 63 33 l 1
 63 35 l 1
31 31 m 1
 29 31 l 1
 29 29 l 1
 31 29 l 1
 31 31 l 1
31 27 m 1
 29 27 l 1
 29 25 l 1
 31 25 l 1
 31 27 l 1
41 31 m 1
 39 31 l 1
 39 29 l 1
 41 29 l 1
 41 31 l 1
41 27 m 1
 39 27 l 1
 39 25 l 1
 41 25 l 1
 41 27 l 1
44 27 m 1
 42 27 l 1
 42 25 l 1
 43 25 l 1
 43 26 l 1
 44 26 l 1
 44 27 l 1
46 27 m 1
 45 27 l 1
 45 26 l 1
 44 26 l 1
 44 25 l 1
 46 25 l 1
 46 27 l 1
49 31 m 1
 47 31 l 1
 47 29 l 1
 49 29 l 1
 49 31 l 1
55 31 m 1
 53 31 l 1
 53 29 l 1
 55 29 l 1
 55 31 l 1
49 27 m 1
 47 27 l 1
 47 25 l 1
 49 25 l 1
 49 27 l 1
55 27 m 1
 53 27 l 1
 53 25 l 1
 55 25 l 1
 55 27 l 1
58 27 m 1
 56 27 l 1
 56 25 l 1
 57 25 l 1
 57 26 l 1
 58 26 l 1
 58 27 l 1
59 26 m 1
 58 26 l 1
 58 25 l 1
 60 25 l 1
 60 27 l 1
 59 27 l 1
 59 26 l 1
63 27 m 1
 61 27 l 1
 61 25 l 1
 63 25 l 1
 63 27 l 1
EndSplineSet
EndChar

StartChar: custom_0_2_0_0_6
Encoding: 20574 20574 606
Width: 70
Flags: H
LayerCount: 2
Fore
SplineSet
17 43 m 1
 15 43 l 1
 15 41 l 1
 17 41 l 1
 17 43 l 1
17 39 m 1
 15 39 l 1
 15 37 l 1
 17 37 l 1
 17 39 l 1
17 35 m 1
 15 35 l 1
 15 33 l 1
 17 33 l 1
 17 35 l 1
17 31 m 1
 15 31 l 1
 15 29 l 1
 17 29 l 1
 17 31 l 1
17 27 m 1
 15 27 l 1
 15 25 l 1
 17 25 l 1
 17 27 l 1
31 43 m 1
 29 43 l 1
 29 41 l 1
 31 41 l 1
 31 43 l 1
31 39 m 1
 29 39 l 1
 29 37 l 1
 31 37 l 1
 31 39 l 1
31 35 m 1
 29 35 l 1
 29 33 l 1
 31 33 l 1
 31 35 l 1
36 37 m 1
 34 37 l 1
 34 35 l 1
 36 35 l 1
 36 37 l 1
36 33 m 1
 34 33 l 1
 34 31 l 1
 36 31 l 1
 36 33 l 1
41 43 m 1
 39 43 l 1
 39 41 l 1
 41 41 l 1
 41 43 l 1
44 43 m 1
 42 43 l 1
 42 41 l 1
 43 41 l 1
 43 42 l 1
 44 42 l 1
 44 43 l 1
46 43 m 1
 45 43 l 1
 45 42 l 1
 44 42 l 1
 44 41 l 1
 46 41 l 1
 46 43 l 1
49 43 m 1
 47 43 l 1
 47 41 l 1
 49 41 l 1
 49 43 l 1
55 43 m 1
 53 43 l 1
 53 41 l 1
 55 41 l 1
 55 43 l 1
41 39 m 1
 39 39 l 1
 39 37 l 1
 41 37 l 1
 41 39 l 1
41 35 m 1
 39 35 l 1
 39 33 l 1
 41 33 l 1
 41 35 l 1
49 39 m 1
 47 39 l 1
 47 37 l 1
 49 37 l 1
 49 39 l 1
49 35 m 1
 47 35 l 1
 47 33 l 1
 49 33 l 1
 49 35 l 1
55 35 m 1
 53 35 l 1
 53 33 l 1
 55 33 l 1
 55 35 l 1
58 43 m 1
 56 43 l 1
 56 41 l 1
 57 41 l 1
 57 42 l 1
 58 42 l 1
 58 43 l 1
59 42 m 1
 58 42 l 1
 58 41 l 1
 60 41 l 1
 60 43 l 1
 59 43 l 1
 59 42 l 1
63 43 m 1
 61 43 l 1
 61 41 l 1
 63 41 l 1
 63 43 l 1
63 39 m 1
 61 39 l 1
 61 37 l 1
 63 37 l 1
 63 39 l 1
57 35 m 1
 56 35 l 1
 56 33 l 1
 58 33 l 1
 58 34 l 1
 57 34 l 1
 57 35 l 1
60 35 m 1
 58 35 l 1
 58 34 l 1
 59 34 l 1
 59 33 l 1
 60 33 l 1
 60 35 l 1
63 35 m 1
 61 35 l 1
 61 33 l 1
 63 33 l 1
 63 35 l 1
31 31 m 1
 29 31 l 1
 29 29 l 1
 31 29 l 1
 31 31 l 1
31 27 m 1
 29 27 l 1
 29 25 l 1
 31 25 l 1
 31 27 l 1
41 31 m 1
 39 31 l 1
 39 29 l 1
 41 29 l 1
 41 31 l 1
41 27 m 1
 39 27 l 1
 39 25 l 1
 41 25 l 1
 41 27 l 1
44 27 m 1
 42 27 l 1
 42 25 l 1
 43 25 l 1
 43 26 l 1
 44 26 l 1
 44 27 l 1
46 27 m 1
 45 27 l 1
 45 26 l 1
 44 26 l 1
 44 25 l 1
 46 25 l 1
 46 27 l 1
49 31 m 1
 47 31 l 1
 47 29 l 1
 49 29 l 1
 49 31 l 1
55 31 m 1
 53 31 l 1
 53 29 l 1
 55 29 l 1
 55 31 l 1
49 27 m 1
 47 27 l 1
 47 25 l 1
 49 25 l 1
 49 27 l 1
55 27 m 1
 53 27 l 1
 53 25 l 1
 55 25 l 1
 55 27 l 1
58 27 m 1
 56 27 l 1
 56 25 l 1
 57 25 l 1
 57 26 l 1
 58 26 l 1
 58 27 l 1
59 26 m 1
 58 26 l 1
 58 25 l 1
 60 25 l 1
 60 27 l 1
 59 27 l 1
 59 26 l 1
63 27 m 1
 61 27 l 1
 61 25 l 1
 63 25 l 1
 63 27 l 1
EndSplineSet
EndChar

StartChar: custom_0_2_0_0_7
Encoding: 20575 20575 607
Width: 70
Flags: H
LayerCount: 2
Fore
SplineSet
17 43 m 1
 15 43 l 1
 15 41 l 1
 17 41 l 1
 17 43 l 1
17 39 m 1
 15 39 l 1
 15 37 l 1
 17 37 l 1
 17 39 l 1
17 35 m 1
 15 35 l 1
 15 33 l 1
 17 33 l 1
 17 35 l 1
17 31 m 1
 15 31 l 1
 15 29 l 1
 17 29 l 1
 17 31 l 1
17 27 m 1
 15 27 l 1
 15 25 l 1
 17 25 l 1
 17 27 l 1
31 43 m 1
 29 43 l 1
 29 41 l 1
 31 41 l 1
 31 43 l 1
31 39 m 1
 29 39 l 1
 29 37 l 1
 31 37 l 1
 31 39 l 1
31 35 m 1
 29 35 l 1
 29 33 l 1
 31 33 l 1
 31 35 l 1
36 37 m 1
 34 37 l 1
 34 35 l 1
 36 35 l 1
 36 37 l 1
36 33 m 1
 34 33 l 1
 34 31 l 1
 36 31 l 1
 36 33 l 1
41 43 m 1
 39 43 l 1
 39 41 l 1
 41 41 l 1
 41 43 l 1
44 43 m 1
 42 43 l 1
 42 41 l 1
 43 41 l 1
 43 42 l 1
 44 42 l 1
 44 43 l 1
46 43 m 1
 45 43 l 1
 45 42 l 1
 44 42 l 1
 44 41 l 1
 46 41 l 1
 46 43 l 1
49 43 m 1
 47 43 l 1
 47 41 l 1
 49 41 l 1
 49 43 l 1
55 43 m 1
 53 43 l 1
 53 41 l 1
 55 41 l 1
 55 43 l 1
41 39 m 1
 39 39 l 1
 39 37 l 1
 41 37 l 1
 41 39 l 1
41 35 m 1
 39 35 l 1
 39 33 l 1
 41 33 l 1
 41 35 l 1
49 39 m 1
 47 39 l 1
 47 37 l 1
 49 37 l 1
 49 39 l 1
49 35 m 1
 47 35 l 1
 47 33 l 1
 49 33 l 1
 49 35 l 1
55 35 m 1
 53 35 l 1
 53 33 l 1
 55 33 l 1
 55 35 l 1
58 43 m 1
 56 43 l 1
 56 41 l 1
 57 41 l 1
 57 42 l 1
 58 42 l 1
 58 43 l 1
59 42 m 1
 58 42 l 1
 58 41 l 1
 60 41 l 1
 60 43 l 1
 59 43 l 1
 59 42 l 1
63 43 m 1
 61 43 l 1
 61 41 l 1
 63 41 l 1
 63 43 l 1
63 39 m 1
 61 39 l 1
 61 37 l 1
 63 37 l 1
 63 39 l 1
57 35 m 1
 56 35 l 1
 56 33 l 1
 58 33 l 1
 58 34 l 1
 57 34 l 1
 57 35 l 1
60 35 m 1
 58 35 l 1
 58 34 l 1
 59 34 l 1
 59 33 l 1
 60 33 l 1
 60 35 l 1
63 35 m 1
 61 35 l 1
 61 33 l 1
 63 33 l 1
 63 35 l 1
31 31 m 1
 29 31 l 1
 29 29 l 1
 31 29 l 1
 31 31 l 1
31 27 m 1
 29 27 l 1
 29 25 l 1
 31 25 l 1
 31 27 l 1
41 31 m 1
 39 31 l 1
 39 29 l 1
 41 29 l 1
 41 31 l 1
41 27 m 1
 39 27 l 1
 39 25 l 1
 41 25 l 1
 41 27 l 1
44 27 m 1
 42 27 l 1
 42 25 l 1
 43 25 l 1
 43 26 l 1
 44 26 l 1
 44 27 l 1
46 27 m 1
 45 27 l 1
 45 26 l 1
 44 26 l 1
 44 25 l 1
 46 25 l 1
 46 27 l 1
49 31 m 1
 47 31 l 1
 47 29 l 1
 49 29 l 1
 49 31 l 1
55 31 m 1
 53 31 l 1
 53 29 l 1
 55 29 l 1
 55 31 l 1
49 27 m 1
 47 27 l 1
 47 25 l 1
 49 25 l 1
 49 27 l 1
55 27 m 1
 53 27 l 1
 53 25 l 1
 55 25 l 1
 55 27 l 1
58 27 m 1
 56 27 l 1
 56 25 l 1
 57 25 l 1
 57 26 l 1
 58 26 l 1
 58 27 l 1
59 26 m 1
 58 26 l 1
 58 25 l 1
 60 25 l 1
 60 27 l 1
 59 27 l 1
 59 26 l 1
63 27 m 1
 61 27 l 1
 61 25 l 1
 63 25 l 1
 63 27 l 1
EndSplineSet
EndChar

StartChar: custom_0_2_0_0_8
Encoding: 20576 20576 608
Width: 70
Flags: H
LayerCount: 2
Fore
SplineSet
17 43 m 1
 15 43 l 1
 15 41 l 1
 17 41 l 1
 17 43 l 1
17 39 m 1
 15 39 l 1
 15 37 l 1
 17 37 l 1
 17 39 l 1
17 35 m 1
 15 35 l 1
 15 33 l 1
 17 33 l 1
 17 35 l 1
17 31 m 1
 15 31 l 1
 15 29 l 1
 17 29 l 1
 17 31 l 1
17 27 m 1
 15 27 l 1
 15 25 l 1
 17 25 l 1
 17 27 l 1
31 43 m 1
 29 43 l 1
 29 41 l 1
 31 41 l 1
 31 43 l 1
31 39 m 1
 29 39 l 1
 29 37 l 1
 31 37 l 1
 31 39 l 1
31 35 m 1
 29 35 l 1
 29 33 l 1
 31 33 l 1
 31 35 l 1
36 37 m 1
 34 37 l 1
 34 35 l 1
 36 35 l 1
 36 37 l 1
36 33 m 1
 34 33 l 1
 34 31 l 1
 36 31 l 1
 36 33 l 1
41 43 m 1
 39 43 l 1
 39 41 l 1
 41 41 l 1
 41 43 l 1
44 43 m 1
 42 43 l 1
 42 41 l 1
 43 41 l 1
 43 42 l 1
 44 42 l 1
 44 43 l 1
46 43 m 1
 45 43 l 1
 45 42 l 1
 44 42 l 1
 44 41 l 1
 46 41 l 1
 46 43 l 1
49 43 m 1
 47 43 l 1
 47 41 l 1
 49 41 l 1
 49 43 l 1
55 43 m 1
 53 43 l 1
 53 41 l 1
 55 41 l 1
 55 43 l 1
41 39 m 1
 39 39 l 1
 39 37 l 1
 41 37 l 1
 41 39 l 1
41 35 m 1
 39 35 l 1
 39 33 l 1
 41 33 l 1
 41 35 l 1
49 39 m 1
 47 39 l 1
 47 37 l 1
 49 37 l 1
 49 39 l 1
49 35 m 1
 47 35 l 1
 47 33 l 1
 49 33 l 1
 49 35 l 1
55 35 m 1
 53 35 l 1
 53 33 l 1
 55 33 l 1
 55 35 l 1
58 43 m 1
 56 43 l 1
 56 41 l 1
 57 41 l 1
 57 42 l 1
 58 42 l 1
 58 43 l 1
59 42 m 1
 58 42 l 1
 58 41 l 1
 60 41 l 1
 60 43 l 1
 59 43 l 1
 59 42 l 1
63 43 m 1
 61 43 l 1
 61 41 l 1
 63 41 l 1
 63 43 l 1
63 39 m 1
 61 39 l 1
 61 37 l 1
 63 37 l 1
 63 39 l 1
57 35 m 1
 56 35 l 1
 56 33 l 1
 58 33 l 1
 58 34 l 1
 57 34 l 1
 57 35 l 1
60 35 m 1
 58 35 l 1
 58 34 l 1
 59 34 l 1
 59 33 l 1
 60 33 l 1
 60 35 l 1
63 35 m 1
 61 35 l 1
 61 33 l 1
 63 33 l 1
 63 35 l 1
31 31 m 1
 29 31 l 1
 29 29 l 1
 31 29 l 1
 31 31 l 1
31 27 m 1
 29 27 l 1
 29 25 l 1
 31 25 l 1
 31 27 l 1
41 31 m 1
 39 31 l 1
 39 29 l 1
 41 29 l 1
 41 31 l 1
41 27 m 1
 39 27 l 1
 39 25 l 1
 41 25 l 1
 41 27 l 1
44 27 m 1
 42 27 l 1
 42 25 l 1
 43 25 l 1
 43 26 l 1
 44 26 l 1
 44 27 l 1
46 27 m 1
 45 27 l 1
 45 26 l 1
 44 26 l 1
 44 25 l 1
 46 25 l 1
 46 27 l 1
49 31 m 1
 47 31 l 1
 47 29 l 1
 49 29 l 1
 49 31 l 1
55 31 m 1
 53 31 l 1
 53 29 l 1
 55 29 l 1
 55 31 l 1
49 27 m 1
 47 27 l 1
 47 25 l 1
 49 25 l 1
 49 27 l 1
55 27 m 1
 53 27 l 1
 53 25 l 1
 55 25 l 1
 55 27 l 1
58 27 m 1
 56 27 l 1
 56 25 l 1
 57 25 l 1
 57 26 l 1
 58 26 l 1
 58 27 l 1
59 26 m 1
 58 26 l 1
 58 25 l 1
 60 25 l 1
 60 27 l 1
 59 27 l 1
 59 26 l 1
63 27 m 1
 61 27 l 1
 61 25 l 1
 63 25 l 1
 63 27 l 1
EndSplineSet
EndChar

StartChar: custom_0_2_0_0_9
Encoding: 20577 20577 609
Width: 70
Flags: H
LayerCount: 2
Fore
SplineSet
17 43 m 1
 15 43 l 1
 15 41 l 1
 17 41 l 1
 17 43 l 1
17 39 m 1
 15 39 l 1
 15 37 l 1
 17 37 l 1
 17 39 l 1
17 35 m 1
 15 35 l 1
 15 33 l 1
 17 33 l 1
 17 35 l 1
17 31 m 1
 15 31 l 1
 15 29 l 1
 17 29 l 1
 17 31 l 1
17 27 m 1
 15 27 l 1
 15 25 l 1
 17 25 l 1
 17 27 l 1
31 43 m 1
 29 43 l 1
 29 41 l 1
 31 41 l 1
 31 43 l 1
31 39 m 1
 29 39 l 1
 29 37 l 1
 31 37 l 1
 31 39 l 1
31 35 m 1
 29 35 l 1
 29 33 l 1
 31 33 l 1
 31 35 l 1
36 37 m 1
 34 37 l 1
 34 35 l 1
 36 35 l 1
 36 37 l 1
36 33 m 1
 34 33 l 1
 34 31 l 1
 36 31 l 1
 36 33 l 1
41 43 m 1
 39 43 l 1
 39 41 l 1
 41 41 l 1
 41 43 l 1
44 43 m 1
 42 43 l 1
 42 41 l 1
 43 41 l 1
 43 42 l 1
 44 42 l 1
 44 43 l 1
46 43 m 1
 45 43 l 1
 45 42 l 1
 44 42 l 1
 44 41 l 1
 46 41 l 1
 46 43 l 1
49 43 m 1
 47 43 l 1
 47 41 l 1
 49 41 l 1
 49 43 l 1
55 43 m 1
 53 43 l 1
 53 41 l 1
 55 41 l 1
 55 43 l 1
41 39 m 1
 39 39 l 1
 39 37 l 1
 41 37 l 1
 41 39 l 1
41 35 m 1
 39 35 l 1
 39 33 l 1
 41 33 l 1
 41 35 l 1
49 39 m 1
 47 39 l 1
 47 37 l 1
 49 37 l 1
 49 39 l 1
49 35 m 1
 47 35 l 1
 47 33 l 1
 49 33 l 1
 49 35 l 1
55 35 m 1
 53 35 l 1
 53 33 l 1
 55 33 l 1
 55 35 l 1
58 43 m 1
 56 43 l 1
 56 41 l 1
 57 41 l 1
 57 42 l 1
 58 42 l 1
 58 43 l 1
59 42 m 1
 58 42 l 1
 58 41 l 1
 60 41 l 1
 60 43 l 1
 59 43 l 1
 59 42 l 1
63 43 m 1
 61 43 l 1
 61 41 l 1
 63 41 l 1
 63 43 l 1
63 39 m 1
 61 39 l 1
 61 37 l 1
 63 37 l 1
 63 39 l 1
57 35 m 1
 56 35 l 1
 56 33 l 1
 58 33 l 1
 58 34 l 1
 57 34 l 1
 57 35 l 1
60 35 m 1
 58 35 l 1
 58 34 l 1
 59 34 l 1
 59 33 l 1
 60 33 l 1
 60 35 l 1
63 35 m 1
 61 35 l 1
 61 33 l 1
 63 33 l 1
 63 35 l 1
31 31 m 1
 29 31 l 1
 29 29 l 1
 31 29 l 1
 31 31 l 1
31 27 m 1
 29 27 l 1
 29 25 l 1
 31 25 l 1
 31 27 l 1
41 31 m 1
 39 31 l 1
 39 29 l 1
 41 29 l 1
 41 31 l 1
41 27 m 1
 39 27 l 1
 39 25 l 1
 41 25 l 1
 41 27 l 1
44 27 m 1
 42 27 l 1
 42 25 l 1
 43 25 l 1
 43 26 l 1
 44 26 l 1
 44 27 l 1
46 27 m 1
 45 27 l 1
 45 26 l 1
 44 26 l 1
 44 25 l 1
 46 25 l 1
 46 27 l 1
49 31 m 1
 47 31 l 1
 47 29 l 1
 49 29 l 1
 49 31 l 1
55 31 m 1
 53 31 l 1
 53 29 l 1
 55 29 l 1
 55 31 l 1
49 27 m 1
 47 27 l 1
 47 25 l 1
 49 25 l 1
 49 27 l 1
55 27 m 1
 53 27 l 1
 53 25 l 1
 55 25 l 1
 55 27 l 1
58 27 m 1
 56 27 l 1
 56 25 l 1
 57 25 l 1
 57 26 l 1
 58 26 l 1
 58 27 l 1
59 26 m 1
 58 26 l 1
 58 25 l 1
 60 25 l 1
 60 27 l 1
 59 27 l 1
 59 26 l 1
63 27 m 1
 61 27 l 1
 61 25 l 1
 63 25 l 1
 63 27 l 1
EndSplineSet
EndChar

StartChar: custom_0_2_0_1_0
Encoding: 20578 20578 610
Width: 70
Flags: H
LayerCount: 2
Fore
SplineSet
17 43 m 1
 15 43 l 1
 15 41 l 1
 17 41 l 1
 17 43 l 1
17 39 m 1
 15 39 l 1
 15 37 l 1
 17 37 l 1
 17 39 l 1
17 35 m 1
 15 35 l 1
 15 33 l 1
 17 33 l 1
 17 35 l 1
17 31 m 1
 15 31 l 1
 15 29 l 1
 17 29 l 1
 17 31 l 1
17 27 m 1
 15 27 l 1
 15 25 l 1
 17 25 l 1
 17 27 l 1
31 43 m 1
 29 43 l 1
 29 41 l 1
 31 41 l 1
 31 43 l 1
31 39 m 1
 29 39 l 1
 29 37 l 1
 31 37 l 1
 31 39 l 1
31 35 m 1
 29 35 l 1
 29 33 l 1
 31 33 l 1
 31 35 l 1
36 37 m 1
 34 37 l 1
 34 35 l 1
 36 35 l 1
 36 37 l 1
36 33 m 1
 34 33 l 1
 34 31 l 1
 36 31 l 1
 36 33 l 1
41 43 m 1
 39 43 l 1
 39 41 l 1
 41 41 l 1
 41 43 l 1
44 43 m 1
 42 43 l 1
 42 41 l 1
 43 41 l 1
 43 42 l 1
 44 42 l 1
 44 43 l 1
46 43 m 1
 45 43 l 1
 45 42 l 1
 44 42 l 1
 44 41 l 1
 46 41 l 1
 46 43 l 1
49 43 m 1
 47 43 l 1
 47 41 l 1
 49 41 l 1
 49 43 l 1
55 43 m 1
 53 43 l 1
 53 41 l 1
 55 41 l 1
 55 43 l 1
41 39 m 1
 39 39 l 1
 39 37 l 1
 41 37 l 1
 41 39 l 1
41 35 m 1
 39 35 l 1
 39 33 l 1
 41 33 l 1
 41 35 l 1
49 39 m 1
 47 39 l 1
 47 37 l 1
 49 37 l 1
 49 39 l 1
49 35 m 1
 47 35 l 1
 47 33 l 1
 49 33 l 1
 49 35 l 1
55 35 m 1
 53 35 l 1
 53 33 l 1
 55 33 l 1
 55 35 l 1
58 43 m 1
 56 43 l 1
 56 41 l 1
 57 41 l 1
 57 42 l 1
 58 42 l 1
 58 43 l 1
59 42 m 1
 58 42 l 1
 58 41 l 1
 60 41 l 1
 60 43 l 1
 59 43 l 1
 59 42 l 1
63 43 m 1
 61 43 l 1
 61 41 l 1
 63 41 l 1
 63 43 l 1
63 39 m 1
 61 39 l 1
 61 37 l 1
 63 37 l 1
 63 39 l 1
57 35 m 1
 56 35 l 1
 56 33 l 1
 58 33 l 1
 58 34 l 1
 57 34 l 1
 57 35 l 1
60 35 m 1
 58 35 l 1
 58 34 l 1
 59 34 l 1
 59 33 l 1
 60 33 l 1
 60 35 l 1
63 35 m 1
 61 35 l 1
 61 33 l 1
 63 33 l 1
 63 35 l 1
31 31 m 1
 29 31 l 1
 29 29 l 1
 31 29 l 1
 31 31 l 1
31 27 m 1
 29 27 l 1
 29 25 l 1
 31 25 l 1
 31 27 l 1
41 31 m 1
 39 31 l 1
 39 29 l 1
 41 29 l 1
 41 31 l 1
41 27 m 1
 39 27 l 1
 39 25 l 1
 41 25 l 1
 41 27 l 1
44 27 m 1
 42 27 l 1
 42 25 l 1
 43 25 l 1
 43 26 l 1
 44 26 l 1
 44 27 l 1
46 27 m 1
 45 27 l 1
 45 26 l 1
 44 26 l 1
 44 25 l 1
 46 25 l 1
 46 27 l 1
49 31 m 1
 47 31 l 1
 47 29 l 1
 49 29 l 1
 49 31 l 1
55 31 m 1
 53 31 l 1
 53 29 l 1
 55 29 l 1
 55 31 l 1
49 27 m 1
 47 27 l 1
 47 25 l 1
 49 25 l 1
 49 27 l 1
55 27 m 1
 53 27 l 1
 53 25 l 1
 55 25 l 1
 55 27 l 1
58 27 m 1
 56 27 l 1
 56 25 l 1
 57 25 l 1
 57 26 l 1
 58 26 l 1
 58 27 l 1
59 26 m 1
 58 26 l 1
 58 25 l 1
 60 25 l 1
 60 27 l 1
 59 27 l 1
 59 26 l 1
63 27 m 1
 61 27 l 1
 61 25 l 1
 63 25 l 1
 63 27 l 1
EndSplineSet
EndChar

StartChar: custom_0_2_0_1_1
Encoding: 20579 20579 611
Width: 70
Flags: H
LayerCount: 2
Fore
SplineSet
17 43 m 1
 15 43 l 1
 15 41 l 1
 17 41 l 1
 17 43 l 1
17 39 m 1
 15 39 l 1
 15 37 l 1
 17 37 l 1
 17 39 l 1
17 35 m 1
 15 35 l 1
 15 33 l 1
 17 33 l 1
 17 35 l 1
17 31 m 1
 15 31 l 1
 15 29 l 1
 17 29 l 1
 17 31 l 1
17 27 m 1
 15 27 l 1
 15 25 l 1
 17 25 l 1
 17 27 l 1
31 43 m 1
 29 43 l 1
 29 41 l 1
 31 41 l 1
 31 43 l 1
31 39 m 1
 29 39 l 1
 29 37 l 1
 31 37 l 1
 31 39 l 1
31 35 m 1
 29 35 l 1
 29 33 l 1
 31 33 l 1
 31 35 l 1
36 37 m 1
 34 37 l 1
 34 35 l 1
 36 35 l 1
 36 37 l 1
36 33 m 1
 34 33 l 1
 34 31 l 1
 36 31 l 1
 36 33 l 1
41 43 m 1
 39 43 l 1
 39 41 l 1
 41 41 l 1
 41 43 l 1
44 43 m 1
 42 43 l 1
 42 41 l 1
 43 41 l 1
 43 42 l 1
 44 42 l 1
 44 43 l 1
46 43 m 1
 45 43 l 1
 45 42 l 1
 44 42 l 1
 44 41 l 1
 46 41 l 1
 46 43 l 1
49 43 m 1
 47 43 l 1
 47 41 l 1
 49 41 l 1
 49 43 l 1
55 43 m 1
 53 43 l 1
 53 41 l 1
 55 41 l 1
 55 43 l 1
41 39 m 1
 39 39 l 1
 39 37 l 1
 41 37 l 1
 41 39 l 1
41 35 m 1
 39 35 l 1
 39 33 l 1
 41 33 l 1
 41 35 l 1
49 39 m 1
 47 39 l 1
 47 37 l 1
 49 37 l 1
 49 39 l 1
49 35 m 1
 47 35 l 1
 47 33 l 1
 49 33 l 1
 49 35 l 1
55 35 m 1
 53 35 l 1
 53 33 l 1
 55 33 l 1
 55 35 l 1
58 43 m 1
 56 43 l 1
 56 41 l 1
 57 41 l 1
 57 42 l 1
 58 42 l 1
 58 43 l 1
59 42 m 1
 58 42 l 1
 58 41 l 1
 60 41 l 1
 60 43 l 1
 59 43 l 1
 59 42 l 1
63 43 m 1
 61 43 l 1
 61 41 l 1
 63 41 l 1
 63 43 l 1
63 39 m 1
 61 39 l 1
 61 37 l 1
 63 37 l 1
 63 39 l 1
57 35 m 1
 56 35 l 1
 56 33 l 1
 58 33 l 1
 58 34 l 1
 57 34 l 1
 57 35 l 1
60 35 m 1
 58 35 l 1
 58 34 l 1
 59 34 l 1
 59 33 l 1
 60 33 l 1
 60 35 l 1
63 35 m 1
 61 35 l 1
 61 33 l 1
 63 33 l 1
 63 35 l 1
31 31 m 1
 29 31 l 1
 29 29 l 1
 31 29 l 1
 31 31 l 1
31 27 m 1
 29 27 l 1
 29 25 l 1
 31 25 l 1
 31 27 l 1
41 31 m 1
 39 31 l 1
 39 29 l 1
 41 29 l 1
 41 31 l 1
41 27 m 1
 39 27 l 1
 39 25 l 1
 41 25 l 1
 41 27 l 1
44 27 m 1
 42 27 l 1
 42 25 l 1
 43 25 l 1
 43 26 l 1
 44 26 l 1
 44 27 l 1
46 27 m 1
 45 27 l 1
 45 26 l 1
 44 26 l 1
 44 25 l 1
 46 25 l 1
 46 27 l 1
49 31 m 1
 47 31 l 1
 47 29 l 1
 49 29 l 1
 49 31 l 1
55 31 m 1
 53 31 l 1
 53 29 l 1
 55 29 l 1
 55 31 l 1
49 27 m 1
 47 27 l 1
 47 25 l 1
 49 25 l 1
 49 27 l 1
55 27 m 1
 53 27 l 1
 53 25 l 1
 55 25 l 1
 55 27 l 1
58 27 m 1
 56 27 l 1
 56 25 l 1
 57 25 l 1
 57 26 l 1
 58 26 l 1
 58 27 l 1
59 26 m 1
 58 26 l 1
 58 25 l 1
 60 25 l 1
 60 27 l 1
 59 27 l 1
 59 26 l 1
63 27 m 1
 61 27 l 1
 61 25 l 1
 63 25 l 1
 63 27 l 1
EndSplineSet
EndChar

StartChar: custom_0_2_0_1_2
Encoding: 20580 20580 612
Width: 70
Flags: H
LayerCount: 2
Fore
SplineSet
17 43 m 1
 15 43 l 1
 15 41 l 1
 17 41 l 1
 17 43 l 1
17 39 m 1
 15 39 l 1
 15 37 l 1
 17 37 l 1
 17 39 l 1
17 35 m 1
 15 35 l 1
 15 33 l 1
 17 33 l 1
 17 35 l 1
17 31 m 1
 15 31 l 1
 15 29 l 1
 17 29 l 1
 17 31 l 1
17 27 m 1
 15 27 l 1
 15 25 l 1
 17 25 l 1
 17 27 l 1
31 43 m 1
 29 43 l 1
 29 41 l 1
 31 41 l 1
 31 43 l 1
31 39 m 1
 29 39 l 1
 29 37 l 1
 31 37 l 1
 31 39 l 1
31 35 m 1
 29 35 l 1
 29 33 l 1
 31 33 l 1
 31 35 l 1
36 37 m 1
 34 37 l 1
 34 35 l 1
 36 35 l 1
 36 37 l 1
36 33 m 1
 34 33 l 1
 34 31 l 1
 36 31 l 1
 36 33 l 1
41 43 m 1
 39 43 l 1
 39 41 l 1
 41 41 l 1
 41 43 l 1
44 43 m 1
 42 43 l 1
 42 41 l 1
 43 41 l 1
 43 42 l 1
 44 42 l 1
 44 43 l 1
46 43 m 1
 45 43 l 1
 45 42 l 1
 44 42 l 1
 44 41 l 1
 46 41 l 1
 46 43 l 1
49 43 m 1
 47 43 l 1
 47 41 l 1
 49 41 l 1
 49 43 l 1
55 43 m 1
 53 43 l 1
 53 41 l 1
 55 41 l 1
 55 43 l 1
41 39 m 1
 39 39 l 1
 39 37 l 1
 41 37 l 1
 41 39 l 1
41 35 m 1
 39 35 l 1
 39 33 l 1
 41 33 l 1
 41 35 l 1
49 39 m 1
 47 39 l 1
 47 37 l 1
 49 37 l 1
 49 39 l 1
49 35 m 1
 47 35 l 1
 47 33 l 1
 49 33 l 1
 49 35 l 1
55 35 m 1
 53 35 l 1
 53 33 l 1
 55 33 l 1
 55 35 l 1
58 43 m 1
 56 43 l 1
 56 41 l 1
 57 41 l 1
 57 42 l 1
 58 42 l 1
 58 43 l 1
59 42 m 1
 58 42 l 1
 58 41 l 1
 60 41 l 1
 60 43 l 1
 59 43 l 1
 59 42 l 1
63 43 m 1
 61 43 l 1
 61 41 l 1
 63 41 l 1
 63 43 l 1
63 39 m 1
 61 39 l 1
 61 37 l 1
 63 37 l 1
 63 39 l 1
57 35 m 1
 56 35 l 1
 56 33 l 1
 58 33 l 1
 58 34 l 1
 57 34 l 1
 57 35 l 1
60 35 m 1
 58 35 l 1
 58 34 l 1
 59 34 l 1
 59 33 l 1
 60 33 l 1
 60 35 l 1
63 35 m 1
 61 35 l 1
 61 33 l 1
 63 33 l 1
 63 35 l 1
31 31 m 1
 29 31 l 1
 29 29 l 1
 31 29 l 1
 31 31 l 1
31 27 m 1
 29 27 l 1
 29 25 l 1
 31 25 l 1
 31 27 l 1
41 31 m 1
 39 31 l 1
 39 29 l 1
 41 29 l 1
 41 31 l 1
41 27 m 1
 39 27 l 1
 39 25 l 1
 41 25 l 1
 41 27 l 1
44 27 m 1
 42 27 l 1
 42 25 l 1
 43 25 l 1
 43 26 l 1
 44 26 l 1
 44 27 l 1
46 27 m 1
 45 27 l 1
 45 26 l 1
 44 26 l 1
 44 25 l 1
 46 25 l 1
 46 27 l 1
49 31 m 1
 47 31 l 1
 47 29 l 1
 49 29 l 1
 49 31 l 1
55 31 m 1
 53 31 l 1
 53 29 l 1
 55 29 l 1
 55 31 l 1
49 27 m 1
 47 27 l 1
 47 25 l 1
 49 25 l 1
 49 27 l 1
55 27 m 1
 53 27 l 1
 53 25 l 1
 55 25 l 1
 55 27 l 1
58 27 m 1
 56 27 l 1
 56 25 l 1
 57 25 l 1
 57 26 l 1
 58 26 l 1
 58 27 l 1
59 26 m 1
 58 26 l 1
 58 25 l 1
 60 25 l 1
 60 27 l 1
 59 27 l 1
 59 26 l 1
63 27 m 1
 61 27 l 1
 61 25 l 1
 63 25 l 1
 63 27 l 1
EndSplineSet
EndChar

StartChar: custom_0_2_0_1_3
Encoding: 20581 20581 613
Width: 70
Flags: H
LayerCount: 2
Fore
SplineSet
17 43 m 1
 15 43 l 1
 15 41 l 1
 17 41 l 1
 17 43 l 1
17 39 m 1
 15 39 l 1
 15 37 l 1
 17 37 l 1
 17 39 l 1
17 35 m 1
 15 35 l 1
 15 33 l 1
 17 33 l 1
 17 35 l 1
17 31 m 1
 15 31 l 1
 15 29 l 1
 17 29 l 1
 17 31 l 1
17 27 m 1
 15 27 l 1
 15 25 l 1
 17 25 l 1
 17 27 l 1
31 43 m 1
 29 43 l 1
 29 41 l 1
 31 41 l 1
 31 43 l 1
31 39 m 1
 29 39 l 1
 29 37 l 1
 31 37 l 1
 31 39 l 1
31 35 m 1
 29 35 l 1
 29 33 l 1
 31 33 l 1
 31 35 l 1
36 37 m 1
 34 37 l 1
 34 35 l 1
 36 35 l 1
 36 37 l 1
36 33 m 1
 34 33 l 1
 34 31 l 1
 36 31 l 1
 36 33 l 1
41 43 m 1
 39 43 l 1
 39 41 l 1
 41 41 l 1
 41 43 l 1
44 43 m 1
 42 43 l 1
 42 41 l 1
 43 41 l 1
 43 42 l 1
 44 42 l 1
 44 43 l 1
46 43 m 1
 45 43 l 1
 45 42 l 1
 44 42 l 1
 44 41 l 1
 46 41 l 1
 46 43 l 1
49 43 m 1
 47 43 l 1
 47 41 l 1
 49 41 l 1
 49 43 l 1
55 43 m 1
 53 43 l 1
 53 41 l 1
 55 41 l 1
 55 43 l 1
41 39 m 1
 39 39 l 1
 39 37 l 1
 41 37 l 1
 41 39 l 1
41 35 m 1
 39 35 l 1
 39 33 l 1
 41 33 l 1
 41 35 l 1
49 39 m 1
 47 39 l 1
 47 37 l 1
 49 37 l 1
 49 39 l 1
49 35 m 1
 47 35 l 1
 47 33 l 1
 49 33 l 1
 49 35 l 1
55 35 m 1
 53 35 l 1
 53 33 l 1
 55 33 l 1
 55 35 l 1
58 43 m 1
 56 43 l 1
 56 41 l 1
 57 41 l 1
 57 42 l 1
 58 42 l 1
 58 43 l 1
59 42 m 1
 58 42 l 1
 58 41 l 1
 60 41 l 1
 60 43 l 1
 59 43 l 1
 59 42 l 1
63 43 m 1
 61 43 l 1
 61 41 l 1
 63 41 l 1
 63 43 l 1
63 39 m 1
 61 39 l 1
 61 37 l 1
 63 37 l 1
 63 39 l 1
57 35 m 1
 56 35 l 1
 56 33 l 1
 58 33 l 1
 58 34 l 1
 57 34 l 1
 57 35 l 1
60 35 m 1
 58 35 l 1
 58 34 l 1
 59 34 l 1
 59 33 l 1
 60 33 l 1
 60 35 l 1
63 35 m 1
 61 35 l 1
 61 33 l 1
 63 33 l 1
 63 35 l 1
31 31 m 1
 29 31 l 1
 29 29 l 1
 31 29 l 1
 31 31 l 1
31 27 m 1
 29 27 l 1
 29 25 l 1
 31 25 l 1
 31 27 l 1
41 31 m 1
 39 31 l 1
 39 29 l 1
 41 29 l 1
 41 31 l 1
41 27 m 1
 39 27 l 1
 39 25 l 1
 41 25 l 1
 41 27 l 1
44 27 m 1
 42 27 l 1
 42 25 l 1
 43 25 l 1
 43 26 l 1
 44 26 l 1
 44 27 l 1
46 27 m 1
 45 27 l 1
 45 26 l 1
 44 26 l 1
 44 25 l 1
 46 25 l 1
 46 27 l 1
49 31 m 1
 47 31 l 1
 47 29 l 1
 49 29 l 1
 49 31 l 1
55 31 m 1
 53 31 l 1
 53 29 l 1
 55 29 l 1
 55 31 l 1
49 27 m 1
 47 27 l 1
 47 25 l 1
 49 25 l 1
 49 27 l 1
55 27 m 1
 53 27 l 1
 53 25 l 1
 55 25 l 1
 55 27 l 1
58 27 m 1
 56 27 l 1
 56 25 l 1
 57 25 l 1
 57 26 l 1
 58 26 l 1
 58 27 l 1
59 26 m 1
 58 26 l 1
 58 25 l 1
 60 25 l 1
 60 27 l 1
 59 27 l 1
 59 26 l 1
63 27 m 1
 61 27 l 1
 61 25 l 1
 63 25 l 1
 63 27 l 1
EndSplineSet
EndChar

StartChar: custom_0_2_0_1_4
Encoding: 20582 20582 614
Width: 70
Flags: H
LayerCount: 2
Fore
SplineSet
17 43 m 1
 15 43 l 1
 15 41 l 1
 17 41 l 1
 17 43 l 1
17 39 m 1
 15 39 l 1
 15 37 l 1
 17 37 l 1
 17 39 l 1
17 35 m 1
 15 35 l 1
 15 33 l 1
 17 33 l 1
 17 35 l 1
17 31 m 1
 15 31 l 1
 15 29 l 1
 17 29 l 1
 17 31 l 1
17 27 m 1
 15 27 l 1
 15 25 l 1
 17 25 l 1
 17 27 l 1
31 43 m 1
 29 43 l 1
 29 41 l 1
 31 41 l 1
 31 43 l 1
31 39 m 1
 29 39 l 1
 29 37 l 1
 31 37 l 1
 31 39 l 1
31 35 m 1
 29 35 l 1
 29 33 l 1
 31 33 l 1
 31 35 l 1
36 37 m 1
 34 37 l 1
 34 35 l 1
 36 35 l 1
 36 37 l 1
36 33 m 1
 34 33 l 1
 34 31 l 1
 36 31 l 1
 36 33 l 1
41 43 m 1
 39 43 l 1
 39 41 l 1
 41 41 l 1
 41 43 l 1
44 43 m 1
 42 43 l 1
 42 41 l 1
 43 41 l 1
 43 42 l 1
 44 42 l 1
 44 43 l 1
46 43 m 1
 45 43 l 1
 45 42 l 1
 44 42 l 1
 44 41 l 1
 46 41 l 1
 46 43 l 1
49 43 m 1
 47 43 l 1
 47 41 l 1
 49 41 l 1
 49 43 l 1
55 43 m 1
 53 43 l 1
 53 41 l 1
 55 41 l 1
 55 43 l 1
41 39 m 1
 39 39 l 1
 39 37 l 1
 41 37 l 1
 41 39 l 1
41 35 m 1
 39 35 l 1
 39 33 l 1
 41 33 l 1
 41 35 l 1
49 39 m 1
 47 39 l 1
 47 37 l 1
 49 37 l 1
 49 39 l 1
49 35 m 1
 47 35 l 1
 47 33 l 1
 49 33 l 1
 49 35 l 1
55 35 m 1
 53 35 l 1
 53 33 l 1
 55 33 l 1
 55 35 l 1
58 43 m 1
 56 43 l 1
 56 41 l 1
 57 41 l 1
 57 42 l 1
 58 42 l 1
 58 43 l 1
59 42 m 1
 58 42 l 1
 58 41 l 1
 60 41 l 1
 60 43 l 1
 59 43 l 1
 59 42 l 1
63 43 m 1
 61 43 l 1
 61 41 l 1
 63 41 l 1
 63 43 l 1
63 39 m 1
 61 39 l 1
 61 37 l 1
 63 37 l 1
 63 39 l 1
57 35 m 1
 56 35 l 1
 56 33 l 1
 58 33 l 1
 58 34 l 1
 57 34 l 1
 57 35 l 1
60 35 m 1
 58 35 l 1
 58 34 l 1
 59 34 l 1
 59 33 l 1
 60 33 l 1
 60 35 l 1
63 35 m 1
 61 35 l 1
 61 33 l 1
 63 33 l 1
 63 35 l 1
31 31 m 1
 29 31 l 1
 29 29 l 1
 31 29 l 1
 31 31 l 1
31 27 m 1
 29 27 l 1
 29 25 l 1
 31 25 l 1
 31 27 l 1
41 31 m 1
 39 31 l 1
 39 29 l 1
 41 29 l 1
 41 31 l 1
41 27 m 1
 39 27 l 1
 39 25 l 1
 41 25 l 1
 41 27 l 1
44 27 m 1
 42 27 l 1
 42 25 l 1
 43 25 l 1
 43 26 l 1
 44 26 l 1
 44 27 l 1
46 27 m 1
 45 27 l 1
 45 26 l 1
 44 26 l 1
 44 25 l 1
 46 25 l 1
 46 27 l 1
49 31 m 1
 47 31 l 1
 47 29 l 1
 49 29 l 1
 49 31 l 1
55 31 m 1
 53 31 l 1
 53 29 l 1
 55 29 l 1
 55 31 l 1
49 27 m 1
 47 27 l 1
 47 25 l 1
 49 25 l 1
 49 27 l 1
55 27 m 1
 53 27 l 1
 53 25 l 1
 55 25 l 1
 55 27 l 1
58 27 m 1
 56 27 l 1
 56 25 l 1
 57 25 l 1
 57 26 l 1
 58 26 l 1
 58 27 l 1
59 26 m 1
 58 26 l 1
 58 25 l 1
 60 25 l 1
 60 27 l 1
 59 27 l 1
 59 26 l 1
63 27 m 1
 61 27 l 1
 61 25 l 1
 63 25 l 1
 63 27 l 1
EndSplineSet
EndChar

StartChar: custom_0_2_0_1_5
Encoding: 20583 20583 615
Width: 70
Flags: H
LayerCount: 2
Fore
SplineSet
17 43 m 1
 15 43 l 1
 15 41 l 1
 17 41 l 1
 17 43 l 1
17 39 m 1
 15 39 l 1
 15 37 l 1
 17 37 l 1
 17 39 l 1
17 35 m 1
 15 35 l 1
 15 33 l 1
 17 33 l 1
 17 35 l 1
17 31 m 1
 15 31 l 1
 15 29 l 1
 17 29 l 1
 17 31 l 1
17 27 m 1
 15 27 l 1
 15 25 l 1
 17 25 l 1
 17 27 l 1
31 43 m 1
 29 43 l 1
 29 41 l 1
 31 41 l 1
 31 43 l 1
31 39 m 1
 29 39 l 1
 29 37 l 1
 31 37 l 1
 31 39 l 1
31 35 m 1
 29 35 l 1
 29 33 l 1
 31 33 l 1
 31 35 l 1
36 37 m 1
 34 37 l 1
 34 35 l 1
 36 35 l 1
 36 37 l 1
36 33 m 1
 34 33 l 1
 34 31 l 1
 36 31 l 1
 36 33 l 1
41 43 m 1
 39 43 l 1
 39 41 l 1
 41 41 l 1
 41 43 l 1
44 43 m 1
 42 43 l 1
 42 41 l 1
 43 41 l 1
 43 42 l 1
 44 42 l 1
 44 43 l 1
46 43 m 1
 45 43 l 1
 45 42 l 1
 44 42 l 1
 44 41 l 1
 46 41 l 1
 46 43 l 1
49 43 m 1
 47 43 l 1
 47 41 l 1
 49 41 l 1
 49 43 l 1
55 43 m 1
 53 43 l 1
 53 41 l 1
 55 41 l 1
 55 43 l 1
41 39 m 1
 39 39 l 1
 39 37 l 1
 41 37 l 1
 41 39 l 1
41 35 m 1
 39 35 l 1
 39 33 l 1
 41 33 l 1
 41 35 l 1
49 39 m 1
 47 39 l 1
 47 37 l 1
 49 37 l 1
 49 39 l 1
49 35 m 1
 47 35 l 1
 47 33 l 1
 49 33 l 1
 49 35 l 1
55 35 m 1
 53 35 l 1
 53 33 l 1
 55 33 l 1
 55 35 l 1
58 43 m 1
 56 43 l 1
 56 41 l 1
 57 41 l 1
 57 42 l 1
 58 42 l 1
 58 43 l 1
59 42 m 1
 58 42 l 1
 58 41 l 1
 60 41 l 1
 60 43 l 1
 59 43 l 1
 59 42 l 1
63 43 m 1
 61 43 l 1
 61 41 l 1
 63 41 l 1
 63 43 l 1
63 39 m 1
 61 39 l 1
 61 37 l 1
 63 37 l 1
 63 39 l 1
57 35 m 1
 56 35 l 1
 56 33 l 1
 58 33 l 1
 58 34 l 1
 57 34 l 1
 57 35 l 1
60 35 m 1
 58 35 l 1
 58 34 l 1
 59 34 l 1
 59 33 l 1
 60 33 l 1
 60 35 l 1
63 35 m 1
 61 35 l 1
 61 33 l 1
 63 33 l 1
 63 35 l 1
31 31 m 1
 29 31 l 1
 29 29 l 1
 31 29 l 1
 31 31 l 1
31 27 m 1
 29 27 l 1
 29 25 l 1
 31 25 l 1
 31 27 l 1
41 31 m 1
 39 31 l 1
 39 29 l 1
 41 29 l 1
 41 31 l 1
41 27 m 1
 39 27 l 1
 39 25 l 1
 41 25 l 1
 41 27 l 1
44 27 m 1
 42 27 l 1
 42 25 l 1
 43 25 l 1
 43 26 l 1
 44 26 l 1
 44 27 l 1
46 27 m 1
 45 27 l 1
 45 26 l 1
 44 26 l 1
 44 25 l 1
 46 25 l 1
 46 27 l 1
49 31 m 1
 47 31 l 1
 47 29 l 1
 49 29 l 1
 49 31 l 1
55 31 m 1
 53 31 l 1
 53 29 l 1
 55 29 l 1
 55 31 l 1
49 27 m 1
 47 27 l 1
 47 25 l 1
 49 25 l 1
 49 27 l 1
55 27 m 1
 53 27 l 1
 53 25 l 1
 55 25 l 1
 55 27 l 1
58 27 m 1
 56 27 l 1
 56 25 l 1
 57 25 l 1
 57 26 l 1
 58 26 l 1
 58 27 l 1
59 26 m 1
 58 26 l 1
 58 25 l 1
 60 25 l 1
 60 27 l 1
 59 27 l 1
 59 26 l 1
63 27 m 1
 61 27 l 1
 61 25 l 1
 63 25 l 1
 63 27 l 1
EndSplineSet
EndChar

StartChar: custom_0_2_0_1_6
Encoding: 20584 20584 616
Width: 70
Flags: H
LayerCount: 2
Fore
SplineSet
17 43 m 1
 15 43 l 1
 15 41 l 1
 17 41 l 1
 17 43 l 1
17 39 m 1
 15 39 l 1
 15 37 l 1
 17 37 l 1
 17 39 l 1
17 35 m 1
 15 35 l 1
 15 33 l 1
 17 33 l 1
 17 35 l 1
17 31 m 1
 15 31 l 1
 15 29 l 1
 17 29 l 1
 17 31 l 1
17 27 m 1
 15 27 l 1
 15 25 l 1
 17 25 l 1
 17 27 l 1
31 43 m 1
 29 43 l 1
 29 41 l 1
 31 41 l 1
 31 43 l 1
31 39 m 1
 29 39 l 1
 29 37 l 1
 31 37 l 1
 31 39 l 1
31 35 m 1
 29 35 l 1
 29 33 l 1
 31 33 l 1
 31 35 l 1
36 37 m 1
 34 37 l 1
 34 35 l 1
 36 35 l 1
 36 37 l 1
36 33 m 1
 34 33 l 1
 34 31 l 1
 36 31 l 1
 36 33 l 1
41 43 m 1
 39 43 l 1
 39 41 l 1
 41 41 l 1
 41 43 l 1
44 43 m 1
 42 43 l 1
 42 41 l 1
 43 41 l 1
 43 42 l 1
 44 42 l 1
 44 43 l 1
46 43 m 1
 45 43 l 1
 45 42 l 1
 44 42 l 1
 44 41 l 1
 46 41 l 1
 46 43 l 1
49 43 m 1
 47 43 l 1
 47 41 l 1
 49 41 l 1
 49 43 l 1
55 43 m 1
 53 43 l 1
 53 41 l 1
 55 41 l 1
 55 43 l 1
41 39 m 1
 39 39 l 1
 39 37 l 1
 41 37 l 1
 41 39 l 1
41 35 m 1
 39 35 l 1
 39 33 l 1
 41 33 l 1
 41 35 l 1
49 39 m 1
 47 39 l 1
 47 37 l 1
 49 37 l 1
 49 39 l 1
49 35 m 1
 47 35 l 1
 47 33 l 1
 49 33 l 1
 49 35 l 1
55 35 m 1
 53 35 l 1
 53 33 l 1
 55 33 l 1
 55 35 l 1
58 43 m 1
 56 43 l 1
 56 41 l 1
 57 41 l 1
 57 42 l 1
 58 42 l 1
 58 43 l 1
59 42 m 1
 58 42 l 1
 58 41 l 1
 60 41 l 1
 60 43 l 1
 59 43 l 1
 59 42 l 1
63 43 m 1
 61 43 l 1
 61 41 l 1
 63 41 l 1
 63 43 l 1
63 39 m 1
 61 39 l 1
 61 37 l 1
 63 37 l 1
 63 39 l 1
57 35 m 1
 56 35 l 1
 56 33 l 1
 58 33 l 1
 58 34 l 1
 57 34 l 1
 57 35 l 1
60 35 m 1
 58 35 l 1
 58 34 l 1
 59 34 l 1
 59 33 l 1
 60 33 l 1
 60 35 l 1
63 35 m 1
 61 35 l 1
 61 33 l 1
 63 33 l 1
 63 35 l 1
31 31 m 1
 29 31 l 1
 29 29 l 1
 31 29 l 1
 31 31 l 1
31 27 m 1
 29 27 l 1
 29 25 l 1
 31 25 l 1
 31 27 l 1
41 31 m 1
 39 31 l 1
 39 29 l 1
 41 29 l 1
 41 31 l 1
41 27 m 1
 39 27 l 1
 39 25 l 1
 41 25 l 1
 41 27 l 1
44 27 m 1
 42 27 l 1
 42 25 l 1
 43 25 l 1
 43 26 l 1
 44 26 l 1
 44 27 l 1
46 27 m 1
 45 27 l 1
 45 26 l 1
 44 26 l 1
 44 25 l 1
 46 25 l 1
 46 27 l 1
49 31 m 1
 47 31 l 1
 47 29 l 1
 49 29 l 1
 49 31 l 1
55 31 m 1
 53 31 l 1
 53 29 l 1
 55 29 l 1
 55 31 l 1
49 27 m 1
 47 27 l 1
 47 25 l 1
 49 25 l 1
 49 27 l 1
55 27 m 1
 53 27 l 1
 53 25 l 1
 55 25 l 1
 55 27 l 1
58 27 m 1
 56 27 l 1
 56 25 l 1
 57 25 l 1
 57 26 l 1
 58 26 l 1
 58 27 l 1
59 26 m 1
 58 26 l 1
 58 25 l 1
 60 25 l 1
 60 27 l 1
 59 27 l 1
 59 26 l 1
63 27 m 1
 61 27 l 1
 61 25 l 1
 63 25 l 1
 63 27 l 1
EndSplineSet
EndChar

StartChar: custom_0_2_0_1_7
Encoding: 20585 20585 617
Width: 70
Flags: H
LayerCount: 2
Fore
SplineSet
17 43 m 1
 15 43 l 1
 15 41 l 1
 17 41 l 1
 17 43 l 1
17 39 m 1
 15 39 l 1
 15 37 l 1
 17 37 l 1
 17 39 l 1
17 35 m 1
 15 35 l 1
 15 33 l 1
 17 33 l 1
 17 35 l 1
17 31 m 1
 15 31 l 1
 15 29 l 1
 17 29 l 1
 17 31 l 1
17 27 m 1
 15 27 l 1
 15 25 l 1
 17 25 l 1
 17 27 l 1
31 43 m 1
 29 43 l 1
 29 41 l 1
 31 41 l 1
 31 43 l 1
31 39 m 1
 29 39 l 1
 29 37 l 1
 31 37 l 1
 31 39 l 1
31 35 m 1
 29 35 l 1
 29 33 l 1
 31 33 l 1
 31 35 l 1
36 37 m 1
 34 37 l 1
 34 35 l 1
 36 35 l 1
 36 37 l 1
36 33 m 1
 34 33 l 1
 34 31 l 1
 36 31 l 1
 36 33 l 1
41 43 m 1
 39 43 l 1
 39 41 l 1
 41 41 l 1
 41 43 l 1
44 43 m 1
 42 43 l 1
 42 41 l 1
 43 41 l 1
 43 42 l 1
 44 42 l 1
 44 43 l 1
46 43 m 1
 45 43 l 1
 45 42 l 1
 44 42 l 1
 44 41 l 1
 46 41 l 1
 46 43 l 1
49 43 m 1
 47 43 l 1
 47 41 l 1
 49 41 l 1
 49 43 l 1
55 43 m 1
 53 43 l 1
 53 41 l 1
 55 41 l 1
 55 43 l 1
41 39 m 1
 39 39 l 1
 39 37 l 1
 41 37 l 1
 41 39 l 1
41 35 m 1
 39 35 l 1
 39 33 l 1
 41 33 l 1
 41 35 l 1
49 39 m 1
 47 39 l 1
 47 37 l 1
 49 37 l 1
 49 39 l 1
49 35 m 1
 47 35 l 1
 47 33 l 1
 49 33 l 1
 49 35 l 1
55 35 m 1
 53 35 l 1
 53 33 l 1
 55 33 l 1
 55 35 l 1
58 43 m 1
 56 43 l 1
 56 41 l 1
 57 41 l 1
 57 42 l 1
 58 42 l 1
 58 43 l 1
59 42 m 1
 58 42 l 1
 58 41 l 1
 60 41 l 1
 60 43 l 1
 59 43 l 1
 59 42 l 1
63 43 m 1
 61 43 l 1
 61 41 l 1
 63 41 l 1
 63 43 l 1
63 39 m 1
 61 39 l 1
 61 37 l 1
 63 37 l 1
 63 39 l 1
57 35 m 1
 56 35 l 1
 56 33 l 1
 58 33 l 1
 58 34 l 1
 57 34 l 1
 57 35 l 1
60 35 m 1
 58 35 l 1
 58 34 l 1
 59 34 l 1
 59 33 l 1
 60 33 l 1
 60 35 l 1
63 35 m 1
 61 35 l 1
 61 33 l 1
 63 33 l 1
 63 35 l 1
31 31 m 1
 29 31 l 1
 29 29 l 1
 31 29 l 1
 31 31 l 1
31 27 m 1
 29 27 l 1
 29 25 l 1
 31 25 l 1
 31 27 l 1
41 31 m 1
 39 31 l 1
 39 29 l 1
 41 29 l 1
 41 31 l 1
41 27 m 1
 39 27 l 1
 39 25 l 1
 41 25 l 1
 41 27 l 1
44 27 m 1
 42 27 l 1
 42 25 l 1
 43 25 l 1
 43 26 l 1
 44 26 l 1
 44 27 l 1
46 27 m 1
 45 27 l 1
 45 26 l 1
 44 26 l 1
 44 25 l 1
 46 25 l 1
 46 27 l 1
49 31 m 1
 47 31 l 1
 47 29 l 1
 49 29 l 1
 49 31 l 1
55 31 m 1
 53 31 l 1
 53 29 l 1
 55 29 l 1
 55 31 l 1
49 27 m 1
 47 27 l 1
 47 25 l 1
 49 25 l 1
 49 27 l 1
55 27 m 1
 53 27 l 1
 53 25 l 1
 55 25 l 1
 55 27 l 1
58 27 m 1
 56 27 l 1
 56 25 l 1
 57 25 l 1
 57 26 l 1
 58 26 l 1
 58 27 l 1
59 26 m 1
 58 26 l 1
 58 25 l 1
 60 25 l 1
 60 27 l 1
 59 27 l 1
 59 26 l 1
63 27 m 1
 61 27 l 1
 61 25 l 1
 63 25 l 1
 63 27 l 1
EndSplineSet
EndChar

StartChar: custom_0_2_0_1_8
Encoding: 20586 20586 618
Width: 70
Flags: H
LayerCount: 2
Fore
SplineSet
17 43 m 1
 15 43 l 1
 15 41 l 1
 17 41 l 1
 17 43 l 1
17 39 m 1
 15 39 l 1
 15 37 l 1
 17 37 l 1
 17 39 l 1
17 35 m 1
 15 35 l 1
 15 33 l 1
 17 33 l 1
 17 35 l 1
17 31 m 1
 15 31 l 1
 15 29 l 1
 17 29 l 1
 17 31 l 1
17 27 m 1
 15 27 l 1
 15 25 l 1
 17 25 l 1
 17 27 l 1
31 43 m 1
 29 43 l 1
 29 41 l 1
 31 41 l 1
 31 43 l 1
31 39 m 1
 29 39 l 1
 29 37 l 1
 31 37 l 1
 31 39 l 1
31 35 m 1
 29 35 l 1
 29 33 l 1
 31 33 l 1
 31 35 l 1
36 37 m 1
 34 37 l 1
 34 35 l 1
 36 35 l 1
 36 37 l 1
36 33 m 1
 34 33 l 1
 34 31 l 1
 36 31 l 1
 36 33 l 1
41 43 m 1
 39 43 l 1
 39 41 l 1
 41 41 l 1
 41 43 l 1
44 43 m 1
 42 43 l 1
 42 41 l 1
 43 41 l 1
 43 42 l 1
 44 42 l 1
 44 43 l 1
46 43 m 1
 45 43 l 1
 45 42 l 1
 44 42 l 1
 44 41 l 1
 46 41 l 1
 46 43 l 1
49 43 m 1
 47 43 l 1
 47 41 l 1
 49 41 l 1
 49 43 l 1
55 43 m 1
 53 43 l 1
 53 41 l 1
 55 41 l 1
 55 43 l 1
41 39 m 1
 39 39 l 1
 39 37 l 1
 41 37 l 1
 41 39 l 1
41 35 m 1
 39 35 l 1
 39 33 l 1
 41 33 l 1
 41 35 l 1
49 39 m 1
 47 39 l 1
 47 37 l 1
 49 37 l 1
 49 39 l 1
49 35 m 1
 47 35 l 1
 47 33 l 1
 49 33 l 1
 49 35 l 1
55 35 m 1
 53 35 l 1
 53 33 l 1
 55 33 l 1
 55 35 l 1
58 43 m 1
 56 43 l 1
 56 41 l 1
 57 41 l 1
 57 42 l 1
 58 42 l 1
 58 43 l 1
59 42 m 1
 58 42 l 1
 58 41 l 1
 60 41 l 1
 60 43 l 1
 59 43 l 1
 59 42 l 1
63 43 m 1
 61 43 l 1
 61 41 l 1
 63 41 l 1
 63 43 l 1
63 39 m 1
 61 39 l 1
 61 37 l 1
 63 37 l 1
 63 39 l 1
57 35 m 1
 56 35 l 1
 56 33 l 1
 58 33 l 1
 58 34 l 1
 57 34 l 1
 57 35 l 1
60 35 m 1
 58 35 l 1
 58 34 l 1
 59 34 l 1
 59 33 l 1
 60 33 l 1
 60 35 l 1
63 35 m 1
 61 35 l 1
 61 33 l 1
 63 33 l 1
 63 35 l 1
31 31 m 1
 29 31 l 1
 29 29 l 1
 31 29 l 1
 31 31 l 1
31 27 m 1
 29 27 l 1
 29 25 l 1
 31 25 l 1
 31 27 l 1
41 31 m 1
 39 31 l 1
 39 29 l 1
 41 29 l 1
 41 31 l 1
41 27 m 1
 39 27 l 1
 39 25 l 1
 41 25 l 1
 41 27 l 1
44 27 m 1
 42 27 l 1
 42 25 l 1
 43 25 l 1
 43 26 l 1
 44 26 l 1
 44 27 l 1
46 27 m 1
 45 27 l 1
 45 26 l 1
 44 26 l 1
 44 25 l 1
 46 25 l 1
 46 27 l 1
49 31 m 1
 47 31 l 1
 47 29 l 1
 49 29 l 1
 49 31 l 1
55 31 m 1
 53 31 l 1
 53 29 l 1
 55 29 l 1
 55 31 l 1
49 27 m 1
 47 27 l 1
 47 25 l 1
 49 25 l 1
 49 27 l 1
55 27 m 1
 53 27 l 1
 53 25 l 1
 55 25 l 1
 55 27 l 1
58 27 m 1
 56 27 l 1
 56 25 l 1
 57 25 l 1
 57 26 l 1
 58 26 l 1
 58 27 l 1
59 26 m 1
 58 26 l 1
 58 25 l 1
 60 25 l 1
 60 27 l 1
 59 27 l 1
 59 26 l 1
63 27 m 1
 61 27 l 1
 61 25 l 1
 63 25 l 1
 63 27 l 1
EndSplineSet
EndChar

StartChar: custom_0_2_0_1_9
Encoding: 20587 20587 619
Width: 70
Flags: H
LayerCount: 2
Fore
SplineSet
17 43 m 1
 15 43 l 1
 15 41 l 1
 17 41 l 1
 17 43 l 1
17 39 m 1
 15 39 l 1
 15 37 l 1
 17 37 l 1
 17 39 l 1
17 35 m 1
 15 35 l 1
 15 33 l 1
 17 33 l 1
 17 35 l 1
17 31 m 1
 15 31 l 1
 15 29 l 1
 17 29 l 1
 17 31 l 1
17 27 m 1
 15 27 l 1
 15 25 l 1
 17 25 l 1
 17 27 l 1
31 43 m 1
 29 43 l 1
 29 41 l 1
 31 41 l 1
 31 43 l 1
31 39 m 1
 29 39 l 1
 29 37 l 1
 31 37 l 1
 31 39 l 1
31 35 m 1
 29 35 l 1
 29 33 l 1
 31 33 l 1
 31 35 l 1
36 37 m 1
 34 37 l 1
 34 35 l 1
 36 35 l 1
 36 37 l 1
36 33 m 1
 34 33 l 1
 34 31 l 1
 36 31 l 1
 36 33 l 1
41 43 m 1
 39 43 l 1
 39 41 l 1
 41 41 l 1
 41 43 l 1
44 43 m 1
 42 43 l 1
 42 41 l 1
 43 41 l 1
 43 42 l 1
 44 42 l 1
 44 43 l 1
46 43 m 1
 45 43 l 1
 45 42 l 1
 44 42 l 1
 44 41 l 1
 46 41 l 1
 46 43 l 1
49 43 m 1
 47 43 l 1
 47 41 l 1
 49 41 l 1
 49 43 l 1
55 43 m 1
 53 43 l 1
 53 41 l 1
 55 41 l 1
 55 43 l 1
41 39 m 1
 39 39 l 1
 39 37 l 1
 41 37 l 1
 41 39 l 1
41 35 m 1
 39 35 l 1
 39 33 l 1
 41 33 l 1
 41 35 l 1
49 39 m 1
 47 39 l 1
 47 37 l 1
 49 37 l 1
 49 39 l 1
49 35 m 1
 47 35 l 1
 47 33 l 1
 49 33 l 1
 49 35 l 1
55 35 m 1
 53 35 l 1
 53 33 l 1
 55 33 l 1
 55 35 l 1
58 43 m 1
 56 43 l 1
 56 41 l 1
 57 41 l 1
 57 42 l 1
 58 42 l 1
 58 43 l 1
59 42 m 1
 58 42 l 1
 58 41 l 1
 60 41 l 1
 60 43 l 1
 59 43 l 1
 59 42 l 1
63 43 m 1
 61 43 l 1
 61 41 l 1
 63 41 l 1
 63 43 l 1
63 39 m 1
 61 39 l 1
 61 37 l 1
 63 37 l 1
 63 39 l 1
57 35 m 1
 56 35 l 1
 56 33 l 1
 58 33 l 1
 58 34 l 1
 57 34 l 1
 57 35 l 1
60 35 m 1
 58 35 l 1
 58 34 l 1
 59 34 l 1
 59 33 l 1
 60 33 l 1
 60 35 l 1
63 35 m 1
 61 35 l 1
 61 33 l 1
 63 33 l 1
 63 35 l 1
31 31 m 1
 29 31 l 1
 29 29 l 1
 31 29 l 1
 31 31 l 1
31 27 m 1
 29 27 l 1
 29 25 l 1
 31 25 l 1
 31 27 l 1
41 31 m 1
 39 31 l 1
 39 29 l 1
 41 29 l 1
 41 31 l 1
41 27 m 1
 39 27 l 1
 39 25 l 1
 41 25 l 1
 41 27 l 1
44 27 m 1
 42 27 l 1
 42 25 l 1
 43 25 l 1
 43 26 l 1
 44 26 l 1
 44 27 l 1
46 27 m 1
 45 27 l 1
 45 26 l 1
 44 26 l 1
 44 25 l 1
 46 25 l 1
 46 27 l 1
49 31 m 1
 47 31 l 1
 47 29 l 1
 49 29 l 1
 49 31 l 1
55 31 m 1
 53 31 l 1
 53 29 l 1
 55 29 l 1
 55 31 l 1
49 27 m 1
 47 27 l 1
 47 25 l 1
 49 25 l 1
 49 27 l 1
55 27 m 1
 53 27 l 1
 53 25 l 1
 55 25 l 1
 55 27 l 1
58 27 m 1
 56 27 l 1
 56 25 l 1
 57 25 l 1
 57 26 l 1
 58 26 l 1
 58 27 l 1
59 26 m 1
 58 26 l 1
 58 25 l 1
 60 25 l 1
 60 27 l 1
 59 27 l 1
 59 26 l 1
63 27 m 1
 61 27 l 1
 61 25 l 1
 63 25 l 1
 63 27 l 1
EndSplineSet
EndChar

StartChar: custom_0_2_0_2_0
Encoding: 20588 20588 620
Width: 70
Flags: H
LayerCount: 2
Fore
SplineSet
17 43 m 1
 15 43 l 1
 15 41 l 1
 17 41 l 1
 17 43 l 1
17 39 m 1
 15 39 l 1
 15 37 l 1
 17 37 l 1
 17 39 l 1
17 35 m 1
 15 35 l 1
 15 33 l 1
 17 33 l 1
 17 35 l 1
17 31 m 1
 15 31 l 1
 15 29 l 1
 17 29 l 1
 17 31 l 1
17 27 m 1
 15 27 l 1
 15 25 l 1
 17 25 l 1
 17 27 l 1
31 43 m 1
 29 43 l 1
 29 41 l 1
 31 41 l 1
 31 43 l 1
31 39 m 1
 29 39 l 1
 29 37 l 1
 31 37 l 1
 31 39 l 1
31 35 m 1
 29 35 l 1
 29 33 l 1
 31 33 l 1
 31 35 l 1
36 37 m 1
 34 37 l 1
 34 35 l 1
 36 35 l 1
 36 37 l 1
36 33 m 1
 34 33 l 1
 34 31 l 1
 36 31 l 1
 36 33 l 1
41 43 m 1
 39 43 l 1
 39 41 l 1
 41 41 l 1
 41 43 l 1
44 43 m 1
 42 43 l 1
 42 41 l 1
 43 41 l 1
 43 42 l 1
 44 42 l 1
 44 43 l 1
46 43 m 1
 45 43 l 1
 45 42 l 1
 44 42 l 1
 44 41 l 1
 46 41 l 1
 46 43 l 1
49 43 m 1
 47 43 l 1
 47 41 l 1
 49 41 l 1
 49 43 l 1
55 43 m 1
 53 43 l 1
 53 41 l 1
 55 41 l 1
 55 43 l 1
41 39 m 1
 39 39 l 1
 39 37 l 1
 41 37 l 1
 41 39 l 1
41 35 m 1
 39 35 l 1
 39 33 l 1
 41 33 l 1
 41 35 l 1
49 39 m 1
 47 39 l 1
 47 37 l 1
 49 37 l 1
 49 39 l 1
49 35 m 1
 47 35 l 1
 47 33 l 1
 49 33 l 1
 49 35 l 1
55 35 m 1
 53 35 l 1
 53 33 l 1
 55 33 l 1
 55 35 l 1
58 43 m 1
 56 43 l 1
 56 41 l 1
 57 41 l 1
 57 42 l 1
 58 42 l 1
 58 43 l 1
59 42 m 1
 58 42 l 1
 58 41 l 1
 60 41 l 1
 60 43 l 1
 59 43 l 1
 59 42 l 1
63 43 m 1
 61 43 l 1
 61 41 l 1
 63 41 l 1
 63 43 l 1
63 39 m 1
 61 39 l 1
 61 37 l 1
 63 37 l 1
 63 39 l 1
57 35 m 1
 56 35 l 1
 56 33 l 1
 58 33 l 1
 58 34 l 1
 57 34 l 1
 57 35 l 1
60 35 m 1
 58 35 l 1
 58 34 l 1
 59 34 l 1
 59 33 l 1
 60 33 l 1
 60 35 l 1
63 35 m 1
 61 35 l 1
 61 33 l 1
 63 33 l 1
 63 35 l 1
31 31 m 1
 29 31 l 1
 29 29 l 1
 31 29 l 1
 31 31 l 1
31 27 m 1
 29 27 l 1
 29 25 l 1
 31 25 l 1
 31 27 l 1
41 31 m 1
 39 31 l 1
 39 29 l 1
 41 29 l 1
 41 31 l 1
41 27 m 1
 39 27 l 1
 39 25 l 1
 41 25 l 1
 41 27 l 1
44 27 m 1
 42 27 l 1
 42 25 l 1
 43 25 l 1
 43 26 l 1
 44 26 l 1
 44 27 l 1
46 27 m 1
 45 27 l 1
 45 26 l 1
 44 26 l 1
 44 25 l 1
 46 25 l 1
 46 27 l 1
49 31 m 1
 47 31 l 1
 47 29 l 1
 49 29 l 1
 49 31 l 1
55 31 m 1
 53 31 l 1
 53 29 l 1
 55 29 l 1
 55 31 l 1
49 27 m 1
 47 27 l 1
 47 25 l 1
 49 25 l 1
 49 27 l 1
55 27 m 1
 53 27 l 1
 53 25 l 1
 55 25 l 1
 55 27 l 1
58 27 m 1
 56 27 l 1
 56 25 l 1
 57 25 l 1
 57 26 l 1
 58 26 l 1
 58 27 l 1
59 26 m 1
 58 26 l 1
 58 25 l 1
 60 25 l 1
 60 27 l 1
 59 27 l 1
 59 26 l 1
63 27 m 1
 61 27 l 1
 61 25 l 1
 63 25 l 1
 63 27 l 1
EndSplineSet
EndChar

StartChar: custom_0_2_0_2_1
Encoding: 20589 20589 621
Width: 70
Flags: H
LayerCount: 2
Fore
SplineSet
17 43 m 1
 15 43 l 1
 15 41 l 1
 17 41 l 1
 17 43 l 1
17 39 m 1
 15 39 l 1
 15 37 l 1
 17 37 l 1
 17 39 l 1
17 35 m 1
 15 35 l 1
 15 33 l 1
 17 33 l 1
 17 35 l 1
17 31 m 1
 15 31 l 1
 15 29 l 1
 17 29 l 1
 17 31 l 1
17 27 m 1
 15 27 l 1
 15 25 l 1
 17 25 l 1
 17 27 l 1
31 43 m 1
 29 43 l 1
 29 41 l 1
 31 41 l 1
 31 43 l 1
31 39 m 1
 29 39 l 1
 29 37 l 1
 31 37 l 1
 31 39 l 1
31 35 m 1
 29 35 l 1
 29 33 l 1
 31 33 l 1
 31 35 l 1
36 37 m 1
 34 37 l 1
 34 35 l 1
 36 35 l 1
 36 37 l 1
36 33 m 1
 34 33 l 1
 34 31 l 1
 36 31 l 1
 36 33 l 1
41 43 m 1
 39 43 l 1
 39 41 l 1
 41 41 l 1
 41 43 l 1
44 43 m 1
 42 43 l 1
 42 41 l 1
 43 41 l 1
 43 42 l 1
 44 42 l 1
 44 43 l 1
46 43 m 1
 45 43 l 1
 45 42 l 1
 44 42 l 1
 44 41 l 1
 46 41 l 1
 46 43 l 1
49 43 m 1
 47 43 l 1
 47 41 l 1
 49 41 l 1
 49 43 l 1
55 43 m 1
 53 43 l 1
 53 41 l 1
 55 41 l 1
 55 43 l 1
41 39 m 1
 39 39 l 1
 39 37 l 1
 41 37 l 1
 41 39 l 1
41 35 m 1
 39 35 l 1
 39 33 l 1
 41 33 l 1
 41 35 l 1
49 39 m 1
 47 39 l 1
 47 37 l 1
 49 37 l 1
 49 39 l 1
49 35 m 1
 47 35 l 1
 47 33 l 1
 49 33 l 1
 49 35 l 1
55 35 m 1
 53 35 l 1
 53 33 l 1
 55 33 l 1
 55 35 l 1
58 43 m 1
 56 43 l 1
 56 41 l 1
 57 41 l 1
 57 42 l 1
 58 42 l 1
 58 43 l 1
59 42 m 1
 58 42 l 1
 58 41 l 1
 60 41 l 1
 60 43 l 1
 59 43 l 1
 59 42 l 1
63 43 m 1
 61 43 l 1
 61 41 l 1
 63 41 l 1
 63 43 l 1
63 39 m 1
 61 39 l 1
 61 37 l 1
 63 37 l 1
 63 39 l 1
57 35 m 1
 56 35 l 1
 56 33 l 1
 58 33 l 1
 58 34 l 1
 57 34 l 1
 57 35 l 1
60 35 m 1
 58 35 l 1
 58 34 l 1
 59 34 l 1
 59 33 l 1
 60 33 l 1
 60 35 l 1
63 35 m 1
 61 35 l 1
 61 33 l 1
 63 33 l 1
 63 35 l 1
31 31 m 1
 29 31 l 1
 29 29 l 1
 31 29 l 1
 31 31 l 1
31 27 m 1
 29 27 l 1
 29 25 l 1
 31 25 l 1
 31 27 l 1
41 31 m 1
 39 31 l 1
 39 29 l 1
 41 29 l 1
 41 31 l 1
41 27 m 1
 39 27 l 1
 39 25 l 1
 41 25 l 1
 41 27 l 1
44 27 m 1
 42 27 l 1
 42 25 l 1
 43 25 l 1
 43 26 l 1
 44 26 l 1
 44 27 l 1
46 27 m 1
 45 27 l 1
 45 26 l 1
 44 26 l 1
 44 25 l 1
 46 25 l 1
 46 27 l 1
49 31 m 1
 47 31 l 1
 47 29 l 1
 49 29 l 1
 49 31 l 1
55 31 m 1
 53 31 l 1
 53 29 l 1
 55 29 l 1
 55 31 l 1
49 27 m 1
 47 27 l 1
 47 25 l 1
 49 25 l 1
 49 27 l 1
55 27 m 1
 53 27 l 1
 53 25 l 1
 55 25 l 1
 55 27 l 1
58 27 m 1
 56 27 l 1
 56 25 l 1
 57 25 l 1
 57 26 l 1
 58 26 l 1
 58 27 l 1
59 26 m 1
 58 26 l 1
 58 25 l 1
 60 25 l 1
 60 27 l 1
 59 27 l 1
 59 26 l 1
63 27 m 1
 61 27 l 1
 61 25 l 1
 63 25 l 1
 63 27 l 1
EndSplineSet
EndChar

StartChar: custom_0_2_0_2_2
Encoding: 20590 20590 622
Width: 70
Flags: H
LayerCount: 2
Fore
SplineSet
17 43 m 1
 15 43 l 1
 15 41 l 1
 17 41 l 1
 17 43 l 1
17 39 m 1
 15 39 l 1
 15 37 l 1
 17 37 l 1
 17 39 l 1
17 35 m 1
 15 35 l 1
 15 33 l 1
 17 33 l 1
 17 35 l 1
17 31 m 1
 15 31 l 1
 15 29 l 1
 17 29 l 1
 17 31 l 1
17 27 m 1
 15 27 l 1
 15 25 l 1
 17 25 l 1
 17 27 l 1
31 43 m 1
 29 43 l 1
 29 41 l 1
 31 41 l 1
 31 43 l 1
31 39 m 1
 29 39 l 1
 29 37 l 1
 31 37 l 1
 31 39 l 1
31 35 m 1
 29 35 l 1
 29 33 l 1
 31 33 l 1
 31 35 l 1
36 37 m 1
 34 37 l 1
 34 35 l 1
 36 35 l 1
 36 37 l 1
36 33 m 1
 34 33 l 1
 34 31 l 1
 36 31 l 1
 36 33 l 1
41 43 m 1
 39 43 l 1
 39 41 l 1
 41 41 l 1
 41 43 l 1
44 43 m 1
 42 43 l 1
 42 41 l 1
 43 41 l 1
 43 42 l 1
 44 42 l 1
 44 43 l 1
46 43 m 1
 45 43 l 1
 45 42 l 1
 44 42 l 1
 44 41 l 1
 46 41 l 1
 46 43 l 1
49 43 m 1
 47 43 l 1
 47 41 l 1
 49 41 l 1
 49 43 l 1
55 43 m 1
 53 43 l 1
 53 41 l 1
 55 41 l 1
 55 43 l 1
41 39 m 1
 39 39 l 1
 39 37 l 1
 41 37 l 1
 41 39 l 1
41 35 m 1
 39 35 l 1
 39 33 l 1
 41 33 l 1
 41 35 l 1
49 39 m 1
 47 39 l 1
 47 37 l 1
 49 37 l 1
 49 39 l 1
49 35 m 1
 47 35 l 1
 47 33 l 1
 49 33 l 1
 49 35 l 1
55 35 m 1
 53 35 l 1
 53 33 l 1
 55 33 l 1
 55 35 l 1
58 43 m 1
 56 43 l 1
 56 41 l 1
 57 41 l 1
 57 42 l 1
 58 42 l 1
 58 43 l 1
59 42 m 1
 58 42 l 1
 58 41 l 1
 60 41 l 1
 60 43 l 1
 59 43 l 1
 59 42 l 1
63 43 m 1
 61 43 l 1
 61 41 l 1
 63 41 l 1
 63 43 l 1
63 39 m 1
 61 39 l 1
 61 37 l 1
 63 37 l 1
 63 39 l 1
57 35 m 1
 56 35 l 1
 56 33 l 1
 58 33 l 1
 58 34 l 1
 57 34 l 1
 57 35 l 1
60 35 m 1
 58 35 l 1
 58 34 l 1
 59 34 l 1
 59 33 l 1
 60 33 l 1
 60 35 l 1
63 35 m 1
 61 35 l 1
 61 33 l 1
 63 33 l 1
 63 35 l 1
31 31 m 1
 29 31 l 1
 29 29 l 1
 31 29 l 1
 31 31 l 1
31 27 m 1
 29 27 l 1
 29 25 l 1
 31 25 l 1
 31 27 l 1
41 31 m 1
 39 31 l 1
 39 29 l 1
 41 29 l 1
 41 31 l 1
41 27 m 1
 39 27 l 1
 39 25 l 1
 41 25 l 1
 41 27 l 1
44 27 m 1
 42 27 l 1
 42 25 l 1
 43 25 l 1
 43 26 l 1
 44 26 l 1
 44 27 l 1
46 27 m 1
 45 27 l 1
 45 26 l 1
 44 26 l 1
 44 25 l 1
 46 25 l 1
 46 27 l 1
49 31 m 1
 47 31 l 1
 47 29 l 1
 49 29 l 1
 49 31 l 1
55 31 m 1
 53 31 l 1
 53 29 l 1
 55 29 l 1
 55 31 l 1
49 27 m 1
 47 27 l 1
 47 25 l 1
 49 25 l 1
 49 27 l 1
55 27 m 1
 53 27 l 1
 53 25 l 1
 55 25 l 1
 55 27 l 1
58 27 m 1
 56 27 l 1
 56 25 l 1
 57 25 l 1
 57 26 l 1
 58 26 l 1
 58 27 l 1
59 26 m 1
 58 26 l 1
 58 25 l 1
 60 25 l 1
 60 27 l 1
 59 27 l 1
 59 26 l 1
63 27 m 1
 61 27 l 1
 61 25 l 1
 63 25 l 1
 63 27 l 1
EndSplineSet
EndChar

StartChar: custom_0_2_0_2_3
Encoding: 20591 20591 623
Width: 70
Flags: H
LayerCount: 2
Fore
SplineSet
17 43 m 1
 15 43 l 1
 15 41 l 1
 17 41 l 1
 17 43 l 1
17 39 m 1
 15 39 l 1
 15 37 l 1
 17 37 l 1
 17 39 l 1
17 35 m 1
 15 35 l 1
 15 33 l 1
 17 33 l 1
 17 35 l 1
17 31 m 1
 15 31 l 1
 15 29 l 1
 17 29 l 1
 17 31 l 1
17 27 m 1
 15 27 l 1
 15 25 l 1
 17 25 l 1
 17 27 l 1
31 43 m 1
 29 43 l 1
 29 41 l 1
 31 41 l 1
 31 43 l 1
31 39 m 1
 29 39 l 1
 29 37 l 1
 31 37 l 1
 31 39 l 1
31 35 m 1
 29 35 l 1
 29 33 l 1
 31 33 l 1
 31 35 l 1
36 37 m 1
 34 37 l 1
 34 35 l 1
 36 35 l 1
 36 37 l 1
36 33 m 1
 34 33 l 1
 34 31 l 1
 36 31 l 1
 36 33 l 1
41 43 m 1
 39 43 l 1
 39 41 l 1
 41 41 l 1
 41 43 l 1
44 43 m 1
 42 43 l 1
 42 41 l 1
 43 41 l 1
 43 42 l 1
 44 42 l 1
 44 43 l 1
46 43 m 1
 45 43 l 1
 45 42 l 1
 44 42 l 1
 44 41 l 1
 46 41 l 1
 46 43 l 1
49 43 m 1
 47 43 l 1
 47 41 l 1
 49 41 l 1
 49 43 l 1
55 43 m 1
 53 43 l 1
 53 41 l 1
 55 41 l 1
 55 43 l 1
41 39 m 1
 39 39 l 1
 39 37 l 1
 41 37 l 1
 41 39 l 1
41 35 m 1
 39 35 l 1
 39 33 l 1
 41 33 l 1
 41 35 l 1
49 39 m 1
 47 39 l 1
 47 37 l 1
 49 37 l 1
 49 39 l 1
49 35 m 1
 47 35 l 1
 47 33 l 1
 49 33 l 1
 49 35 l 1
55 35 m 1
 53 35 l 1
 53 33 l 1
 55 33 l 1
 55 35 l 1
58 43 m 1
 56 43 l 1
 56 41 l 1
 57 41 l 1
 57 42 l 1
 58 42 l 1
 58 43 l 1
59 42 m 1
 58 42 l 1
 58 41 l 1
 60 41 l 1
 60 43 l 1
 59 43 l 1
 59 42 l 1
63 43 m 1
 61 43 l 1
 61 41 l 1
 63 41 l 1
 63 43 l 1
63 39 m 1
 61 39 l 1
 61 37 l 1
 63 37 l 1
 63 39 l 1
57 35 m 1
 56 35 l 1
 56 33 l 1
 58 33 l 1
 58 34 l 1
 57 34 l 1
 57 35 l 1
60 35 m 1
 58 35 l 1
 58 34 l 1
 59 34 l 1
 59 33 l 1
 60 33 l 1
 60 35 l 1
63 35 m 1
 61 35 l 1
 61 33 l 1
 63 33 l 1
 63 35 l 1
31 31 m 1
 29 31 l 1
 29 29 l 1
 31 29 l 1
 31 31 l 1
31 27 m 1
 29 27 l 1
 29 25 l 1
 31 25 l 1
 31 27 l 1
41 31 m 1
 39 31 l 1
 39 29 l 1
 41 29 l 1
 41 31 l 1
41 27 m 1
 39 27 l 1
 39 25 l 1
 41 25 l 1
 41 27 l 1
44 27 m 1
 42 27 l 1
 42 25 l 1
 43 25 l 1
 43 26 l 1
 44 26 l 1
 44 27 l 1
46 27 m 1
 45 27 l 1
 45 26 l 1
 44 26 l 1
 44 25 l 1
 46 25 l 1
 46 27 l 1
49 31 m 1
 47 31 l 1
 47 29 l 1
 49 29 l 1
 49 31 l 1
55 31 m 1
 53 31 l 1
 53 29 l 1
 55 29 l 1
 55 31 l 1
49 27 m 1
 47 27 l 1
 47 25 l 1
 49 25 l 1
 49 27 l 1
55 27 m 1
 53 27 l 1
 53 25 l 1
 55 25 l 1
 55 27 l 1
58 27 m 1
 56 27 l 1
 56 25 l 1
 57 25 l 1
 57 26 l 1
 58 26 l 1
 58 27 l 1
59 26 m 1
 58 26 l 1
 58 25 l 1
 60 25 l 1
 60 27 l 1
 59 27 l 1
 59 26 l 1
63 27 m 1
 61 27 l 1
 61 25 l 1
 63 25 l 1
 63 27 l 1
EndSplineSet
EndChar

StartChar: custom_0_2_0_2_4
Encoding: 20592 20592 624
Width: 70
Flags: H
LayerCount: 2
Fore
SplineSet
17 43 m 1
 15 43 l 1
 15 41 l 1
 17 41 l 1
 17 43 l 1
17 39 m 1
 15 39 l 1
 15 37 l 1
 17 37 l 1
 17 39 l 1
17 35 m 1
 15 35 l 1
 15 33 l 1
 17 33 l 1
 17 35 l 1
17 31 m 1
 15 31 l 1
 15 29 l 1
 17 29 l 1
 17 31 l 1
17 27 m 1
 15 27 l 1
 15 25 l 1
 17 25 l 1
 17 27 l 1
31 43 m 1
 29 43 l 1
 29 41 l 1
 31 41 l 1
 31 43 l 1
31 39 m 1
 29 39 l 1
 29 37 l 1
 31 37 l 1
 31 39 l 1
31 35 m 1
 29 35 l 1
 29 33 l 1
 31 33 l 1
 31 35 l 1
36 37 m 1
 34 37 l 1
 34 35 l 1
 36 35 l 1
 36 37 l 1
36 33 m 1
 34 33 l 1
 34 31 l 1
 36 31 l 1
 36 33 l 1
41 43 m 1
 39 43 l 1
 39 41 l 1
 41 41 l 1
 41 43 l 1
44 43 m 1
 42 43 l 1
 42 41 l 1
 43 41 l 1
 43 42 l 1
 44 42 l 1
 44 43 l 1
46 43 m 1
 45 43 l 1
 45 42 l 1
 44 42 l 1
 44 41 l 1
 46 41 l 1
 46 43 l 1
49 43 m 1
 47 43 l 1
 47 41 l 1
 49 41 l 1
 49 43 l 1
55 43 m 1
 53 43 l 1
 53 41 l 1
 55 41 l 1
 55 43 l 1
41 39 m 1
 39 39 l 1
 39 37 l 1
 41 37 l 1
 41 39 l 1
41 35 m 1
 39 35 l 1
 39 33 l 1
 41 33 l 1
 41 35 l 1
49 39 m 1
 47 39 l 1
 47 37 l 1
 49 37 l 1
 49 39 l 1
49 35 m 1
 47 35 l 1
 47 33 l 1
 49 33 l 1
 49 35 l 1
55 35 m 1
 53 35 l 1
 53 33 l 1
 55 33 l 1
 55 35 l 1
58 43 m 1
 56 43 l 1
 56 41 l 1
 57 41 l 1
 57 42 l 1
 58 42 l 1
 58 43 l 1
59 42 m 1
 58 42 l 1
 58 41 l 1
 60 41 l 1
 60 43 l 1
 59 43 l 1
 59 42 l 1
63 43 m 1
 61 43 l 1
 61 41 l 1
 63 41 l 1
 63 43 l 1
63 39 m 1
 61 39 l 1
 61 37 l 1
 63 37 l 1
 63 39 l 1
57 35 m 1
 56 35 l 1
 56 33 l 1
 58 33 l 1
 58 34 l 1
 57 34 l 1
 57 35 l 1
60 35 m 1
 58 35 l 1
 58 34 l 1
 59 34 l 1
 59 33 l 1
 60 33 l 1
 60 35 l 1
63 35 m 1
 61 35 l 1
 61 33 l 1
 63 33 l 1
 63 35 l 1
31 31 m 1
 29 31 l 1
 29 29 l 1
 31 29 l 1
 31 31 l 1
31 27 m 1
 29 27 l 1
 29 25 l 1
 31 25 l 1
 31 27 l 1
41 31 m 1
 39 31 l 1
 39 29 l 1
 41 29 l 1
 41 31 l 1
41 27 m 1
 39 27 l 1
 39 25 l 1
 41 25 l 1
 41 27 l 1
44 27 m 1
 42 27 l 1
 42 25 l 1
 43 25 l 1
 43 26 l 1
 44 26 l 1
 44 27 l 1
46 27 m 1
 45 27 l 1
 45 26 l 1
 44 26 l 1
 44 25 l 1
 46 25 l 1
 46 27 l 1
49 31 m 1
 47 31 l 1
 47 29 l 1
 49 29 l 1
 49 31 l 1
55 31 m 1
 53 31 l 1
 53 29 l 1
 55 29 l 1
 55 31 l 1
49 27 m 1
 47 27 l 1
 47 25 l 1
 49 25 l 1
 49 27 l 1
55 27 m 1
 53 27 l 1
 53 25 l 1
 55 25 l 1
 55 27 l 1
58 27 m 1
 56 27 l 1
 56 25 l 1
 57 25 l 1
 57 26 l 1
 58 26 l 1
 58 27 l 1
59 26 m 1
 58 26 l 1
 58 25 l 1
 60 25 l 1
 60 27 l 1
 59 27 l 1
 59 26 l 1
63 27 m 1
 61 27 l 1
 61 25 l 1
 63 25 l 1
 63 27 l 1
EndSplineSet
EndChar

StartChar: custom_0_2_0_2_5
Encoding: 20593 20593 625
Width: 70
Flags: H
LayerCount: 2
Fore
SplineSet
17 43 m 1
 15 43 l 1
 15 41 l 1
 17 41 l 1
 17 43 l 1
17 39 m 1
 15 39 l 1
 15 37 l 1
 17 37 l 1
 17 39 l 1
17 35 m 1
 15 35 l 1
 15 33 l 1
 17 33 l 1
 17 35 l 1
17 31 m 1
 15 31 l 1
 15 29 l 1
 17 29 l 1
 17 31 l 1
17 27 m 1
 15 27 l 1
 15 25 l 1
 17 25 l 1
 17 27 l 1
31 43 m 1
 29 43 l 1
 29 41 l 1
 31 41 l 1
 31 43 l 1
31 39 m 1
 29 39 l 1
 29 37 l 1
 31 37 l 1
 31 39 l 1
31 35 m 1
 29 35 l 1
 29 33 l 1
 31 33 l 1
 31 35 l 1
36 37 m 1
 34 37 l 1
 34 35 l 1
 36 35 l 1
 36 37 l 1
36 33 m 1
 34 33 l 1
 34 31 l 1
 36 31 l 1
 36 33 l 1
41 43 m 1
 39 43 l 1
 39 41 l 1
 41 41 l 1
 41 43 l 1
44 43 m 1
 42 43 l 1
 42 41 l 1
 43 41 l 1
 43 42 l 1
 44 42 l 1
 44 43 l 1
46 43 m 1
 45 43 l 1
 45 42 l 1
 44 42 l 1
 44 41 l 1
 46 41 l 1
 46 43 l 1
49 43 m 1
 47 43 l 1
 47 41 l 1
 49 41 l 1
 49 43 l 1
55 43 m 1
 53 43 l 1
 53 41 l 1
 55 41 l 1
 55 43 l 1
41 39 m 1
 39 39 l 1
 39 37 l 1
 41 37 l 1
 41 39 l 1
41 35 m 1
 39 35 l 1
 39 33 l 1
 41 33 l 1
 41 35 l 1
49 39 m 1
 47 39 l 1
 47 37 l 1
 49 37 l 1
 49 39 l 1
49 35 m 1
 47 35 l 1
 47 33 l 1
 49 33 l 1
 49 35 l 1
55 35 m 1
 53 35 l 1
 53 33 l 1
 55 33 l 1
 55 35 l 1
58 43 m 1
 56 43 l 1
 56 41 l 1
 57 41 l 1
 57 42 l 1
 58 42 l 1
 58 43 l 1
59 42 m 1
 58 42 l 1
 58 41 l 1
 60 41 l 1
 60 43 l 1
 59 43 l 1
 59 42 l 1
63 43 m 1
 61 43 l 1
 61 41 l 1
 63 41 l 1
 63 43 l 1
63 39 m 1
 61 39 l 1
 61 37 l 1
 63 37 l 1
 63 39 l 1
57 35 m 1
 56 35 l 1
 56 33 l 1
 58 33 l 1
 58 34 l 1
 57 34 l 1
 57 35 l 1
60 35 m 1
 58 35 l 1
 58 34 l 1
 59 34 l 1
 59 33 l 1
 60 33 l 1
 60 35 l 1
63 35 m 1
 61 35 l 1
 61 33 l 1
 63 33 l 1
 63 35 l 1
31 31 m 1
 29 31 l 1
 29 29 l 1
 31 29 l 1
 31 31 l 1
31 27 m 1
 29 27 l 1
 29 25 l 1
 31 25 l 1
 31 27 l 1
41 31 m 1
 39 31 l 1
 39 29 l 1
 41 29 l 1
 41 31 l 1
41 27 m 1
 39 27 l 1
 39 25 l 1
 41 25 l 1
 41 27 l 1
44 27 m 1
 42 27 l 1
 42 25 l 1
 43 25 l 1
 43 26 l 1
 44 26 l 1
 44 27 l 1
46 27 m 1
 45 27 l 1
 45 26 l 1
 44 26 l 1
 44 25 l 1
 46 25 l 1
 46 27 l 1
49 31 m 1
 47 31 l 1
 47 29 l 1
 49 29 l 1
 49 31 l 1
55 31 m 1
 53 31 l 1
 53 29 l 1
 55 29 l 1
 55 31 l 1
49 27 m 1
 47 27 l 1
 47 25 l 1
 49 25 l 1
 49 27 l 1
55 27 m 1
 53 27 l 1
 53 25 l 1
 55 25 l 1
 55 27 l 1
58 27 m 1
 56 27 l 1
 56 25 l 1
 57 25 l 1
 57 26 l 1
 58 26 l 1
 58 27 l 1
59 26 m 1
 58 26 l 1
 58 25 l 1
 60 25 l 1
 60 27 l 1
 59 27 l 1
 59 26 l 1
63 27 m 1
 61 27 l 1
 61 25 l 1
 63 25 l 1
 63 27 l 1
EndSplineSet
EndChar

StartChar: custom_0_2_0_2_6
Encoding: 20594 20594 626
Width: 70
Flags: H
LayerCount: 2
Fore
SplineSet
17 43 m 1
 15 43 l 1
 15 41 l 1
 17 41 l 1
 17 43 l 1
17 39 m 1
 15 39 l 1
 15 37 l 1
 17 37 l 1
 17 39 l 1
17 35 m 1
 15 35 l 1
 15 33 l 1
 17 33 l 1
 17 35 l 1
17 31 m 1
 15 31 l 1
 15 29 l 1
 17 29 l 1
 17 31 l 1
17 27 m 1
 15 27 l 1
 15 25 l 1
 17 25 l 1
 17 27 l 1
31 43 m 1
 29 43 l 1
 29 41 l 1
 31 41 l 1
 31 43 l 1
31 39 m 1
 29 39 l 1
 29 37 l 1
 31 37 l 1
 31 39 l 1
31 35 m 1
 29 35 l 1
 29 33 l 1
 31 33 l 1
 31 35 l 1
36 37 m 1
 34 37 l 1
 34 35 l 1
 36 35 l 1
 36 37 l 1
36 33 m 1
 34 33 l 1
 34 31 l 1
 36 31 l 1
 36 33 l 1
41 43 m 1
 39 43 l 1
 39 41 l 1
 41 41 l 1
 41 43 l 1
44 43 m 1
 42 43 l 1
 42 41 l 1
 43 41 l 1
 43 42 l 1
 44 42 l 1
 44 43 l 1
46 43 m 1
 45 43 l 1
 45 42 l 1
 44 42 l 1
 44 41 l 1
 46 41 l 1
 46 43 l 1
49 43 m 1
 47 43 l 1
 47 41 l 1
 49 41 l 1
 49 43 l 1
55 43 m 1
 53 43 l 1
 53 41 l 1
 55 41 l 1
 55 43 l 1
41 39 m 1
 39 39 l 1
 39 37 l 1
 41 37 l 1
 41 39 l 1
41 35 m 1
 39 35 l 1
 39 33 l 1
 41 33 l 1
 41 35 l 1
49 39 m 1
 47 39 l 1
 47 37 l 1
 49 37 l 1
 49 39 l 1
49 35 m 1
 47 35 l 1
 47 33 l 1
 49 33 l 1
 49 35 l 1
55 35 m 1
 53 35 l 1
 53 33 l 1
 55 33 l 1
 55 35 l 1
58 43 m 1
 56 43 l 1
 56 41 l 1
 57 41 l 1
 57 42 l 1
 58 42 l 1
 58 43 l 1
59 42 m 1
 58 42 l 1
 58 41 l 1
 60 41 l 1
 60 43 l 1
 59 43 l 1
 59 42 l 1
63 43 m 1
 61 43 l 1
 61 41 l 1
 63 41 l 1
 63 43 l 1
63 39 m 1
 61 39 l 1
 61 37 l 1
 63 37 l 1
 63 39 l 1
57 35 m 1
 56 35 l 1
 56 33 l 1
 58 33 l 1
 58 34 l 1
 57 34 l 1
 57 35 l 1
60 35 m 1
 58 35 l 1
 58 34 l 1
 59 34 l 1
 59 33 l 1
 60 33 l 1
 60 35 l 1
63 35 m 1
 61 35 l 1
 61 33 l 1
 63 33 l 1
 63 35 l 1
31 31 m 1
 29 31 l 1
 29 29 l 1
 31 29 l 1
 31 31 l 1
31 27 m 1
 29 27 l 1
 29 25 l 1
 31 25 l 1
 31 27 l 1
41 31 m 1
 39 31 l 1
 39 29 l 1
 41 29 l 1
 41 31 l 1
41 27 m 1
 39 27 l 1
 39 25 l 1
 41 25 l 1
 41 27 l 1
44 27 m 1
 42 27 l 1
 42 25 l 1
 43 25 l 1
 43 26 l 1
 44 26 l 1
 44 27 l 1
46 27 m 1
 45 27 l 1
 45 26 l 1
 44 26 l 1
 44 25 l 1
 46 25 l 1
 46 27 l 1
49 31 m 1
 47 31 l 1
 47 29 l 1
 49 29 l 1
 49 31 l 1
55 31 m 1
 53 31 l 1
 53 29 l 1
 55 29 l 1
 55 31 l 1
49 27 m 1
 47 27 l 1
 47 25 l 1
 49 25 l 1
 49 27 l 1
55 27 m 1
 53 27 l 1
 53 25 l 1
 55 25 l 1
 55 27 l 1
58 27 m 1
 56 27 l 1
 56 25 l 1
 57 25 l 1
 57 26 l 1
 58 26 l 1
 58 27 l 1
59 26 m 1
 58 26 l 1
 58 25 l 1
 60 25 l 1
 60 27 l 1
 59 27 l 1
 59 26 l 1
63 27 m 1
 61 27 l 1
 61 25 l 1
 63 25 l 1
 63 27 l 1
EndSplineSet
EndChar

StartChar: custom_0_2_0_2_7
Encoding: 20595 20595 627
Width: 70
Flags: H
LayerCount: 2
Fore
SplineSet
17 43 m 1
 15 43 l 1
 15 41 l 1
 17 41 l 1
 17 43 l 1
17 39 m 1
 15 39 l 1
 15 37 l 1
 17 37 l 1
 17 39 l 1
17 35 m 1
 15 35 l 1
 15 33 l 1
 17 33 l 1
 17 35 l 1
17 31 m 1
 15 31 l 1
 15 29 l 1
 17 29 l 1
 17 31 l 1
17 27 m 1
 15 27 l 1
 15 25 l 1
 17 25 l 1
 17 27 l 1
31 43 m 1
 29 43 l 1
 29 41 l 1
 31 41 l 1
 31 43 l 1
31 39 m 1
 29 39 l 1
 29 37 l 1
 31 37 l 1
 31 39 l 1
31 35 m 1
 29 35 l 1
 29 33 l 1
 31 33 l 1
 31 35 l 1
36 37 m 1
 34 37 l 1
 34 35 l 1
 36 35 l 1
 36 37 l 1
36 33 m 1
 34 33 l 1
 34 31 l 1
 36 31 l 1
 36 33 l 1
41 43 m 1
 39 43 l 1
 39 41 l 1
 41 41 l 1
 41 43 l 1
44 43 m 1
 42 43 l 1
 42 41 l 1
 43 41 l 1
 43 42 l 1
 44 42 l 1
 44 43 l 1
46 43 m 1
 45 43 l 1
 45 42 l 1
 44 42 l 1
 44 41 l 1
 46 41 l 1
 46 43 l 1
49 43 m 1
 47 43 l 1
 47 41 l 1
 49 41 l 1
 49 43 l 1
55 43 m 1
 53 43 l 1
 53 41 l 1
 55 41 l 1
 55 43 l 1
41 39 m 1
 39 39 l 1
 39 37 l 1
 41 37 l 1
 41 39 l 1
41 35 m 1
 39 35 l 1
 39 33 l 1
 41 33 l 1
 41 35 l 1
49 39 m 1
 47 39 l 1
 47 37 l 1
 49 37 l 1
 49 39 l 1
49 35 m 1
 47 35 l 1
 47 33 l 1
 49 33 l 1
 49 35 l 1
55 35 m 1
 53 35 l 1
 53 33 l 1
 55 33 l 1
 55 35 l 1
58 43 m 1
 56 43 l 1
 56 41 l 1
 57 41 l 1
 57 42 l 1
 58 42 l 1
 58 43 l 1
59 42 m 1
 58 42 l 1
 58 41 l 1
 60 41 l 1
 60 43 l 1
 59 43 l 1
 59 42 l 1
63 43 m 1
 61 43 l 1
 61 41 l 1
 63 41 l 1
 63 43 l 1
63 39 m 1
 61 39 l 1
 61 37 l 1
 63 37 l 1
 63 39 l 1
57 35 m 1
 56 35 l 1
 56 33 l 1
 58 33 l 1
 58 34 l 1
 57 34 l 1
 57 35 l 1
60 35 m 1
 58 35 l 1
 58 34 l 1
 59 34 l 1
 59 33 l 1
 60 33 l 1
 60 35 l 1
63 35 m 1
 61 35 l 1
 61 33 l 1
 63 33 l 1
 63 35 l 1
31 31 m 1
 29 31 l 1
 29 29 l 1
 31 29 l 1
 31 31 l 1
31 27 m 1
 29 27 l 1
 29 25 l 1
 31 25 l 1
 31 27 l 1
41 31 m 1
 39 31 l 1
 39 29 l 1
 41 29 l 1
 41 31 l 1
41 27 m 1
 39 27 l 1
 39 25 l 1
 41 25 l 1
 41 27 l 1
44 27 m 1
 42 27 l 1
 42 25 l 1
 43 25 l 1
 43 26 l 1
 44 26 l 1
 44 27 l 1
46 27 m 1
 45 27 l 1
 45 26 l 1
 44 26 l 1
 44 25 l 1
 46 25 l 1
 46 27 l 1
49 31 m 1
 47 31 l 1
 47 29 l 1
 49 29 l 1
 49 31 l 1
55 31 m 1
 53 31 l 1
 53 29 l 1
 55 29 l 1
 55 31 l 1
49 27 m 1
 47 27 l 1
 47 25 l 1
 49 25 l 1
 49 27 l 1
55 27 m 1
 53 27 l 1
 53 25 l 1
 55 25 l 1
 55 27 l 1
58 27 m 1
 56 27 l 1
 56 25 l 1
 57 25 l 1
 57 26 l 1
 58 26 l 1
 58 27 l 1
59 26 m 1
 58 26 l 1
 58 25 l 1
 60 25 l 1
 60 27 l 1
 59 27 l 1
 59 26 l 1
63 27 m 1
 61 27 l 1
 61 25 l 1
 63 25 l 1
 63 27 l 1
EndSplineSet
EndChar

StartChar: custom_0_2_0_2_8
Encoding: 20596 20596 628
Width: 70
Flags: H
LayerCount: 2
Fore
SplineSet
17 43 m 1
 15 43 l 1
 15 41 l 1
 17 41 l 1
 17 43 l 1
17 39 m 1
 15 39 l 1
 15 37 l 1
 17 37 l 1
 17 39 l 1
17 35 m 1
 15 35 l 1
 15 33 l 1
 17 33 l 1
 17 35 l 1
17 31 m 1
 15 31 l 1
 15 29 l 1
 17 29 l 1
 17 31 l 1
17 27 m 1
 15 27 l 1
 15 25 l 1
 17 25 l 1
 17 27 l 1
31 43 m 1
 29 43 l 1
 29 41 l 1
 31 41 l 1
 31 43 l 1
31 39 m 1
 29 39 l 1
 29 37 l 1
 31 37 l 1
 31 39 l 1
31 35 m 1
 29 35 l 1
 29 33 l 1
 31 33 l 1
 31 35 l 1
36 37 m 1
 34 37 l 1
 34 35 l 1
 36 35 l 1
 36 37 l 1
36 33 m 1
 34 33 l 1
 34 31 l 1
 36 31 l 1
 36 33 l 1
41 43 m 1
 39 43 l 1
 39 41 l 1
 41 41 l 1
 41 43 l 1
44 43 m 1
 42 43 l 1
 42 41 l 1
 43 41 l 1
 43 42 l 1
 44 42 l 1
 44 43 l 1
46 43 m 1
 45 43 l 1
 45 42 l 1
 44 42 l 1
 44 41 l 1
 46 41 l 1
 46 43 l 1
49 43 m 1
 47 43 l 1
 47 41 l 1
 49 41 l 1
 49 43 l 1
55 43 m 1
 53 43 l 1
 53 41 l 1
 55 41 l 1
 55 43 l 1
41 39 m 1
 39 39 l 1
 39 37 l 1
 41 37 l 1
 41 39 l 1
41 35 m 1
 39 35 l 1
 39 33 l 1
 41 33 l 1
 41 35 l 1
49 39 m 1
 47 39 l 1
 47 37 l 1
 49 37 l 1
 49 39 l 1
49 35 m 1
 47 35 l 1
 47 33 l 1
 49 33 l 1
 49 35 l 1
55 35 m 1
 53 35 l 1
 53 33 l 1
 55 33 l 1
 55 35 l 1
58 43 m 1
 56 43 l 1
 56 41 l 1
 57 41 l 1
 57 42 l 1
 58 42 l 1
 58 43 l 1
59 42 m 1
 58 42 l 1
 58 41 l 1
 60 41 l 1
 60 43 l 1
 59 43 l 1
 59 42 l 1
63 43 m 1
 61 43 l 1
 61 41 l 1
 63 41 l 1
 63 43 l 1
63 39 m 1
 61 39 l 1
 61 37 l 1
 63 37 l 1
 63 39 l 1
57 35 m 1
 56 35 l 1
 56 33 l 1
 58 33 l 1
 58 34 l 1
 57 34 l 1
 57 35 l 1
60 35 m 1
 58 35 l 1
 58 34 l 1
 59 34 l 1
 59 33 l 1
 60 33 l 1
 60 35 l 1
63 35 m 1
 61 35 l 1
 61 33 l 1
 63 33 l 1
 63 35 l 1
31 31 m 1
 29 31 l 1
 29 29 l 1
 31 29 l 1
 31 31 l 1
31 27 m 1
 29 27 l 1
 29 25 l 1
 31 25 l 1
 31 27 l 1
41 31 m 1
 39 31 l 1
 39 29 l 1
 41 29 l 1
 41 31 l 1
41 27 m 1
 39 27 l 1
 39 25 l 1
 41 25 l 1
 41 27 l 1
44 27 m 1
 42 27 l 1
 42 25 l 1
 43 25 l 1
 43 26 l 1
 44 26 l 1
 44 27 l 1
46 27 m 1
 45 27 l 1
 45 26 l 1
 44 26 l 1
 44 25 l 1
 46 25 l 1
 46 27 l 1
49 31 m 1
 47 31 l 1
 47 29 l 1
 49 29 l 1
 49 31 l 1
55 31 m 1
 53 31 l 1
 53 29 l 1
 55 29 l 1
 55 31 l 1
49 27 m 1
 47 27 l 1
 47 25 l 1
 49 25 l 1
 49 27 l 1
55 27 m 1
 53 27 l 1
 53 25 l 1
 55 25 l 1
 55 27 l 1
58 27 m 1
 56 27 l 1
 56 25 l 1
 57 25 l 1
 57 26 l 1
 58 26 l 1
 58 27 l 1
59 26 m 1
 58 26 l 1
 58 25 l 1
 60 25 l 1
 60 27 l 1
 59 27 l 1
 59 26 l 1
63 27 m 1
 61 27 l 1
 61 25 l 1
 63 25 l 1
 63 27 l 1
EndSplineSet
EndChar

StartChar: custom_0_2_0_2_9
Encoding: 20597 20597 629
Width: 70
Flags: H
LayerCount: 2
Fore
SplineSet
17 43 m 1
 15 43 l 1
 15 41 l 1
 17 41 l 1
 17 43 l 1
17 39 m 1
 15 39 l 1
 15 37 l 1
 17 37 l 1
 17 39 l 1
17 35 m 1
 15 35 l 1
 15 33 l 1
 17 33 l 1
 17 35 l 1
17 31 m 1
 15 31 l 1
 15 29 l 1
 17 29 l 1
 17 31 l 1
17 27 m 1
 15 27 l 1
 15 25 l 1
 17 25 l 1
 17 27 l 1
31 43 m 1
 29 43 l 1
 29 41 l 1
 31 41 l 1
 31 43 l 1
31 39 m 1
 29 39 l 1
 29 37 l 1
 31 37 l 1
 31 39 l 1
31 35 m 1
 29 35 l 1
 29 33 l 1
 31 33 l 1
 31 35 l 1
36 37 m 1
 34 37 l 1
 34 35 l 1
 36 35 l 1
 36 37 l 1
36 33 m 1
 34 33 l 1
 34 31 l 1
 36 31 l 1
 36 33 l 1
41 43 m 1
 39 43 l 1
 39 41 l 1
 41 41 l 1
 41 43 l 1
44 43 m 1
 42 43 l 1
 42 41 l 1
 43 41 l 1
 43 42 l 1
 44 42 l 1
 44 43 l 1
46 43 m 1
 45 43 l 1
 45 42 l 1
 44 42 l 1
 44 41 l 1
 46 41 l 1
 46 43 l 1
49 43 m 1
 47 43 l 1
 47 41 l 1
 49 41 l 1
 49 43 l 1
55 43 m 1
 53 43 l 1
 53 41 l 1
 55 41 l 1
 55 43 l 1
41 39 m 1
 39 39 l 1
 39 37 l 1
 41 37 l 1
 41 39 l 1
41 35 m 1
 39 35 l 1
 39 33 l 1
 41 33 l 1
 41 35 l 1
49 39 m 1
 47 39 l 1
 47 37 l 1
 49 37 l 1
 49 39 l 1
49 35 m 1
 47 35 l 1
 47 33 l 1
 49 33 l 1
 49 35 l 1
55 35 m 1
 53 35 l 1
 53 33 l 1
 55 33 l 1
 55 35 l 1
58 43 m 1
 56 43 l 1
 56 41 l 1
 57 41 l 1
 57 42 l 1
 58 42 l 1
 58 43 l 1
59 42 m 1
 58 42 l 1
 58 41 l 1
 60 41 l 1
 60 43 l 1
 59 43 l 1
 59 42 l 1
63 43 m 1
 61 43 l 1
 61 41 l 1
 63 41 l 1
 63 43 l 1
63 39 m 1
 61 39 l 1
 61 37 l 1
 63 37 l 1
 63 39 l 1
57 35 m 1
 56 35 l 1
 56 33 l 1
 58 33 l 1
 58 34 l 1
 57 34 l 1
 57 35 l 1
60 35 m 1
 58 35 l 1
 58 34 l 1
 59 34 l 1
 59 33 l 1
 60 33 l 1
 60 35 l 1
63 35 m 1
 61 35 l 1
 61 33 l 1
 63 33 l 1
 63 35 l 1
31 31 m 1
 29 31 l 1
 29 29 l 1
 31 29 l 1
 31 31 l 1
31 27 m 1
 29 27 l 1
 29 25 l 1
 31 25 l 1
 31 27 l 1
41 31 m 1
 39 31 l 1
 39 29 l 1
 41 29 l 1
 41 31 l 1
41 27 m 1
 39 27 l 1
 39 25 l 1
 41 25 l 1
 41 27 l 1
44 27 m 1
 42 27 l 1
 42 25 l 1
 43 25 l 1
 43 26 l 1
 44 26 l 1
 44 27 l 1
46 27 m 1
 45 27 l 1
 45 26 l 1
 44 26 l 1
 44 25 l 1
 46 25 l 1
 46 27 l 1
49 31 m 1
 47 31 l 1
 47 29 l 1
 49 29 l 1
 49 31 l 1
55 31 m 1
 53 31 l 1
 53 29 l 1
 55 29 l 1
 55 31 l 1
49 27 m 1
 47 27 l 1
 47 25 l 1
 49 25 l 1
 49 27 l 1
55 27 m 1
 53 27 l 1
 53 25 l 1
 55 25 l 1
 55 27 l 1
58 27 m 1
 56 27 l 1
 56 25 l 1
 57 25 l 1
 57 26 l 1
 58 26 l 1
 58 27 l 1
59 26 m 1
 58 26 l 1
 58 25 l 1
 60 25 l 1
 60 27 l 1
 59 27 l 1
 59 26 l 1
63 27 m 1
 61 27 l 1
 61 25 l 1
 63 25 l 1
 63 27 l 1
EndSplineSet
EndChar

StartChar: custom_0_2_0_3_0
Encoding: 20598 20598 630
Width: 70
Flags: H
LayerCount: 2
Fore
SplineSet
17 43 m 1
 15 43 l 1
 15 41 l 1
 17 41 l 1
 17 43 l 1
17 39 m 1
 15 39 l 1
 15 37 l 1
 17 37 l 1
 17 39 l 1
17 35 m 1
 15 35 l 1
 15 33 l 1
 17 33 l 1
 17 35 l 1
17 31 m 1
 15 31 l 1
 15 29 l 1
 17 29 l 1
 17 31 l 1
17 27 m 1
 15 27 l 1
 15 25 l 1
 17 25 l 1
 17 27 l 1
31 43 m 1
 29 43 l 1
 29 41 l 1
 31 41 l 1
 31 43 l 1
31 39 m 1
 29 39 l 1
 29 37 l 1
 31 37 l 1
 31 39 l 1
31 35 m 1
 29 35 l 1
 29 33 l 1
 31 33 l 1
 31 35 l 1
36 37 m 1
 34 37 l 1
 34 35 l 1
 36 35 l 1
 36 37 l 1
36 33 m 1
 34 33 l 1
 34 31 l 1
 36 31 l 1
 36 33 l 1
41 43 m 1
 39 43 l 1
 39 41 l 1
 41 41 l 1
 41 43 l 1
44 43 m 1
 42 43 l 1
 42 41 l 1
 43 41 l 1
 43 42 l 1
 44 42 l 1
 44 43 l 1
46 43 m 1
 45 43 l 1
 45 42 l 1
 44 42 l 1
 44 41 l 1
 46 41 l 1
 46 43 l 1
49 43 m 1
 47 43 l 1
 47 41 l 1
 49 41 l 1
 49 43 l 1
55 43 m 1
 53 43 l 1
 53 41 l 1
 55 41 l 1
 55 43 l 1
41 39 m 1
 39 39 l 1
 39 37 l 1
 41 37 l 1
 41 39 l 1
41 35 m 1
 39 35 l 1
 39 33 l 1
 41 33 l 1
 41 35 l 1
49 39 m 1
 47 39 l 1
 47 37 l 1
 49 37 l 1
 49 39 l 1
49 35 m 1
 47 35 l 1
 47 33 l 1
 49 33 l 1
 49 35 l 1
55 35 m 1
 53 35 l 1
 53 33 l 1
 55 33 l 1
 55 35 l 1
58 43 m 1
 56 43 l 1
 56 41 l 1
 57 41 l 1
 57 42 l 1
 58 42 l 1
 58 43 l 1
59 42 m 1
 58 42 l 1
 58 41 l 1
 60 41 l 1
 60 43 l 1
 59 43 l 1
 59 42 l 1
63 43 m 1
 61 43 l 1
 61 41 l 1
 63 41 l 1
 63 43 l 1
63 39 m 1
 61 39 l 1
 61 37 l 1
 63 37 l 1
 63 39 l 1
57 35 m 1
 56 35 l 1
 56 33 l 1
 58 33 l 1
 58 34 l 1
 57 34 l 1
 57 35 l 1
60 35 m 1
 58 35 l 1
 58 34 l 1
 59 34 l 1
 59 33 l 1
 60 33 l 1
 60 35 l 1
63 35 m 1
 61 35 l 1
 61 33 l 1
 63 33 l 1
 63 35 l 1
31 31 m 1
 29 31 l 1
 29 29 l 1
 31 29 l 1
 31 31 l 1
31 27 m 1
 29 27 l 1
 29 25 l 1
 31 25 l 1
 31 27 l 1
41 31 m 1
 39 31 l 1
 39 29 l 1
 41 29 l 1
 41 31 l 1
41 27 m 1
 39 27 l 1
 39 25 l 1
 41 25 l 1
 41 27 l 1
44 27 m 1
 42 27 l 1
 42 25 l 1
 43 25 l 1
 43 26 l 1
 44 26 l 1
 44 27 l 1
46 27 m 1
 45 27 l 1
 45 26 l 1
 44 26 l 1
 44 25 l 1
 46 25 l 1
 46 27 l 1
49 31 m 1
 47 31 l 1
 47 29 l 1
 49 29 l 1
 49 31 l 1
55 31 m 1
 53 31 l 1
 53 29 l 1
 55 29 l 1
 55 31 l 1
49 27 m 1
 47 27 l 1
 47 25 l 1
 49 25 l 1
 49 27 l 1
55 27 m 1
 53 27 l 1
 53 25 l 1
 55 25 l 1
 55 27 l 1
58 27 m 1
 56 27 l 1
 56 25 l 1
 57 25 l 1
 57 26 l 1
 58 26 l 1
 58 27 l 1
59 26 m 1
 58 26 l 1
 58 25 l 1
 60 25 l 1
 60 27 l 1
 59 27 l 1
 59 26 l 1
63 27 m 1
 61 27 l 1
 61 25 l 1
 63 25 l 1
 63 27 l 1
EndSplineSet
EndChar

StartChar: custom_0_2_0_3_1
Encoding: 20599 20599 631
Width: 70
Flags: H
LayerCount: 2
Fore
SplineSet
17 43 m 1
 15 43 l 1
 15 41 l 1
 17 41 l 1
 17 43 l 1
17 39 m 1
 15 39 l 1
 15 37 l 1
 17 37 l 1
 17 39 l 1
17 35 m 1
 15 35 l 1
 15 33 l 1
 17 33 l 1
 17 35 l 1
17 31 m 1
 15 31 l 1
 15 29 l 1
 17 29 l 1
 17 31 l 1
17 27 m 1
 15 27 l 1
 15 25 l 1
 17 25 l 1
 17 27 l 1
31 43 m 1
 29 43 l 1
 29 41 l 1
 31 41 l 1
 31 43 l 1
31 39 m 1
 29 39 l 1
 29 37 l 1
 31 37 l 1
 31 39 l 1
31 35 m 1
 29 35 l 1
 29 33 l 1
 31 33 l 1
 31 35 l 1
36 37 m 1
 34 37 l 1
 34 35 l 1
 36 35 l 1
 36 37 l 1
36 33 m 1
 34 33 l 1
 34 31 l 1
 36 31 l 1
 36 33 l 1
41 43 m 1
 39 43 l 1
 39 41 l 1
 41 41 l 1
 41 43 l 1
44 43 m 1
 42 43 l 1
 42 41 l 1
 43 41 l 1
 43 42 l 1
 44 42 l 1
 44 43 l 1
46 43 m 1
 45 43 l 1
 45 42 l 1
 44 42 l 1
 44 41 l 1
 46 41 l 1
 46 43 l 1
49 43 m 1
 47 43 l 1
 47 41 l 1
 49 41 l 1
 49 43 l 1
55 43 m 1
 53 43 l 1
 53 41 l 1
 55 41 l 1
 55 43 l 1
41 39 m 1
 39 39 l 1
 39 37 l 1
 41 37 l 1
 41 39 l 1
41 35 m 1
 39 35 l 1
 39 33 l 1
 41 33 l 1
 41 35 l 1
49 39 m 1
 47 39 l 1
 47 37 l 1
 49 37 l 1
 49 39 l 1
49 35 m 1
 47 35 l 1
 47 33 l 1
 49 33 l 1
 49 35 l 1
55 35 m 1
 53 35 l 1
 53 33 l 1
 55 33 l 1
 55 35 l 1
58 43 m 1
 56 43 l 1
 56 41 l 1
 57 41 l 1
 57 42 l 1
 58 42 l 1
 58 43 l 1
59 42 m 1
 58 42 l 1
 58 41 l 1
 60 41 l 1
 60 43 l 1
 59 43 l 1
 59 42 l 1
63 43 m 1
 61 43 l 1
 61 41 l 1
 63 41 l 1
 63 43 l 1
63 39 m 1
 61 39 l 1
 61 37 l 1
 63 37 l 1
 63 39 l 1
57 35 m 1
 56 35 l 1
 56 33 l 1
 58 33 l 1
 58 34 l 1
 57 34 l 1
 57 35 l 1
60 35 m 1
 58 35 l 1
 58 34 l 1
 59 34 l 1
 59 33 l 1
 60 33 l 1
 60 35 l 1
63 35 m 1
 61 35 l 1
 61 33 l 1
 63 33 l 1
 63 35 l 1
31 31 m 1
 29 31 l 1
 29 29 l 1
 31 29 l 1
 31 31 l 1
31 27 m 1
 29 27 l 1
 29 25 l 1
 31 25 l 1
 31 27 l 1
41 31 m 1
 39 31 l 1
 39 29 l 1
 41 29 l 1
 41 31 l 1
41 27 m 1
 39 27 l 1
 39 25 l 1
 41 25 l 1
 41 27 l 1
44 27 m 1
 42 27 l 1
 42 25 l 1
 43 25 l 1
 43 26 l 1
 44 26 l 1
 44 27 l 1
46 27 m 1
 45 27 l 1
 45 26 l 1
 44 26 l 1
 44 25 l 1
 46 25 l 1
 46 27 l 1
49 31 m 1
 47 31 l 1
 47 29 l 1
 49 29 l 1
 49 31 l 1
55 31 m 1
 53 31 l 1
 53 29 l 1
 55 29 l 1
 55 31 l 1
49 27 m 1
 47 27 l 1
 47 25 l 1
 49 25 l 1
 49 27 l 1
55 27 m 1
 53 27 l 1
 53 25 l 1
 55 25 l 1
 55 27 l 1
58 27 m 1
 56 27 l 1
 56 25 l 1
 57 25 l 1
 57 26 l 1
 58 26 l 1
 58 27 l 1
59 26 m 1
 58 26 l 1
 58 25 l 1
 60 25 l 1
 60 27 l 1
 59 27 l 1
 59 26 l 1
63 27 m 1
 61 27 l 1
 61 25 l 1
 63 25 l 1
 63 27 l 1
EndSplineSet
EndChar

StartChar: custom_0_2_0_3_2
Encoding: 20600 20600 632
Width: 70
Flags: H
LayerCount: 2
Fore
SplineSet
17 43 m 1
 15 43 l 1
 15 41 l 1
 17 41 l 1
 17 43 l 1
17 39 m 1
 15 39 l 1
 15 37 l 1
 17 37 l 1
 17 39 l 1
17 35 m 1
 15 35 l 1
 15 33 l 1
 17 33 l 1
 17 35 l 1
17 31 m 1
 15 31 l 1
 15 29 l 1
 17 29 l 1
 17 31 l 1
17 27 m 1
 15 27 l 1
 15 25 l 1
 17 25 l 1
 17 27 l 1
31 43 m 1
 29 43 l 1
 29 41 l 1
 31 41 l 1
 31 43 l 1
31 39 m 1
 29 39 l 1
 29 37 l 1
 31 37 l 1
 31 39 l 1
31 35 m 1
 29 35 l 1
 29 33 l 1
 31 33 l 1
 31 35 l 1
36 37 m 1
 34 37 l 1
 34 35 l 1
 36 35 l 1
 36 37 l 1
36 33 m 1
 34 33 l 1
 34 31 l 1
 36 31 l 1
 36 33 l 1
41 43 m 1
 39 43 l 1
 39 41 l 1
 41 41 l 1
 41 43 l 1
44 43 m 1
 42 43 l 1
 42 41 l 1
 43 41 l 1
 43 42 l 1
 44 42 l 1
 44 43 l 1
46 43 m 1
 45 43 l 1
 45 42 l 1
 44 42 l 1
 44 41 l 1
 46 41 l 1
 46 43 l 1
49 43 m 1
 47 43 l 1
 47 41 l 1
 49 41 l 1
 49 43 l 1
55 43 m 1
 53 43 l 1
 53 41 l 1
 55 41 l 1
 55 43 l 1
41 39 m 1
 39 39 l 1
 39 37 l 1
 41 37 l 1
 41 39 l 1
41 35 m 1
 39 35 l 1
 39 33 l 1
 41 33 l 1
 41 35 l 1
49 39 m 1
 47 39 l 1
 47 37 l 1
 49 37 l 1
 49 39 l 1
49 35 m 1
 47 35 l 1
 47 33 l 1
 49 33 l 1
 49 35 l 1
55 35 m 1
 53 35 l 1
 53 33 l 1
 55 33 l 1
 55 35 l 1
58 43 m 1
 56 43 l 1
 56 41 l 1
 57 41 l 1
 57 42 l 1
 58 42 l 1
 58 43 l 1
59 42 m 1
 58 42 l 1
 58 41 l 1
 60 41 l 1
 60 43 l 1
 59 43 l 1
 59 42 l 1
63 43 m 1
 61 43 l 1
 61 41 l 1
 63 41 l 1
 63 43 l 1
63 39 m 1
 61 39 l 1
 61 37 l 1
 63 37 l 1
 63 39 l 1
57 35 m 1
 56 35 l 1
 56 33 l 1
 58 33 l 1
 58 34 l 1
 57 34 l 1
 57 35 l 1
60 35 m 1
 58 35 l 1
 58 34 l 1
 59 34 l 1
 59 33 l 1
 60 33 l 1
 60 35 l 1
63 35 m 1
 61 35 l 1
 61 33 l 1
 63 33 l 1
 63 35 l 1
31 31 m 1
 29 31 l 1
 29 29 l 1
 31 29 l 1
 31 31 l 1
31 27 m 1
 29 27 l 1
 29 25 l 1
 31 25 l 1
 31 27 l 1
41 31 m 1
 39 31 l 1
 39 29 l 1
 41 29 l 1
 41 31 l 1
41 27 m 1
 39 27 l 1
 39 25 l 1
 41 25 l 1
 41 27 l 1
44 27 m 1
 42 27 l 1
 42 25 l 1
 43 25 l 1
 43 26 l 1
 44 26 l 1
 44 27 l 1
46 27 m 1
 45 27 l 1
 45 26 l 1
 44 26 l 1
 44 25 l 1
 46 25 l 1
 46 27 l 1
49 31 m 1
 47 31 l 1
 47 29 l 1
 49 29 l 1
 49 31 l 1
55 31 m 1
 53 31 l 1
 53 29 l 1
 55 29 l 1
 55 31 l 1
49 27 m 1
 47 27 l 1
 47 25 l 1
 49 25 l 1
 49 27 l 1
55 27 m 1
 53 27 l 1
 53 25 l 1
 55 25 l 1
 55 27 l 1
58 27 m 1
 56 27 l 1
 56 25 l 1
 57 25 l 1
 57 26 l 1
 58 26 l 1
 58 27 l 1
59 26 m 1
 58 26 l 1
 58 25 l 1
 60 25 l 1
 60 27 l 1
 59 27 l 1
 59 26 l 1
63 27 m 1
 61 27 l 1
 61 25 l 1
 63 25 l 1
 63 27 l 1
EndSplineSet
EndChar

StartChar: custom_0_2_0_3_3
Encoding: 20601 20601 633
Width: 70
Flags: H
LayerCount: 2
Fore
SplineSet
17 43 m 1
 15 43 l 1
 15 41 l 1
 17 41 l 1
 17 43 l 1
17 39 m 1
 15 39 l 1
 15 37 l 1
 17 37 l 1
 17 39 l 1
17 35 m 1
 15 35 l 1
 15 33 l 1
 17 33 l 1
 17 35 l 1
17 31 m 1
 15 31 l 1
 15 29 l 1
 17 29 l 1
 17 31 l 1
17 27 m 1
 15 27 l 1
 15 25 l 1
 17 25 l 1
 17 27 l 1
31 43 m 1
 29 43 l 1
 29 41 l 1
 31 41 l 1
 31 43 l 1
31 39 m 1
 29 39 l 1
 29 37 l 1
 31 37 l 1
 31 39 l 1
31 35 m 1
 29 35 l 1
 29 33 l 1
 31 33 l 1
 31 35 l 1
36 37 m 1
 34 37 l 1
 34 35 l 1
 36 35 l 1
 36 37 l 1
36 33 m 1
 34 33 l 1
 34 31 l 1
 36 31 l 1
 36 33 l 1
41 43 m 1
 39 43 l 1
 39 41 l 1
 41 41 l 1
 41 43 l 1
44 43 m 1
 42 43 l 1
 42 41 l 1
 43 41 l 1
 43 42 l 1
 44 42 l 1
 44 43 l 1
46 43 m 1
 45 43 l 1
 45 42 l 1
 44 42 l 1
 44 41 l 1
 46 41 l 1
 46 43 l 1
49 43 m 1
 47 43 l 1
 47 41 l 1
 49 41 l 1
 49 43 l 1
55 43 m 1
 53 43 l 1
 53 41 l 1
 55 41 l 1
 55 43 l 1
41 39 m 1
 39 39 l 1
 39 37 l 1
 41 37 l 1
 41 39 l 1
41 35 m 1
 39 35 l 1
 39 33 l 1
 41 33 l 1
 41 35 l 1
49 39 m 1
 47 39 l 1
 47 37 l 1
 49 37 l 1
 49 39 l 1
49 35 m 1
 47 35 l 1
 47 33 l 1
 49 33 l 1
 49 35 l 1
55 35 m 1
 53 35 l 1
 53 33 l 1
 55 33 l 1
 55 35 l 1
58 43 m 1
 56 43 l 1
 56 41 l 1
 57 41 l 1
 57 42 l 1
 58 42 l 1
 58 43 l 1
59 42 m 1
 58 42 l 1
 58 41 l 1
 60 41 l 1
 60 43 l 1
 59 43 l 1
 59 42 l 1
63 43 m 1
 61 43 l 1
 61 41 l 1
 63 41 l 1
 63 43 l 1
63 39 m 1
 61 39 l 1
 61 37 l 1
 63 37 l 1
 63 39 l 1
57 35 m 1
 56 35 l 1
 56 33 l 1
 58 33 l 1
 58 34 l 1
 57 34 l 1
 57 35 l 1
60 35 m 1
 58 35 l 1
 58 34 l 1
 59 34 l 1
 59 33 l 1
 60 33 l 1
 60 35 l 1
63 35 m 1
 61 35 l 1
 61 33 l 1
 63 33 l 1
 63 35 l 1
31 31 m 1
 29 31 l 1
 29 29 l 1
 31 29 l 1
 31 31 l 1
31 27 m 1
 29 27 l 1
 29 25 l 1
 31 25 l 1
 31 27 l 1
41 31 m 1
 39 31 l 1
 39 29 l 1
 41 29 l 1
 41 31 l 1
41 27 m 1
 39 27 l 1
 39 25 l 1
 41 25 l 1
 41 27 l 1
44 27 m 1
 42 27 l 1
 42 25 l 1
 43 25 l 1
 43 26 l 1
 44 26 l 1
 44 27 l 1
46 27 m 1
 45 27 l 1
 45 26 l 1
 44 26 l 1
 44 25 l 1
 46 25 l 1
 46 27 l 1
49 31 m 1
 47 31 l 1
 47 29 l 1
 49 29 l 1
 49 31 l 1
55 31 m 1
 53 31 l 1
 53 29 l 1
 55 29 l 1
 55 31 l 1
49 27 m 1
 47 27 l 1
 47 25 l 1
 49 25 l 1
 49 27 l 1
55 27 m 1
 53 27 l 1
 53 25 l 1
 55 25 l 1
 55 27 l 1
58 27 m 1
 56 27 l 1
 56 25 l 1
 57 25 l 1
 57 26 l 1
 58 26 l 1
 58 27 l 1
59 26 m 1
 58 26 l 1
 58 25 l 1
 60 25 l 1
 60 27 l 1
 59 27 l 1
 59 26 l 1
63 27 m 1
 61 27 l 1
 61 25 l 1
 63 25 l 1
 63 27 l 1
EndSplineSet
EndChar

StartChar: custom_0_2_0_3_4
Encoding: 20602 20602 634
Width: 70
Flags: H
LayerCount: 2
Fore
SplineSet
17 43 m 1
 15 43 l 1
 15 41 l 1
 17 41 l 1
 17 43 l 1
17 39 m 1
 15 39 l 1
 15 37 l 1
 17 37 l 1
 17 39 l 1
17 35 m 1
 15 35 l 1
 15 33 l 1
 17 33 l 1
 17 35 l 1
17 31 m 1
 15 31 l 1
 15 29 l 1
 17 29 l 1
 17 31 l 1
17 27 m 1
 15 27 l 1
 15 25 l 1
 17 25 l 1
 17 27 l 1
31 43 m 1
 29 43 l 1
 29 41 l 1
 31 41 l 1
 31 43 l 1
31 39 m 1
 29 39 l 1
 29 37 l 1
 31 37 l 1
 31 39 l 1
31 35 m 1
 29 35 l 1
 29 33 l 1
 31 33 l 1
 31 35 l 1
36 37 m 1
 34 37 l 1
 34 35 l 1
 36 35 l 1
 36 37 l 1
36 33 m 1
 34 33 l 1
 34 31 l 1
 36 31 l 1
 36 33 l 1
41 43 m 1
 39 43 l 1
 39 41 l 1
 41 41 l 1
 41 43 l 1
44 43 m 1
 42 43 l 1
 42 41 l 1
 43 41 l 1
 43 42 l 1
 44 42 l 1
 44 43 l 1
46 43 m 1
 45 43 l 1
 45 42 l 1
 44 42 l 1
 44 41 l 1
 46 41 l 1
 46 43 l 1
49 43 m 1
 47 43 l 1
 47 41 l 1
 49 41 l 1
 49 43 l 1
55 43 m 1
 53 43 l 1
 53 41 l 1
 55 41 l 1
 55 43 l 1
41 39 m 1
 39 39 l 1
 39 37 l 1
 41 37 l 1
 41 39 l 1
41 35 m 1
 39 35 l 1
 39 33 l 1
 41 33 l 1
 41 35 l 1
49 39 m 1
 47 39 l 1
 47 37 l 1
 49 37 l 1
 49 39 l 1
49 35 m 1
 47 35 l 1
 47 33 l 1
 49 33 l 1
 49 35 l 1
55 35 m 1
 53 35 l 1
 53 33 l 1
 55 33 l 1
 55 35 l 1
58 43 m 1
 56 43 l 1
 56 41 l 1
 57 41 l 1
 57 42 l 1
 58 42 l 1
 58 43 l 1
59 42 m 1
 58 42 l 1
 58 41 l 1
 60 41 l 1
 60 43 l 1
 59 43 l 1
 59 42 l 1
63 43 m 1
 61 43 l 1
 61 41 l 1
 63 41 l 1
 63 43 l 1
63 39 m 1
 61 39 l 1
 61 37 l 1
 63 37 l 1
 63 39 l 1
57 35 m 1
 56 35 l 1
 56 33 l 1
 58 33 l 1
 58 34 l 1
 57 34 l 1
 57 35 l 1
60 35 m 1
 58 35 l 1
 58 34 l 1
 59 34 l 1
 59 33 l 1
 60 33 l 1
 60 35 l 1
63 35 m 1
 61 35 l 1
 61 33 l 1
 63 33 l 1
 63 35 l 1
31 31 m 1
 29 31 l 1
 29 29 l 1
 31 29 l 1
 31 31 l 1
31 27 m 1
 29 27 l 1
 29 25 l 1
 31 25 l 1
 31 27 l 1
41 31 m 1
 39 31 l 1
 39 29 l 1
 41 29 l 1
 41 31 l 1
41 27 m 1
 39 27 l 1
 39 25 l 1
 41 25 l 1
 41 27 l 1
44 27 m 1
 42 27 l 1
 42 25 l 1
 43 25 l 1
 43 26 l 1
 44 26 l 1
 44 27 l 1
46 27 m 1
 45 27 l 1
 45 26 l 1
 44 26 l 1
 44 25 l 1
 46 25 l 1
 46 27 l 1
49 31 m 1
 47 31 l 1
 47 29 l 1
 49 29 l 1
 49 31 l 1
55 31 m 1
 53 31 l 1
 53 29 l 1
 55 29 l 1
 55 31 l 1
49 27 m 1
 47 27 l 1
 47 25 l 1
 49 25 l 1
 49 27 l 1
55 27 m 1
 53 27 l 1
 53 25 l 1
 55 25 l 1
 55 27 l 1
58 27 m 1
 56 27 l 1
 56 25 l 1
 57 25 l 1
 57 26 l 1
 58 26 l 1
 58 27 l 1
59 26 m 1
 58 26 l 1
 58 25 l 1
 60 25 l 1
 60 27 l 1
 59 27 l 1
 59 26 l 1
63 27 m 1
 61 27 l 1
 61 25 l 1
 63 25 l 1
 63 27 l 1
EndSplineSet
EndChar

StartChar: custom_0_2_0_3_5
Encoding: 20603 20603 635
Width: 70
Flags: H
LayerCount: 2
Fore
SplineSet
17 43 m 1
 15 43 l 1
 15 41 l 1
 17 41 l 1
 17 43 l 1
17 39 m 1
 15 39 l 1
 15 37 l 1
 17 37 l 1
 17 39 l 1
17 35 m 1
 15 35 l 1
 15 33 l 1
 17 33 l 1
 17 35 l 1
17 31 m 1
 15 31 l 1
 15 29 l 1
 17 29 l 1
 17 31 l 1
17 27 m 1
 15 27 l 1
 15 25 l 1
 17 25 l 1
 17 27 l 1
31 43 m 1
 29 43 l 1
 29 41 l 1
 31 41 l 1
 31 43 l 1
31 39 m 1
 29 39 l 1
 29 37 l 1
 31 37 l 1
 31 39 l 1
31 35 m 1
 29 35 l 1
 29 33 l 1
 31 33 l 1
 31 35 l 1
36 37 m 1
 34 37 l 1
 34 35 l 1
 36 35 l 1
 36 37 l 1
36 33 m 1
 34 33 l 1
 34 31 l 1
 36 31 l 1
 36 33 l 1
41 43 m 1
 39 43 l 1
 39 41 l 1
 41 41 l 1
 41 43 l 1
44 43 m 1
 42 43 l 1
 42 41 l 1
 43 41 l 1
 43 42 l 1
 44 42 l 1
 44 43 l 1
46 43 m 1
 45 43 l 1
 45 42 l 1
 44 42 l 1
 44 41 l 1
 46 41 l 1
 46 43 l 1
49 43 m 1
 47 43 l 1
 47 41 l 1
 49 41 l 1
 49 43 l 1
55 43 m 1
 53 43 l 1
 53 41 l 1
 55 41 l 1
 55 43 l 1
41 39 m 1
 39 39 l 1
 39 37 l 1
 41 37 l 1
 41 39 l 1
41 35 m 1
 39 35 l 1
 39 33 l 1
 41 33 l 1
 41 35 l 1
49 39 m 1
 47 39 l 1
 47 37 l 1
 49 37 l 1
 49 39 l 1
49 35 m 1
 47 35 l 1
 47 33 l 1
 49 33 l 1
 49 35 l 1
55 35 m 1
 53 35 l 1
 53 33 l 1
 55 33 l 1
 55 35 l 1
58 43 m 1
 56 43 l 1
 56 41 l 1
 57 41 l 1
 57 42 l 1
 58 42 l 1
 58 43 l 1
59 42 m 1
 58 42 l 1
 58 41 l 1
 60 41 l 1
 60 43 l 1
 59 43 l 1
 59 42 l 1
63 43 m 1
 61 43 l 1
 61 41 l 1
 63 41 l 1
 63 43 l 1
63 39 m 1
 61 39 l 1
 61 37 l 1
 63 37 l 1
 63 39 l 1
57 35 m 1
 56 35 l 1
 56 33 l 1
 58 33 l 1
 58 34 l 1
 57 34 l 1
 57 35 l 1
60 35 m 1
 58 35 l 1
 58 34 l 1
 59 34 l 1
 59 33 l 1
 60 33 l 1
 60 35 l 1
63 35 m 1
 61 35 l 1
 61 33 l 1
 63 33 l 1
 63 35 l 1
31 31 m 1
 29 31 l 1
 29 29 l 1
 31 29 l 1
 31 31 l 1
31 27 m 1
 29 27 l 1
 29 25 l 1
 31 25 l 1
 31 27 l 1
41 31 m 1
 39 31 l 1
 39 29 l 1
 41 29 l 1
 41 31 l 1
41 27 m 1
 39 27 l 1
 39 25 l 1
 41 25 l 1
 41 27 l 1
44 27 m 1
 42 27 l 1
 42 25 l 1
 43 25 l 1
 43 26 l 1
 44 26 l 1
 44 27 l 1
46 27 m 1
 45 27 l 1
 45 26 l 1
 44 26 l 1
 44 25 l 1
 46 25 l 1
 46 27 l 1
49 31 m 1
 47 31 l 1
 47 29 l 1
 49 29 l 1
 49 31 l 1
55 31 m 1
 53 31 l 1
 53 29 l 1
 55 29 l 1
 55 31 l 1
49 27 m 1
 47 27 l 1
 47 25 l 1
 49 25 l 1
 49 27 l 1
55 27 m 1
 53 27 l 1
 53 25 l 1
 55 25 l 1
 55 27 l 1
58 27 m 1
 56 27 l 1
 56 25 l 1
 57 25 l 1
 57 26 l 1
 58 26 l 1
 58 27 l 1
59 26 m 1
 58 26 l 1
 58 25 l 1
 60 25 l 1
 60 27 l 1
 59 27 l 1
 59 26 l 1
63 27 m 1
 61 27 l 1
 61 25 l 1
 63 25 l 1
 63 27 l 1
EndSplineSet
EndChar

StartChar: custom_0_2_0_3_6
Encoding: 20604 20604 636
Width: 70
Flags: H
LayerCount: 2
Fore
SplineSet
17 43 m 1
 15 43 l 1
 15 41 l 1
 17 41 l 1
 17 43 l 1
17 39 m 1
 15 39 l 1
 15 37 l 1
 17 37 l 1
 17 39 l 1
17 35 m 1
 15 35 l 1
 15 33 l 1
 17 33 l 1
 17 35 l 1
17 31 m 1
 15 31 l 1
 15 29 l 1
 17 29 l 1
 17 31 l 1
17 27 m 1
 15 27 l 1
 15 25 l 1
 17 25 l 1
 17 27 l 1
31 43 m 1
 29 43 l 1
 29 41 l 1
 31 41 l 1
 31 43 l 1
31 39 m 1
 29 39 l 1
 29 37 l 1
 31 37 l 1
 31 39 l 1
31 35 m 1
 29 35 l 1
 29 33 l 1
 31 33 l 1
 31 35 l 1
36 37 m 1
 34 37 l 1
 34 35 l 1
 36 35 l 1
 36 37 l 1
36 33 m 1
 34 33 l 1
 34 31 l 1
 36 31 l 1
 36 33 l 1
41 43 m 1
 39 43 l 1
 39 41 l 1
 41 41 l 1
 41 43 l 1
44 43 m 1
 42 43 l 1
 42 41 l 1
 43 41 l 1
 43 42 l 1
 44 42 l 1
 44 43 l 1
46 43 m 1
 45 43 l 1
 45 42 l 1
 44 42 l 1
 44 41 l 1
 46 41 l 1
 46 43 l 1
49 43 m 1
 47 43 l 1
 47 41 l 1
 49 41 l 1
 49 43 l 1
55 43 m 1
 53 43 l 1
 53 41 l 1
 55 41 l 1
 55 43 l 1
41 39 m 1
 39 39 l 1
 39 37 l 1
 41 37 l 1
 41 39 l 1
41 35 m 1
 39 35 l 1
 39 33 l 1
 41 33 l 1
 41 35 l 1
49 39 m 1
 47 39 l 1
 47 37 l 1
 49 37 l 1
 49 39 l 1
49 35 m 1
 47 35 l 1
 47 33 l 1
 49 33 l 1
 49 35 l 1
55 35 m 1
 53 35 l 1
 53 33 l 1
 55 33 l 1
 55 35 l 1
58 43 m 1
 56 43 l 1
 56 41 l 1
 57 41 l 1
 57 42 l 1
 58 42 l 1
 58 43 l 1
59 42 m 1
 58 42 l 1
 58 41 l 1
 60 41 l 1
 60 43 l 1
 59 43 l 1
 59 42 l 1
63 43 m 1
 61 43 l 1
 61 41 l 1
 63 41 l 1
 63 43 l 1
63 39 m 1
 61 39 l 1
 61 37 l 1
 63 37 l 1
 63 39 l 1
57 35 m 1
 56 35 l 1
 56 33 l 1
 58 33 l 1
 58 34 l 1
 57 34 l 1
 57 35 l 1
60 35 m 1
 58 35 l 1
 58 34 l 1
 59 34 l 1
 59 33 l 1
 60 33 l 1
 60 35 l 1
63 35 m 1
 61 35 l 1
 61 33 l 1
 63 33 l 1
 63 35 l 1
31 31 m 1
 29 31 l 1
 29 29 l 1
 31 29 l 1
 31 31 l 1
31 27 m 1
 29 27 l 1
 29 25 l 1
 31 25 l 1
 31 27 l 1
41 31 m 1
 39 31 l 1
 39 29 l 1
 41 29 l 1
 41 31 l 1
41 27 m 1
 39 27 l 1
 39 25 l 1
 41 25 l 1
 41 27 l 1
44 27 m 1
 42 27 l 1
 42 25 l 1
 43 25 l 1
 43 26 l 1
 44 26 l 1
 44 27 l 1
46 27 m 1
 45 27 l 1
 45 26 l 1
 44 26 l 1
 44 25 l 1
 46 25 l 1
 46 27 l 1
49 31 m 1
 47 31 l 1
 47 29 l 1
 49 29 l 1
 49 31 l 1
55 31 m 1
 53 31 l 1
 53 29 l 1
 55 29 l 1
 55 31 l 1
49 27 m 1
 47 27 l 1
 47 25 l 1
 49 25 l 1
 49 27 l 1
55 27 m 1
 53 27 l 1
 53 25 l 1
 55 25 l 1
 55 27 l 1
58 27 m 1
 56 27 l 1
 56 25 l 1
 57 25 l 1
 57 26 l 1
 58 26 l 1
 58 27 l 1
59 26 m 1
 58 26 l 1
 58 25 l 1
 60 25 l 1
 60 27 l 1
 59 27 l 1
 59 26 l 1
63 27 m 1
 61 27 l 1
 61 25 l 1
 63 25 l 1
 63 27 l 1
EndSplineSet
EndChar

StartChar: custom_0_2_0_3_7
Encoding: 20605 20605 637
Width: 70
Flags: H
LayerCount: 2
Fore
SplineSet
17 43 m 1
 15 43 l 1
 15 41 l 1
 17 41 l 1
 17 43 l 1
17 39 m 1
 15 39 l 1
 15 37 l 1
 17 37 l 1
 17 39 l 1
17 35 m 1
 15 35 l 1
 15 33 l 1
 17 33 l 1
 17 35 l 1
17 31 m 1
 15 31 l 1
 15 29 l 1
 17 29 l 1
 17 31 l 1
17 27 m 1
 15 27 l 1
 15 25 l 1
 17 25 l 1
 17 27 l 1
31 43 m 1
 29 43 l 1
 29 41 l 1
 31 41 l 1
 31 43 l 1
31 39 m 1
 29 39 l 1
 29 37 l 1
 31 37 l 1
 31 39 l 1
31 35 m 1
 29 35 l 1
 29 33 l 1
 31 33 l 1
 31 35 l 1
36 37 m 1
 34 37 l 1
 34 35 l 1
 36 35 l 1
 36 37 l 1
36 33 m 1
 34 33 l 1
 34 31 l 1
 36 31 l 1
 36 33 l 1
41 43 m 1
 39 43 l 1
 39 41 l 1
 41 41 l 1
 41 43 l 1
44 43 m 1
 42 43 l 1
 42 41 l 1
 43 41 l 1
 43 42 l 1
 44 42 l 1
 44 43 l 1
46 43 m 1
 45 43 l 1
 45 42 l 1
 44 42 l 1
 44 41 l 1
 46 41 l 1
 46 43 l 1
49 43 m 1
 47 43 l 1
 47 41 l 1
 49 41 l 1
 49 43 l 1
55 43 m 1
 53 43 l 1
 53 41 l 1
 55 41 l 1
 55 43 l 1
41 39 m 1
 39 39 l 1
 39 37 l 1
 41 37 l 1
 41 39 l 1
41 35 m 1
 39 35 l 1
 39 33 l 1
 41 33 l 1
 41 35 l 1
49 39 m 1
 47 39 l 1
 47 37 l 1
 49 37 l 1
 49 39 l 1
49 35 m 1
 47 35 l 1
 47 33 l 1
 49 33 l 1
 49 35 l 1
55 35 m 1
 53 35 l 1
 53 33 l 1
 55 33 l 1
 55 35 l 1
58 43 m 1
 56 43 l 1
 56 41 l 1
 57 41 l 1
 57 42 l 1
 58 42 l 1
 58 43 l 1
59 42 m 1
 58 42 l 1
 58 41 l 1
 60 41 l 1
 60 43 l 1
 59 43 l 1
 59 42 l 1
63 43 m 1
 61 43 l 1
 61 41 l 1
 63 41 l 1
 63 43 l 1
63 39 m 1
 61 39 l 1
 61 37 l 1
 63 37 l 1
 63 39 l 1
57 35 m 1
 56 35 l 1
 56 33 l 1
 58 33 l 1
 58 34 l 1
 57 34 l 1
 57 35 l 1
60 35 m 1
 58 35 l 1
 58 34 l 1
 59 34 l 1
 59 33 l 1
 60 33 l 1
 60 35 l 1
63 35 m 1
 61 35 l 1
 61 33 l 1
 63 33 l 1
 63 35 l 1
31 31 m 1
 29 31 l 1
 29 29 l 1
 31 29 l 1
 31 31 l 1
31 27 m 1
 29 27 l 1
 29 25 l 1
 31 25 l 1
 31 27 l 1
41 31 m 1
 39 31 l 1
 39 29 l 1
 41 29 l 1
 41 31 l 1
41 27 m 1
 39 27 l 1
 39 25 l 1
 41 25 l 1
 41 27 l 1
44 27 m 1
 42 27 l 1
 42 25 l 1
 43 25 l 1
 43 26 l 1
 44 26 l 1
 44 27 l 1
46 27 m 1
 45 27 l 1
 45 26 l 1
 44 26 l 1
 44 25 l 1
 46 25 l 1
 46 27 l 1
49 31 m 1
 47 31 l 1
 47 29 l 1
 49 29 l 1
 49 31 l 1
55 31 m 1
 53 31 l 1
 53 29 l 1
 55 29 l 1
 55 31 l 1
49 27 m 1
 47 27 l 1
 47 25 l 1
 49 25 l 1
 49 27 l 1
55 27 m 1
 53 27 l 1
 53 25 l 1
 55 25 l 1
 55 27 l 1
58 27 m 1
 56 27 l 1
 56 25 l 1
 57 25 l 1
 57 26 l 1
 58 26 l 1
 58 27 l 1
59 26 m 1
 58 26 l 1
 58 25 l 1
 60 25 l 1
 60 27 l 1
 59 27 l 1
 59 26 l 1
63 27 m 1
 61 27 l 1
 61 25 l 1
 63 25 l 1
 63 27 l 1
EndSplineSet
EndChar

StartChar: custom_0_2_0_3_8
Encoding: 20606 20606 638
Width: 70
Flags: H
LayerCount: 2
Fore
SplineSet
17 43 m 1
 15 43 l 1
 15 41 l 1
 17 41 l 1
 17 43 l 1
17 39 m 1
 15 39 l 1
 15 37 l 1
 17 37 l 1
 17 39 l 1
17 35 m 1
 15 35 l 1
 15 33 l 1
 17 33 l 1
 17 35 l 1
17 31 m 1
 15 31 l 1
 15 29 l 1
 17 29 l 1
 17 31 l 1
17 27 m 1
 15 27 l 1
 15 25 l 1
 17 25 l 1
 17 27 l 1
31 43 m 1
 29 43 l 1
 29 41 l 1
 31 41 l 1
 31 43 l 1
31 39 m 1
 29 39 l 1
 29 37 l 1
 31 37 l 1
 31 39 l 1
31 35 m 1
 29 35 l 1
 29 33 l 1
 31 33 l 1
 31 35 l 1
36 37 m 1
 34 37 l 1
 34 35 l 1
 36 35 l 1
 36 37 l 1
36 33 m 1
 34 33 l 1
 34 31 l 1
 36 31 l 1
 36 33 l 1
41 43 m 1
 39 43 l 1
 39 41 l 1
 41 41 l 1
 41 43 l 1
44 43 m 1
 42 43 l 1
 42 41 l 1
 43 41 l 1
 43 42 l 1
 44 42 l 1
 44 43 l 1
46 43 m 1
 45 43 l 1
 45 42 l 1
 44 42 l 1
 44 41 l 1
 46 41 l 1
 46 43 l 1
49 43 m 1
 47 43 l 1
 47 41 l 1
 49 41 l 1
 49 43 l 1
55 43 m 1
 53 43 l 1
 53 41 l 1
 55 41 l 1
 55 43 l 1
41 39 m 1
 39 39 l 1
 39 37 l 1
 41 37 l 1
 41 39 l 1
41 35 m 1
 39 35 l 1
 39 33 l 1
 41 33 l 1
 41 35 l 1
49 39 m 1
 47 39 l 1
 47 37 l 1
 49 37 l 1
 49 39 l 1
49 35 m 1
 47 35 l 1
 47 33 l 1
 49 33 l 1
 49 35 l 1
55 35 m 1
 53 35 l 1
 53 33 l 1
 55 33 l 1
 55 35 l 1
58 43 m 1
 56 43 l 1
 56 41 l 1
 57 41 l 1
 57 42 l 1
 58 42 l 1
 58 43 l 1
59 42 m 1
 58 42 l 1
 58 41 l 1
 60 41 l 1
 60 43 l 1
 59 43 l 1
 59 42 l 1
63 43 m 1
 61 43 l 1
 61 41 l 1
 63 41 l 1
 63 43 l 1
63 39 m 1
 61 39 l 1
 61 37 l 1
 63 37 l 1
 63 39 l 1
57 35 m 1
 56 35 l 1
 56 33 l 1
 58 33 l 1
 58 34 l 1
 57 34 l 1
 57 35 l 1
60 35 m 1
 58 35 l 1
 58 34 l 1
 59 34 l 1
 59 33 l 1
 60 33 l 1
 60 35 l 1
63 35 m 1
 61 35 l 1
 61 33 l 1
 63 33 l 1
 63 35 l 1
31 31 m 1
 29 31 l 1
 29 29 l 1
 31 29 l 1
 31 31 l 1
31 27 m 1
 29 27 l 1
 29 25 l 1
 31 25 l 1
 31 27 l 1
41 31 m 1
 39 31 l 1
 39 29 l 1
 41 29 l 1
 41 31 l 1
41 27 m 1
 39 27 l 1
 39 25 l 1
 41 25 l 1
 41 27 l 1
44 27 m 1
 42 27 l 1
 42 25 l 1
 43 25 l 1
 43 26 l 1
 44 26 l 1
 44 27 l 1
46 27 m 1
 45 27 l 1
 45 26 l 1
 44 26 l 1
 44 25 l 1
 46 25 l 1
 46 27 l 1
49 31 m 1
 47 31 l 1
 47 29 l 1
 49 29 l 1
 49 31 l 1
55 31 m 1
 53 31 l 1
 53 29 l 1
 55 29 l 1
 55 31 l 1
49 27 m 1
 47 27 l 1
 47 25 l 1
 49 25 l 1
 49 27 l 1
55 27 m 1
 53 27 l 1
 53 25 l 1
 55 25 l 1
 55 27 l 1
58 27 m 1
 56 27 l 1
 56 25 l 1
 57 25 l 1
 57 26 l 1
 58 26 l 1
 58 27 l 1
59 26 m 1
 58 26 l 1
 58 25 l 1
 60 25 l 1
 60 27 l 1
 59 27 l 1
 59 26 l 1
63 27 m 1
 61 27 l 1
 61 25 l 1
 63 25 l 1
 63 27 l 1
EndSplineSet
EndChar

StartChar: custom_0_2_0_3_9
Encoding: 20607 20607 639
Width: 70
Flags: H
LayerCount: 2
Fore
SplineSet
17 43 m 1
 15 43 l 1
 15 41 l 1
 17 41 l 1
 17 43 l 1
17 39 m 1
 15 39 l 1
 15 37 l 1
 17 37 l 1
 17 39 l 1
17 35 m 1
 15 35 l 1
 15 33 l 1
 17 33 l 1
 17 35 l 1
17 31 m 1
 15 31 l 1
 15 29 l 1
 17 29 l 1
 17 31 l 1
17 27 m 1
 15 27 l 1
 15 25 l 1
 17 25 l 1
 17 27 l 1
31 43 m 1
 29 43 l 1
 29 41 l 1
 31 41 l 1
 31 43 l 1
31 39 m 1
 29 39 l 1
 29 37 l 1
 31 37 l 1
 31 39 l 1
31 35 m 1
 29 35 l 1
 29 33 l 1
 31 33 l 1
 31 35 l 1
36 37 m 1
 34 37 l 1
 34 35 l 1
 36 35 l 1
 36 37 l 1
36 33 m 1
 34 33 l 1
 34 31 l 1
 36 31 l 1
 36 33 l 1
41 43 m 1
 39 43 l 1
 39 41 l 1
 41 41 l 1
 41 43 l 1
44 43 m 1
 42 43 l 1
 42 41 l 1
 43 41 l 1
 43 42 l 1
 44 42 l 1
 44 43 l 1
46 43 m 1
 45 43 l 1
 45 42 l 1
 44 42 l 1
 44 41 l 1
 46 41 l 1
 46 43 l 1
49 43 m 1
 47 43 l 1
 47 41 l 1
 49 41 l 1
 49 43 l 1
55 43 m 1
 53 43 l 1
 53 41 l 1
 55 41 l 1
 55 43 l 1
41 39 m 1
 39 39 l 1
 39 37 l 1
 41 37 l 1
 41 39 l 1
41 35 m 1
 39 35 l 1
 39 33 l 1
 41 33 l 1
 41 35 l 1
49 39 m 1
 47 39 l 1
 47 37 l 1
 49 37 l 1
 49 39 l 1
49 35 m 1
 47 35 l 1
 47 33 l 1
 49 33 l 1
 49 35 l 1
55 35 m 1
 53 35 l 1
 53 33 l 1
 55 33 l 1
 55 35 l 1
58 43 m 1
 56 43 l 1
 56 41 l 1
 57 41 l 1
 57 42 l 1
 58 42 l 1
 58 43 l 1
59 42 m 1
 58 42 l 1
 58 41 l 1
 60 41 l 1
 60 43 l 1
 59 43 l 1
 59 42 l 1
63 43 m 1
 61 43 l 1
 61 41 l 1
 63 41 l 1
 63 43 l 1
63 39 m 1
 61 39 l 1
 61 37 l 1
 63 37 l 1
 63 39 l 1
57 35 m 1
 56 35 l 1
 56 33 l 1
 58 33 l 1
 58 34 l 1
 57 34 l 1
 57 35 l 1
60 35 m 1
 58 35 l 1
 58 34 l 1
 59 34 l 1
 59 33 l 1
 60 33 l 1
 60 35 l 1
63 35 m 1
 61 35 l 1
 61 33 l 1
 63 33 l 1
 63 35 l 1
31 31 m 1
 29 31 l 1
 29 29 l 1
 31 29 l 1
 31 31 l 1
31 27 m 1
 29 27 l 1
 29 25 l 1
 31 25 l 1
 31 27 l 1
41 31 m 1
 39 31 l 1
 39 29 l 1
 41 29 l 1
 41 31 l 1
41 27 m 1
 39 27 l 1
 39 25 l 1
 41 25 l 1
 41 27 l 1
44 27 m 1
 42 27 l 1
 42 25 l 1
 43 25 l 1
 43 26 l 1
 44 26 l 1
 44 27 l 1
46 27 m 1
 45 27 l 1
 45 26 l 1
 44 26 l 1
 44 25 l 1
 46 25 l 1
 46 27 l 1
49 31 m 1
 47 31 l 1
 47 29 l 1
 49 29 l 1
 49 31 l 1
55 31 m 1
 53 31 l 1
 53 29 l 1
 55 29 l 1
 55 31 l 1
49 27 m 1
 47 27 l 1
 47 25 l 1
 49 25 l 1
 49 27 l 1
55 27 m 1
 53 27 l 1
 53 25 l 1
 55 25 l 1
 55 27 l 1
58 27 m 1
 56 27 l 1
 56 25 l 1
 57 25 l 1
 57 26 l 1
 58 26 l 1
 58 27 l 1
59 26 m 1
 58 26 l 1
 58 25 l 1
 60 25 l 1
 60 27 l 1
 59 27 l 1
 59 26 l 1
63 27 m 1
 61 27 l 1
 61 25 l 1
 63 25 l 1
 63 27 l 1
EndSplineSet
EndChar

StartChar: custom_0_2_0_4_0
Encoding: 20608 20608 640
Width: 70
Flags: H
LayerCount: 2
Fore
SplineSet
17 43 m 1
 15 43 l 1
 15 41 l 1
 17 41 l 1
 17 43 l 1
17 39 m 1
 15 39 l 1
 15 37 l 1
 17 37 l 1
 17 39 l 1
17 35 m 1
 15 35 l 1
 15 33 l 1
 17 33 l 1
 17 35 l 1
17 31 m 1
 15 31 l 1
 15 29 l 1
 17 29 l 1
 17 31 l 1
17 27 m 1
 15 27 l 1
 15 25 l 1
 17 25 l 1
 17 27 l 1
31 43 m 1
 29 43 l 1
 29 41 l 1
 31 41 l 1
 31 43 l 1
31 39 m 1
 29 39 l 1
 29 37 l 1
 31 37 l 1
 31 39 l 1
31 35 m 1
 29 35 l 1
 29 33 l 1
 31 33 l 1
 31 35 l 1
36 37 m 1
 34 37 l 1
 34 35 l 1
 36 35 l 1
 36 37 l 1
36 33 m 1
 34 33 l 1
 34 31 l 1
 36 31 l 1
 36 33 l 1
41 43 m 1
 39 43 l 1
 39 41 l 1
 41 41 l 1
 41 43 l 1
44 43 m 1
 42 43 l 1
 42 41 l 1
 43 41 l 1
 43 42 l 1
 44 42 l 1
 44 43 l 1
46 43 m 1
 45 43 l 1
 45 42 l 1
 44 42 l 1
 44 41 l 1
 46 41 l 1
 46 43 l 1
49 43 m 1
 47 43 l 1
 47 41 l 1
 49 41 l 1
 49 43 l 1
55 43 m 1
 53 43 l 1
 53 41 l 1
 55 41 l 1
 55 43 l 1
41 39 m 1
 39 39 l 1
 39 37 l 1
 41 37 l 1
 41 39 l 1
41 35 m 1
 39 35 l 1
 39 33 l 1
 41 33 l 1
 41 35 l 1
49 39 m 1
 47 39 l 1
 47 37 l 1
 49 37 l 1
 49 39 l 1
49 35 m 1
 47 35 l 1
 47 33 l 1
 49 33 l 1
 49 35 l 1
55 35 m 1
 53 35 l 1
 53 33 l 1
 55 33 l 1
 55 35 l 1
58 43 m 1
 56 43 l 1
 56 41 l 1
 57 41 l 1
 57 42 l 1
 58 42 l 1
 58 43 l 1
59 42 m 1
 58 42 l 1
 58 41 l 1
 60 41 l 1
 60 43 l 1
 59 43 l 1
 59 42 l 1
63 43 m 1
 61 43 l 1
 61 41 l 1
 63 41 l 1
 63 43 l 1
63 39 m 1
 61 39 l 1
 61 37 l 1
 63 37 l 1
 63 39 l 1
57 35 m 1
 56 35 l 1
 56 33 l 1
 58 33 l 1
 58 34 l 1
 57 34 l 1
 57 35 l 1
60 35 m 1
 58 35 l 1
 58 34 l 1
 59 34 l 1
 59 33 l 1
 60 33 l 1
 60 35 l 1
63 35 m 1
 61 35 l 1
 61 33 l 1
 63 33 l 1
 63 35 l 1
31 31 m 1
 29 31 l 1
 29 29 l 1
 31 29 l 1
 31 31 l 1
31 27 m 1
 29 27 l 1
 29 25 l 1
 31 25 l 1
 31 27 l 1
41 31 m 1
 39 31 l 1
 39 29 l 1
 41 29 l 1
 41 31 l 1
41 27 m 1
 39 27 l 1
 39 25 l 1
 41 25 l 1
 41 27 l 1
44 27 m 1
 42 27 l 1
 42 25 l 1
 43 25 l 1
 43 26 l 1
 44 26 l 1
 44 27 l 1
46 27 m 1
 45 27 l 1
 45 26 l 1
 44 26 l 1
 44 25 l 1
 46 25 l 1
 46 27 l 1
49 31 m 1
 47 31 l 1
 47 29 l 1
 49 29 l 1
 49 31 l 1
55 31 m 1
 53 31 l 1
 53 29 l 1
 55 29 l 1
 55 31 l 1
49 27 m 1
 47 27 l 1
 47 25 l 1
 49 25 l 1
 49 27 l 1
55 27 m 1
 53 27 l 1
 53 25 l 1
 55 25 l 1
 55 27 l 1
58 27 m 1
 56 27 l 1
 56 25 l 1
 57 25 l 1
 57 26 l 1
 58 26 l 1
 58 27 l 1
59 26 m 1
 58 26 l 1
 58 25 l 1
 60 25 l 1
 60 27 l 1
 59 27 l 1
 59 26 l 1
63 27 m 1
 61 27 l 1
 61 25 l 1
 63 25 l 1
 63 27 l 1
EndSplineSet
EndChar

StartChar: custom_0_2_0_4_1
Encoding: 20609 20609 641
Width: 70
Flags: H
LayerCount: 2
Fore
SplineSet
17 43 m 1
 15 43 l 1
 15 41 l 1
 17 41 l 1
 17 43 l 1
17 39 m 1
 15 39 l 1
 15 37 l 1
 17 37 l 1
 17 39 l 1
17 35 m 1
 15 35 l 1
 15 33 l 1
 17 33 l 1
 17 35 l 1
17 31 m 1
 15 31 l 1
 15 29 l 1
 17 29 l 1
 17 31 l 1
17 27 m 1
 15 27 l 1
 15 25 l 1
 17 25 l 1
 17 27 l 1
31 43 m 1
 29 43 l 1
 29 41 l 1
 31 41 l 1
 31 43 l 1
31 39 m 1
 29 39 l 1
 29 37 l 1
 31 37 l 1
 31 39 l 1
31 35 m 1
 29 35 l 1
 29 33 l 1
 31 33 l 1
 31 35 l 1
36 37 m 1
 34 37 l 1
 34 35 l 1
 36 35 l 1
 36 37 l 1
36 33 m 1
 34 33 l 1
 34 31 l 1
 36 31 l 1
 36 33 l 1
41 43 m 1
 39 43 l 1
 39 41 l 1
 41 41 l 1
 41 43 l 1
44 43 m 1
 42 43 l 1
 42 41 l 1
 43 41 l 1
 43 42 l 1
 44 42 l 1
 44 43 l 1
46 43 m 1
 45 43 l 1
 45 42 l 1
 44 42 l 1
 44 41 l 1
 46 41 l 1
 46 43 l 1
49 43 m 1
 47 43 l 1
 47 41 l 1
 49 41 l 1
 49 43 l 1
55 43 m 1
 53 43 l 1
 53 41 l 1
 55 41 l 1
 55 43 l 1
41 39 m 1
 39 39 l 1
 39 37 l 1
 41 37 l 1
 41 39 l 1
41 35 m 1
 39 35 l 1
 39 33 l 1
 41 33 l 1
 41 35 l 1
49 39 m 1
 47 39 l 1
 47 37 l 1
 49 37 l 1
 49 39 l 1
49 35 m 1
 47 35 l 1
 47 33 l 1
 49 33 l 1
 49 35 l 1
55 35 m 1
 53 35 l 1
 53 33 l 1
 55 33 l 1
 55 35 l 1
58 43 m 1
 56 43 l 1
 56 41 l 1
 57 41 l 1
 57 42 l 1
 58 42 l 1
 58 43 l 1
59 42 m 1
 58 42 l 1
 58 41 l 1
 60 41 l 1
 60 43 l 1
 59 43 l 1
 59 42 l 1
63 43 m 1
 61 43 l 1
 61 41 l 1
 63 41 l 1
 63 43 l 1
63 39 m 1
 61 39 l 1
 61 37 l 1
 63 37 l 1
 63 39 l 1
57 35 m 1
 56 35 l 1
 56 33 l 1
 58 33 l 1
 58 34 l 1
 57 34 l 1
 57 35 l 1
60 35 m 1
 58 35 l 1
 58 34 l 1
 59 34 l 1
 59 33 l 1
 60 33 l 1
 60 35 l 1
63 35 m 1
 61 35 l 1
 61 33 l 1
 63 33 l 1
 63 35 l 1
31 31 m 1
 29 31 l 1
 29 29 l 1
 31 29 l 1
 31 31 l 1
31 27 m 1
 29 27 l 1
 29 25 l 1
 31 25 l 1
 31 27 l 1
41 31 m 1
 39 31 l 1
 39 29 l 1
 41 29 l 1
 41 31 l 1
41 27 m 1
 39 27 l 1
 39 25 l 1
 41 25 l 1
 41 27 l 1
44 27 m 1
 42 27 l 1
 42 25 l 1
 43 25 l 1
 43 26 l 1
 44 26 l 1
 44 27 l 1
46 27 m 1
 45 27 l 1
 45 26 l 1
 44 26 l 1
 44 25 l 1
 46 25 l 1
 46 27 l 1
49 31 m 1
 47 31 l 1
 47 29 l 1
 49 29 l 1
 49 31 l 1
55 31 m 1
 53 31 l 1
 53 29 l 1
 55 29 l 1
 55 31 l 1
49 27 m 1
 47 27 l 1
 47 25 l 1
 49 25 l 1
 49 27 l 1
55 27 m 1
 53 27 l 1
 53 25 l 1
 55 25 l 1
 55 27 l 1
58 27 m 1
 56 27 l 1
 56 25 l 1
 57 25 l 1
 57 26 l 1
 58 26 l 1
 58 27 l 1
59 26 m 1
 58 26 l 1
 58 25 l 1
 60 25 l 1
 60 27 l 1
 59 27 l 1
 59 26 l 1
63 27 m 1
 61 27 l 1
 61 25 l 1
 63 25 l 1
 63 27 l 1
EndSplineSet
EndChar

StartChar: custom_0_2_0_4_2
Encoding: 20610 20610 642
Width: 70
Flags: H
LayerCount: 2
Fore
SplineSet
17 43 m 1
 15 43 l 1
 15 41 l 1
 17 41 l 1
 17 43 l 1
17 39 m 1
 15 39 l 1
 15 37 l 1
 17 37 l 1
 17 39 l 1
17 35 m 1
 15 35 l 1
 15 33 l 1
 17 33 l 1
 17 35 l 1
17 31 m 1
 15 31 l 1
 15 29 l 1
 17 29 l 1
 17 31 l 1
17 27 m 1
 15 27 l 1
 15 25 l 1
 17 25 l 1
 17 27 l 1
31 43 m 1
 29 43 l 1
 29 41 l 1
 31 41 l 1
 31 43 l 1
31 39 m 1
 29 39 l 1
 29 37 l 1
 31 37 l 1
 31 39 l 1
31 35 m 1
 29 35 l 1
 29 33 l 1
 31 33 l 1
 31 35 l 1
36 37 m 1
 34 37 l 1
 34 35 l 1
 36 35 l 1
 36 37 l 1
36 33 m 1
 34 33 l 1
 34 31 l 1
 36 31 l 1
 36 33 l 1
41 43 m 1
 39 43 l 1
 39 41 l 1
 41 41 l 1
 41 43 l 1
44 43 m 1
 42 43 l 1
 42 41 l 1
 43 41 l 1
 43 42 l 1
 44 42 l 1
 44 43 l 1
46 43 m 1
 45 43 l 1
 45 42 l 1
 44 42 l 1
 44 41 l 1
 46 41 l 1
 46 43 l 1
49 43 m 1
 47 43 l 1
 47 41 l 1
 49 41 l 1
 49 43 l 1
55 43 m 1
 53 43 l 1
 53 41 l 1
 55 41 l 1
 55 43 l 1
41 39 m 1
 39 39 l 1
 39 37 l 1
 41 37 l 1
 41 39 l 1
41 35 m 1
 39 35 l 1
 39 33 l 1
 41 33 l 1
 41 35 l 1
49 39 m 1
 47 39 l 1
 47 37 l 1
 49 37 l 1
 49 39 l 1
49 35 m 1
 47 35 l 1
 47 33 l 1
 49 33 l 1
 49 35 l 1
55 35 m 1
 53 35 l 1
 53 33 l 1
 55 33 l 1
 55 35 l 1
58 43 m 1
 56 43 l 1
 56 41 l 1
 57 41 l 1
 57 42 l 1
 58 42 l 1
 58 43 l 1
59 42 m 1
 58 42 l 1
 58 41 l 1
 60 41 l 1
 60 43 l 1
 59 43 l 1
 59 42 l 1
63 43 m 1
 61 43 l 1
 61 41 l 1
 63 41 l 1
 63 43 l 1
63 39 m 1
 61 39 l 1
 61 37 l 1
 63 37 l 1
 63 39 l 1
57 35 m 1
 56 35 l 1
 56 33 l 1
 58 33 l 1
 58 34 l 1
 57 34 l 1
 57 35 l 1
60 35 m 1
 58 35 l 1
 58 34 l 1
 59 34 l 1
 59 33 l 1
 60 33 l 1
 60 35 l 1
63 35 m 1
 61 35 l 1
 61 33 l 1
 63 33 l 1
 63 35 l 1
31 31 m 1
 29 31 l 1
 29 29 l 1
 31 29 l 1
 31 31 l 1
31 27 m 1
 29 27 l 1
 29 25 l 1
 31 25 l 1
 31 27 l 1
41 31 m 1
 39 31 l 1
 39 29 l 1
 41 29 l 1
 41 31 l 1
41 27 m 1
 39 27 l 1
 39 25 l 1
 41 25 l 1
 41 27 l 1
44 27 m 1
 42 27 l 1
 42 25 l 1
 43 25 l 1
 43 26 l 1
 44 26 l 1
 44 27 l 1
46 27 m 1
 45 27 l 1
 45 26 l 1
 44 26 l 1
 44 25 l 1
 46 25 l 1
 46 27 l 1
49 31 m 1
 47 31 l 1
 47 29 l 1
 49 29 l 1
 49 31 l 1
55 31 m 1
 53 31 l 1
 53 29 l 1
 55 29 l 1
 55 31 l 1
49 27 m 1
 47 27 l 1
 47 25 l 1
 49 25 l 1
 49 27 l 1
55 27 m 1
 53 27 l 1
 53 25 l 1
 55 25 l 1
 55 27 l 1
58 27 m 1
 56 27 l 1
 56 25 l 1
 57 25 l 1
 57 26 l 1
 58 26 l 1
 58 27 l 1
59 26 m 1
 58 26 l 1
 58 25 l 1
 60 25 l 1
 60 27 l 1
 59 27 l 1
 59 26 l 1
63 27 m 1
 61 27 l 1
 61 25 l 1
 63 25 l 1
 63 27 l 1
EndSplineSet
EndChar

StartChar: custom_0_2_0_4_3
Encoding: 20611 20611 643
Width: 70
Flags: H
LayerCount: 2
Fore
SplineSet
17 43 m 1
 15 43 l 1
 15 41 l 1
 17 41 l 1
 17 43 l 1
17 39 m 1
 15 39 l 1
 15 37 l 1
 17 37 l 1
 17 39 l 1
17 35 m 1
 15 35 l 1
 15 33 l 1
 17 33 l 1
 17 35 l 1
17 31 m 1
 15 31 l 1
 15 29 l 1
 17 29 l 1
 17 31 l 1
17 27 m 1
 15 27 l 1
 15 25 l 1
 17 25 l 1
 17 27 l 1
31 43 m 1
 29 43 l 1
 29 41 l 1
 31 41 l 1
 31 43 l 1
31 39 m 1
 29 39 l 1
 29 37 l 1
 31 37 l 1
 31 39 l 1
31 35 m 1
 29 35 l 1
 29 33 l 1
 31 33 l 1
 31 35 l 1
36 37 m 1
 34 37 l 1
 34 35 l 1
 36 35 l 1
 36 37 l 1
36 33 m 1
 34 33 l 1
 34 31 l 1
 36 31 l 1
 36 33 l 1
41 43 m 1
 39 43 l 1
 39 41 l 1
 41 41 l 1
 41 43 l 1
44 43 m 1
 42 43 l 1
 42 41 l 1
 43 41 l 1
 43 42 l 1
 44 42 l 1
 44 43 l 1
46 43 m 1
 45 43 l 1
 45 42 l 1
 44 42 l 1
 44 41 l 1
 46 41 l 1
 46 43 l 1
49 43 m 1
 47 43 l 1
 47 41 l 1
 49 41 l 1
 49 43 l 1
55 43 m 1
 53 43 l 1
 53 41 l 1
 55 41 l 1
 55 43 l 1
41 39 m 1
 39 39 l 1
 39 37 l 1
 41 37 l 1
 41 39 l 1
41 35 m 1
 39 35 l 1
 39 33 l 1
 41 33 l 1
 41 35 l 1
49 39 m 1
 47 39 l 1
 47 37 l 1
 49 37 l 1
 49 39 l 1
49 35 m 1
 47 35 l 1
 47 33 l 1
 49 33 l 1
 49 35 l 1
55 35 m 1
 53 35 l 1
 53 33 l 1
 55 33 l 1
 55 35 l 1
58 43 m 1
 56 43 l 1
 56 41 l 1
 57 41 l 1
 57 42 l 1
 58 42 l 1
 58 43 l 1
59 42 m 1
 58 42 l 1
 58 41 l 1
 60 41 l 1
 60 43 l 1
 59 43 l 1
 59 42 l 1
63 43 m 1
 61 43 l 1
 61 41 l 1
 63 41 l 1
 63 43 l 1
63 39 m 1
 61 39 l 1
 61 37 l 1
 63 37 l 1
 63 39 l 1
57 35 m 1
 56 35 l 1
 56 33 l 1
 58 33 l 1
 58 34 l 1
 57 34 l 1
 57 35 l 1
60 35 m 1
 58 35 l 1
 58 34 l 1
 59 34 l 1
 59 33 l 1
 60 33 l 1
 60 35 l 1
63 35 m 1
 61 35 l 1
 61 33 l 1
 63 33 l 1
 63 35 l 1
31 31 m 1
 29 31 l 1
 29 29 l 1
 31 29 l 1
 31 31 l 1
31 27 m 1
 29 27 l 1
 29 25 l 1
 31 25 l 1
 31 27 l 1
41 31 m 1
 39 31 l 1
 39 29 l 1
 41 29 l 1
 41 31 l 1
41 27 m 1
 39 27 l 1
 39 25 l 1
 41 25 l 1
 41 27 l 1
44 27 m 1
 42 27 l 1
 42 25 l 1
 43 25 l 1
 43 26 l 1
 44 26 l 1
 44 27 l 1
46 27 m 1
 45 27 l 1
 45 26 l 1
 44 26 l 1
 44 25 l 1
 46 25 l 1
 46 27 l 1
49 31 m 1
 47 31 l 1
 47 29 l 1
 49 29 l 1
 49 31 l 1
55 31 m 1
 53 31 l 1
 53 29 l 1
 55 29 l 1
 55 31 l 1
49 27 m 1
 47 27 l 1
 47 25 l 1
 49 25 l 1
 49 27 l 1
55 27 m 1
 53 27 l 1
 53 25 l 1
 55 25 l 1
 55 27 l 1
58 27 m 1
 56 27 l 1
 56 25 l 1
 57 25 l 1
 57 26 l 1
 58 26 l 1
 58 27 l 1
59 26 m 1
 58 26 l 1
 58 25 l 1
 60 25 l 1
 60 27 l 1
 59 27 l 1
 59 26 l 1
63 27 m 1
 61 27 l 1
 61 25 l 1
 63 25 l 1
 63 27 l 1
EndSplineSet
EndChar

StartChar: custom_0_2_0_4_4
Encoding: 20612 20612 644
Width: 70
Flags: H
LayerCount: 2
Fore
SplineSet
17 43 m 1
 15 43 l 1
 15 41 l 1
 17 41 l 1
 17 43 l 1
17 39 m 1
 15 39 l 1
 15 37 l 1
 17 37 l 1
 17 39 l 1
17 35 m 1
 15 35 l 1
 15 33 l 1
 17 33 l 1
 17 35 l 1
17 31 m 1
 15 31 l 1
 15 29 l 1
 17 29 l 1
 17 31 l 1
17 27 m 1
 15 27 l 1
 15 25 l 1
 17 25 l 1
 17 27 l 1
31 43 m 1
 29 43 l 1
 29 41 l 1
 31 41 l 1
 31 43 l 1
31 39 m 1
 29 39 l 1
 29 37 l 1
 31 37 l 1
 31 39 l 1
31 35 m 1
 29 35 l 1
 29 33 l 1
 31 33 l 1
 31 35 l 1
36 37 m 1
 34 37 l 1
 34 35 l 1
 36 35 l 1
 36 37 l 1
36 33 m 1
 34 33 l 1
 34 31 l 1
 36 31 l 1
 36 33 l 1
41 43 m 1
 39 43 l 1
 39 41 l 1
 41 41 l 1
 41 43 l 1
44 43 m 1
 42 43 l 1
 42 41 l 1
 43 41 l 1
 43 42 l 1
 44 42 l 1
 44 43 l 1
46 43 m 1
 45 43 l 1
 45 42 l 1
 44 42 l 1
 44 41 l 1
 46 41 l 1
 46 43 l 1
49 43 m 1
 47 43 l 1
 47 41 l 1
 49 41 l 1
 49 43 l 1
55 43 m 1
 53 43 l 1
 53 41 l 1
 55 41 l 1
 55 43 l 1
41 39 m 1
 39 39 l 1
 39 37 l 1
 41 37 l 1
 41 39 l 1
41 35 m 1
 39 35 l 1
 39 33 l 1
 41 33 l 1
 41 35 l 1
49 39 m 1
 47 39 l 1
 47 37 l 1
 49 37 l 1
 49 39 l 1
49 35 m 1
 47 35 l 1
 47 33 l 1
 49 33 l 1
 49 35 l 1
55 35 m 1
 53 35 l 1
 53 33 l 1
 55 33 l 1
 55 35 l 1
58 43 m 1
 56 43 l 1
 56 41 l 1
 57 41 l 1
 57 42 l 1
 58 42 l 1
 58 43 l 1
59 42 m 1
 58 42 l 1
 58 41 l 1
 60 41 l 1
 60 43 l 1
 59 43 l 1
 59 42 l 1
63 43 m 1
 61 43 l 1
 61 41 l 1
 63 41 l 1
 63 43 l 1
63 39 m 1
 61 39 l 1
 61 37 l 1
 63 37 l 1
 63 39 l 1
57 35 m 1
 56 35 l 1
 56 33 l 1
 58 33 l 1
 58 34 l 1
 57 34 l 1
 57 35 l 1
60 35 m 1
 58 35 l 1
 58 34 l 1
 59 34 l 1
 59 33 l 1
 60 33 l 1
 60 35 l 1
63 35 m 1
 61 35 l 1
 61 33 l 1
 63 33 l 1
 63 35 l 1
31 31 m 1
 29 31 l 1
 29 29 l 1
 31 29 l 1
 31 31 l 1
31 27 m 1
 29 27 l 1
 29 25 l 1
 31 25 l 1
 31 27 l 1
41 31 m 1
 39 31 l 1
 39 29 l 1
 41 29 l 1
 41 31 l 1
41 27 m 1
 39 27 l 1
 39 25 l 1
 41 25 l 1
 41 27 l 1
44 27 m 1
 42 27 l 1
 42 25 l 1
 43 25 l 1
 43 26 l 1
 44 26 l 1
 44 27 l 1
46 27 m 1
 45 27 l 1
 45 26 l 1
 44 26 l 1
 44 25 l 1
 46 25 l 1
 46 27 l 1
49 31 m 1
 47 31 l 1
 47 29 l 1
 49 29 l 1
 49 31 l 1
55 31 m 1
 53 31 l 1
 53 29 l 1
 55 29 l 1
 55 31 l 1
49 27 m 1
 47 27 l 1
 47 25 l 1
 49 25 l 1
 49 27 l 1
55 27 m 1
 53 27 l 1
 53 25 l 1
 55 25 l 1
 55 27 l 1
58 27 m 1
 56 27 l 1
 56 25 l 1
 57 25 l 1
 57 26 l 1
 58 26 l 1
 58 27 l 1
59 26 m 1
 58 26 l 1
 58 25 l 1
 60 25 l 1
 60 27 l 1
 59 27 l 1
 59 26 l 1
63 27 m 1
 61 27 l 1
 61 25 l 1
 63 25 l 1
 63 27 l 1
EndSplineSet
EndChar

StartChar: custom_0_2_0_4_5
Encoding: 20613 20613 645
Width: 70
Flags: H
LayerCount: 2
Fore
SplineSet
17 43 m 1
 15 43 l 1
 15 41 l 1
 17 41 l 1
 17 43 l 1
17 39 m 1
 15 39 l 1
 15 37 l 1
 17 37 l 1
 17 39 l 1
17 35 m 1
 15 35 l 1
 15 33 l 1
 17 33 l 1
 17 35 l 1
17 31 m 1
 15 31 l 1
 15 29 l 1
 17 29 l 1
 17 31 l 1
17 27 m 1
 15 27 l 1
 15 25 l 1
 17 25 l 1
 17 27 l 1
31 43 m 1
 29 43 l 1
 29 41 l 1
 31 41 l 1
 31 43 l 1
31 39 m 1
 29 39 l 1
 29 37 l 1
 31 37 l 1
 31 39 l 1
31 35 m 1
 29 35 l 1
 29 33 l 1
 31 33 l 1
 31 35 l 1
36 37 m 1
 34 37 l 1
 34 35 l 1
 36 35 l 1
 36 37 l 1
36 33 m 1
 34 33 l 1
 34 31 l 1
 36 31 l 1
 36 33 l 1
41 43 m 1
 39 43 l 1
 39 41 l 1
 41 41 l 1
 41 43 l 1
44 43 m 1
 42 43 l 1
 42 41 l 1
 43 41 l 1
 43 42 l 1
 44 42 l 1
 44 43 l 1
46 43 m 1
 45 43 l 1
 45 42 l 1
 44 42 l 1
 44 41 l 1
 46 41 l 1
 46 43 l 1
49 43 m 1
 47 43 l 1
 47 41 l 1
 49 41 l 1
 49 43 l 1
55 43 m 1
 53 43 l 1
 53 41 l 1
 55 41 l 1
 55 43 l 1
41 39 m 1
 39 39 l 1
 39 37 l 1
 41 37 l 1
 41 39 l 1
41 35 m 1
 39 35 l 1
 39 33 l 1
 41 33 l 1
 41 35 l 1
49 39 m 1
 47 39 l 1
 47 37 l 1
 49 37 l 1
 49 39 l 1
49 35 m 1
 47 35 l 1
 47 33 l 1
 49 33 l 1
 49 35 l 1
55 35 m 1
 53 35 l 1
 53 33 l 1
 55 33 l 1
 55 35 l 1
58 43 m 1
 56 43 l 1
 56 41 l 1
 57 41 l 1
 57 42 l 1
 58 42 l 1
 58 43 l 1
59 42 m 1
 58 42 l 1
 58 41 l 1
 60 41 l 1
 60 43 l 1
 59 43 l 1
 59 42 l 1
63 43 m 1
 61 43 l 1
 61 41 l 1
 63 41 l 1
 63 43 l 1
63 39 m 1
 61 39 l 1
 61 37 l 1
 63 37 l 1
 63 39 l 1
57 35 m 1
 56 35 l 1
 56 33 l 1
 58 33 l 1
 58 34 l 1
 57 34 l 1
 57 35 l 1
60 35 m 1
 58 35 l 1
 58 34 l 1
 59 34 l 1
 59 33 l 1
 60 33 l 1
 60 35 l 1
63 35 m 1
 61 35 l 1
 61 33 l 1
 63 33 l 1
 63 35 l 1
31 31 m 1
 29 31 l 1
 29 29 l 1
 31 29 l 1
 31 31 l 1
31 27 m 1
 29 27 l 1
 29 25 l 1
 31 25 l 1
 31 27 l 1
41 31 m 1
 39 31 l 1
 39 29 l 1
 41 29 l 1
 41 31 l 1
41 27 m 1
 39 27 l 1
 39 25 l 1
 41 25 l 1
 41 27 l 1
44 27 m 1
 42 27 l 1
 42 25 l 1
 43 25 l 1
 43 26 l 1
 44 26 l 1
 44 27 l 1
46 27 m 1
 45 27 l 1
 45 26 l 1
 44 26 l 1
 44 25 l 1
 46 25 l 1
 46 27 l 1
49 31 m 1
 47 31 l 1
 47 29 l 1
 49 29 l 1
 49 31 l 1
55 31 m 1
 53 31 l 1
 53 29 l 1
 55 29 l 1
 55 31 l 1
49 27 m 1
 47 27 l 1
 47 25 l 1
 49 25 l 1
 49 27 l 1
55 27 m 1
 53 27 l 1
 53 25 l 1
 55 25 l 1
 55 27 l 1
58 27 m 1
 56 27 l 1
 56 25 l 1
 57 25 l 1
 57 26 l 1
 58 26 l 1
 58 27 l 1
59 26 m 1
 58 26 l 1
 58 25 l 1
 60 25 l 1
 60 27 l 1
 59 27 l 1
 59 26 l 1
63 27 m 1
 61 27 l 1
 61 25 l 1
 63 25 l 1
 63 27 l 1
EndSplineSet
EndChar

StartChar: custom_0_2_0_4_6
Encoding: 20614 20614 646
Width: 70
Flags: H
LayerCount: 2
Fore
SplineSet
17 43 m 1
 15 43 l 1
 15 41 l 1
 17 41 l 1
 17 43 l 1
17 39 m 1
 15 39 l 1
 15 37 l 1
 17 37 l 1
 17 39 l 1
17 35 m 1
 15 35 l 1
 15 33 l 1
 17 33 l 1
 17 35 l 1
17 31 m 1
 15 31 l 1
 15 29 l 1
 17 29 l 1
 17 31 l 1
17 27 m 1
 15 27 l 1
 15 25 l 1
 17 25 l 1
 17 27 l 1
31 43 m 1
 29 43 l 1
 29 41 l 1
 31 41 l 1
 31 43 l 1
31 39 m 1
 29 39 l 1
 29 37 l 1
 31 37 l 1
 31 39 l 1
31 35 m 1
 29 35 l 1
 29 33 l 1
 31 33 l 1
 31 35 l 1
36 37 m 1
 34 37 l 1
 34 35 l 1
 36 35 l 1
 36 37 l 1
36 33 m 1
 34 33 l 1
 34 31 l 1
 36 31 l 1
 36 33 l 1
41 43 m 1
 39 43 l 1
 39 41 l 1
 41 41 l 1
 41 43 l 1
44 43 m 1
 42 43 l 1
 42 41 l 1
 43 41 l 1
 43 42 l 1
 44 42 l 1
 44 43 l 1
46 43 m 1
 45 43 l 1
 45 42 l 1
 44 42 l 1
 44 41 l 1
 46 41 l 1
 46 43 l 1
49 43 m 1
 47 43 l 1
 47 41 l 1
 49 41 l 1
 49 43 l 1
55 43 m 1
 53 43 l 1
 53 41 l 1
 55 41 l 1
 55 43 l 1
41 39 m 1
 39 39 l 1
 39 37 l 1
 41 37 l 1
 41 39 l 1
41 35 m 1
 39 35 l 1
 39 33 l 1
 41 33 l 1
 41 35 l 1
49 39 m 1
 47 39 l 1
 47 37 l 1
 49 37 l 1
 49 39 l 1
49 35 m 1
 47 35 l 1
 47 33 l 1
 49 33 l 1
 49 35 l 1
55 35 m 1
 53 35 l 1
 53 33 l 1
 55 33 l 1
 55 35 l 1
58 43 m 1
 56 43 l 1
 56 41 l 1
 57 41 l 1
 57 42 l 1
 58 42 l 1
 58 43 l 1
59 42 m 1
 58 42 l 1
 58 41 l 1
 60 41 l 1
 60 43 l 1
 59 43 l 1
 59 42 l 1
63 43 m 1
 61 43 l 1
 61 41 l 1
 63 41 l 1
 63 43 l 1
63 39 m 1
 61 39 l 1
 61 37 l 1
 63 37 l 1
 63 39 l 1
57 35 m 1
 56 35 l 1
 56 33 l 1
 58 33 l 1
 58 34 l 1
 57 34 l 1
 57 35 l 1
60 35 m 1
 58 35 l 1
 58 34 l 1
 59 34 l 1
 59 33 l 1
 60 33 l 1
 60 35 l 1
63 35 m 1
 61 35 l 1
 61 33 l 1
 63 33 l 1
 63 35 l 1
31 31 m 1
 29 31 l 1
 29 29 l 1
 31 29 l 1
 31 31 l 1
31 27 m 1
 29 27 l 1
 29 25 l 1
 31 25 l 1
 31 27 l 1
41 31 m 1
 39 31 l 1
 39 29 l 1
 41 29 l 1
 41 31 l 1
41 27 m 1
 39 27 l 1
 39 25 l 1
 41 25 l 1
 41 27 l 1
44 27 m 1
 42 27 l 1
 42 25 l 1
 43 25 l 1
 43 26 l 1
 44 26 l 1
 44 27 l 1
46 27 m 1
 45 27 l 1
 45 26 l 1
 44 26 l 1
 44 25 l 1
 46 25 l 1
 46 27 l 1
49 31 m 1
 47 31 l 1
 47 29 l 1
 49 29 l 1
 49 31 l 1
55 31 m 1
 53 31 l 1
 53 29 l 1
 55 29 l 1
 55 31 l 1
49 27 m 1
 47 27 l 1
 47 25 l 1
 49 25 l 1
 49 27 l 1
55 27 m 1
 53 27 l 1
 53 25 l 1
 55 25 l 1
 55 27 l 1
58 27 m 1
 56 27 l 1
 56 25 l 1
 57 25 l 1
 57 26 l 1
 58 26 l 1
 58 27 l 1
59 26 m 1
 58 26 l 1
 58 25 l 1
 60 25 l 1
 60 27 l 1
 59 27 l 1
 59 26 l 1
63 27 m 1
 61 27 l 1
 61 25 l 1
 63 25 l 1
 63 27 l 1
EndSplineSet
EndChar

StartChar: custom_0_2_0_4_7
Encoding: 20615 20615 647
Width: 70
Flags: H
LayerCount: 2
Fore
SplineSet
17 43 m 1
 15 43 l 1
 15 41 l 1
 17 41 l 1
 17 43 l 1
17 39 m 1
 15 39 l 1
 15 37 l 1
 17 37 l 1
 17 39 l 1
17 35 m 1
 15 35 l 1
 15 33 l 1
 17 33 l 1
 17 35 l 1
17 31 m 1
 15 31 l 1
 15 29 l 1
 17 29 l 1
 17 31 l 1
17 27 m 1
 15 27 l 1
 15 25 l 1
 17 25 l 1
 17 27 l 1
31 43 m 1
 29 43 l 1
 29 41 l 1
 31 41 l 1
 31 43 l 1
31 39 m 1
 29 39 l 1
 29 37 l 1
 31 37 l 1
 31 39 l 1
31 35 m 1
 29 35 l 1
 29 33 l 1
 31 33 l 1
 31 35 l 1
36 37 m 1
 34 37 l 1
 34 35 l 1
 36 35 l 1
 36 37 l 1
36 33 m 1
 34 33 l 1
 34 31 l 1
 36 31 l 1
 36 33 l 1
41 43 m 1
 39 43 l 1
 39 41 l 1
 41 41 l 1
 41 43 l 1
44 43 m 1
 42 43 l 1
 42 41 l 1
 43 41 l 1
 43 42 l 1
 44 42 l 1
 44 43 l 1
46 43 m 1
 45 43 l 1
 45 42 l 1
 44 42 l 1
 44 41 l 1
 46 41 l 1
 46 43 l 1
49 43 m 1
 47 43 l 1
 47 41 l 1
 49 41 l 1
 49 43 l 1
55 43 m 1
 53 43 l 1
 53 41 l 1
 55 41 l 1
 55 43 l 1
41 39 m 1
 39 39 l 1
 39 37 l 1
 41 37 l 1
 41 39 l 1
41 35 m 1
 39 35 l 1
 39 33 l 1
 41 33 l 1
 41 35 l 1
49 39 m 1
 47 39 l 1
 47 37 l 1
 49 37 l 1
 49 39 l 1
49 35 m 1
 47 35 l 1
 47 33 l 1
 49 33 l 1
 49 35 l 1
55 35 m 1
 53 35 l 1
 53 33 l 1
 55 33 l 1
 55 35 l 1
58 43 m 1
 56 43 l 1
 56 41 l 1
 57 41 l 1
 57 42 l 1
 58 42 l 1
 58 43 l 1
59 42 m 1
 58 42 l 1
 58 41 l 1
 60 41 l 1
 60 43 l 1
 59 43 l 1
 59 42 l 1
63 43 m 1
 61 43 l 1
 61 41 l 1
 63 41 l 1
 63 43 l 1
63 39 m 1
 61 39 l 1
 61 37 l 1
 63 37 l 1
 63 39 l 1
57 35 m 1
 56 35 l 1
 56 33 l 1
 58 33 l 1
 58 34 l 1
 57 34 l 1
 57 35 l 1
60 35 m 1
 58 35 l 1
 58 34 l 1
 59 34 l 1
 59 33 l 1
 60 33 l 1
 60 35 l 1
63 35 m 1
 61 35 l 1
 61 33 l 1
 63 33 l 1
 63 35 l 1
31 31 m 1
 29 31 l 1
 29 29 l 1
 31 29 l 1
 31 31 l 1
31 27 m 1
 29 27 l 1
 29 25 l 1
 31 25 l 1
 31 27 l 1
41 31 m 1
 39 31 l 1
 39 29 l 1
 41 29 l 1
 41 31 l 1
41 27 m 1
 39 27 l 1
 39 25 l 1
 41 25 l 1
 41 27 l 1
44 27 m 1
 42 27 l 1
 42 25 l 1
 43 25 l 1
 43 26 l 1
 44 26 l 1
 44 27 l 1
46 27 m 1
 45 27 l 1
 45 26 l 1
 44 26 l 1
 44 25 l 1
 46 25 l 1
 46 27 l 1
49 31 m 1
 47 31 l 1
 47 29 l 1
 49 29 l 1
 49 31 l 1
55 31 m 1
 53 31 l 1
 53 29 l 1
 55 29 l 1
 55 31 l 1
49 27 m 1
 47 27 l 1
 47 25 l 1
 49 25 l 1
 49 27 l 1
55 27 m 1
 53 27 l 1
 53 25 l 1
 55 25 l 1
 55 27 l 1
58 27 m 1
 56 27 l 1
 56 25 l 1
 57 25 l 1
 57 26 l 1
 58 26 l 1
 58 27 l 1
59 26 m 1
 58 26 l 1
 58 25 l 1
 60 25 l 1
 60 27 l 1
 59 27 l 1
 59 26 l 1
63 27 m 1
 61 27 l 1
 61 25 l 1
 63 25 l 1
 63 27 l 1
EndSplineSet
EndChar

StartChar: custom_0_2_0_4_8
Encoding: 20616 20616 648
Width: 70
Flags: H
LayerCount: 2
Fore
SplineSet
17 43 m 1
 15 43 l 1
 15 41 l 1
 17 41 l 1
 17 43 l 1
17 39 m 1
 15 39 l 1
 15 37 l 1
 17 37 l 1
 17 39 l 1
17 35 m 1
 15 35 l 1
 15 33 l 1
 17 33 l 1
 17 35 l 1
17 31 m 1
 15 31 l 1
 15 29 l 1
 17 29 l 1
 17 31 l 1
17 27 m 1
 15 27 l 1
 15 25 l 1
 17 25 l 1
 17 27 l 1
31 43 m 1
 29 43 l 1
 29 41 l 1
 31 41 l 1
 31 43 l 1
31 39 m 1
 29 39 l 1
 29 37 l 1
 31 37 l 1
 31 39 l 1
31 35 m 1
 29 35 l 1
 29 33 l 1
 31 33 l 1
 31 35 l 1
36 37 m 1
 34 37 l 1
 34 35 l 1
 36 35 l 1
 36 37 l 1
36 33 m 1
 34 33 l 1
 34 31 l 1
 36 31 l 1
 36 33 l 1
41 43 m 1
 39 43 l 1
 39 41 l 1
 41 41 l 1
 41 43 l 1
44 43 m 1
 42 43 l 1
 42 41 l 1
 43 41 l 1
 43 42 l 1
 44 42 l 1
 44 43 l 1
46 43 m 1
 45 43 l 1
 45 42 l 1
 44 42 l 1
 44 41 l 1
 46 41 l 1
 46 43 l 1
49 43 m 1
 47 43 l 1
 47 41 l 1
 49 41 l 1
 49 43 l 1
55 43 m 1
 53 43 l 1
 53 41 l 1
 55 41 l 1
 55 43 l 1
41 39 m 1
 39 39 l 1
 39 37 l 1
 41 37 l 1
 41 39 l 1
41 35 m 1
 39 35 l 1
 39 33 l 1
 41 33 l 1
 41 35 l 1
49 39 m 1
 47 39 l 1
 47 37 l 1
 49 37 l 1
 49 39 l 1
49 35 m 1
 47 35 l 1
 47 33 l 1
 49 33 l 1
 49 35 l 1
55 35 m 1
 53 35 l 1
 53 33 l 1
 55 33 l 1
 55 35 l 1
58 43 m 1
 56 43 l 1
 56 41 l 1
 57 41 l 1
 57 42 l 1
 58 42 l 1
 58 43 l 1
59 42 m 1
 58 42 l 1
 58 41 l 1
 60 41 l 1
 60 43 l 1
 59 43 l 1
 59 42 l 1
63 43 m 1
 61 43 l 1
 61 41 l 1
 63 41 l 1
 63 43 l 1
63 39 m 1
 61 39 l 1
 61 37 l 1
 63 37 l 1
 63 39 l 1
57 35 m 1
 56 35 l 1
 56 33 l 1
 58 33 l 1
 58 34 l 1
 57 34 l 1
 57 35 l 1
60 35 m 1
 58 35 l 1
 58 34 l 1
 59 34 l 1
 59 33 l 1
 60 33 l 1
 60 35 l 1
63 35 m 1
 61 35 l 1
 61 33 l 1
 63 33 l 1
 63 35 l 1
31 31 m 1
 29 31 l 1
 29 29 l 1
 31 29 l 1
 31 31 l 1
31 27 m 1
 29 27 l 1
 29 25 l 1
 31 25 l 1
 31 27 l 1
41 31 m 1
 39 31 l 1
 39 29 l 1
 41 29 l 1
 41 31 l 1
41 27 m 1
 39 27 l 1
 39 25 l 1
 41 25 l 1
 41 27 l 1
44 27 m 1
 42 27 l 1
 42 25 l 1
 43 25 l 1
 43 26 l 1
 44 26 l 1
 44 27 l 1
46 27 m 1
 45 27 l 1
 45 26 l 1
 44 26 l 1
 44 25 l 1
 46 25 l 1
 46 27 l 1
49 31 m 1
 47 31 l 1
 47 29 l 1
 49 29 l 1
 49 31 l 1
55 31 m 1
 53 31 l 1
 53 29 l 1
 55 29 l 1
 55 31 l 1
49 27 m 1
 47 27 l 1
 47 25 l 1
 49 25 l 1
 49 27 l 1
55 27 m 1
 53 27 l 1
 53 25 l 1
 55 25 l 1
 55 27 l 1
58 27 m 1
 56 27 l 1
 56 25 l 1
 57 25 l 1
 57 26 l 1
 58 26 l 1
 58 27 l 1
59 26 m 1
 58 26 l 1
 58 25 l 1
 60 25 l 1
 60 27 l 1
 59 27 l 1
 59 26 l 1
63 27 m 1
 61 27 l 1
 61 25 l 1
 63 25 l 1
 63 27 l 1
EndSplineSet
EndChar

StartChar: custom_0_2_0_4_9
Encoding: 20617 20617 649
Width: 70
Flags: H
LayerCount: 2
Fore
SplineSet
17 43 m 1
 15 43 l 1
 15 41 l 1
 17 41 l 1
 17 43 l 1
17 39 m 1
 15 39 l 1
 15 37 l 1
 17 37 l 1
 17 39 l 1
17 35 m 1
 15 35 l 1
 15 33 l 1
 17 33 l 1
 17 35 l 1
17 31 m 1
 15 31 l 1
 15 29 l 1
 17 29 l 1
 17 31 l 1
17 27 m 1
 15 27 l 1
 15 25 l 1
 17 25 l 1
 17 27 l 1
31 43 m 1
 29 43 l 1
 29 41 l 1
 31 41 l 1
 31 43 l 1
31 39 m 1
 29 39 l 1
 29 37 l 1
 31 37 l 1
 31 39 l 1
31 35 m 1
 29 35 l 1
 29 33 l 1
 31 33 l 1
 31 35 l 1
36 37 m 1
 34 37 l 1
 34 35 l 1
 36 35 l 1
 36 37 l 1
36 33 m 1
 34 33 l 1
 34 31 l 1
 36 31 l 1
 36 33 l 1
41 43 m 1
 39 43 l 1
 39 41 l 1
 41 41 l 1
 41 43 l 1
44 43 m 1
 42 43 l 1
 42 41 l 1
 43 41 l 1
 43 42 l 1
 44 42 l 1
 44 43 l 1
46 43 m 1
 45 43 l 1
 45 42 l 1
 44 42 l 1
 44 41 l 1
 46 41 l 1
 46 43 l 1
49 43 m 1
 47 43 l 1
 47 41 l 1
 49 41 l 1
 49 43 l 1
55 43 m 1
 53 43 l 1
 53 41 l 1
 55 41 l 1
 55 43 l 1
41 39 m 1
 39 39 l 1
 39 37 l 1
 41 37 l 1
 41 39 l 1
41 35 m 1
 39 35 l 1
 39 33 l 1
 41 33 l 1
 41 35 l 1
49 39 m 1
 47 39 l 1
 47 37 l 1
 49 37 l 1
 49 39 l 1
49 35 m 1
 47 35 l 1
 47 33 l 1
 49 33 l 1
 49 35 l 1
55 35 m 1
 53 35 l 1
 53 33 l 1
 55 33 l 1
 55 35 l 1
58 43 m 1
 56 43 l 1
 56 41 l 1
 57 41 l 1
 57 42 l 1
 58 42 l 1
 58 43 l 1
59 42 m 1
 58 42 l 1
 58 41 l 1
 60 41 l 1
 60 43 l 1
 59 43 l 1
 59 42 l 1
63 43 m 1
 61 43 l 1
 61 41 l 1
 63 41 l 1
 63 43 l 1
63 39 m 1
 61 39 l 1
 61 37 l 1
 63 37 l 1
 63 39 l 1
57 35 m 1
 56 35 l 1
 56 33 l 1
 58 33 l 1
 58 34 l 1
 57 34 l 1
 57 35 l 1
60 35 m 1
 58 35 l 1
 58 34 l 1
 59 34 l 1
 59 33 l 1
 60 33 l 1
 60 35 l 1
63 35 m 1
 61 35 l 1
 61 33 l 1
 63 33 l 1
 63 35 l 1
31 31 m 1
 29 31 l 1
 29 29 l 1
 31 29 l 1
 31 31 l 1
31 27 m 1
 29 27 l 1
 29 25 l 1
 31 25 l 1
 31 27 l 1
41 31 m 1
 39 31 l 1
 39 29 l 1
 41 29 l 1
 41 31 l 1
41 27 m 1
 39 27 l 1
 39 25 l 1
 41 25 l 1
 41 27 l 1
44 27 m 1
 42 27 l 1
 42 25 l 1
 43 25 l 1
 43 26 l 1
 44 26 l 1
 44 27 l 1
46 27 m 1
 45 27 l 1
 45 26 l 1
 44 26 l 1
 44 25 l 1
 46 25 l 1
 46 27 l 1
49 31 m 1
 47 31 l 1
 47 29 l 1
 49 29 l 1
 49 31 l 1
55 31 m 1
 53 31 l 1
 53 29 l 1
 55 29 l 1
 55 31 l 1
49 27 m 1
 47 27 l 1
 47 25 l 1
 49 25 l 1
 49 27 l 1
55 27 m 1
 53 27 l 1
 53 25 l 1
 55 25 l 1
 55 27 l 1
58 27 m 1
 56 27 l 1
 56 25 l 1
 57 25 l 1
 57 26 l 1
 58 26 l 1
 58 27 l 1
59 26 m 1
 58 26 l 1
 58 25 l 1
 60 25 l 1
 60 27 l 1
 59 27 l 1
 59 26 l 1
63 27 m 1
 61 27 l 1
 61 25 l 1
 63 25 l 1
 63 27 l 1
EndSplineSet
EndChar

StartChar: custom_0_2_0_5_0
Encoding: 20618 20618 650
Width: 70
Flags: H
LayerCount: 2
Fore
SplineSet
17 43 m 1
 15 43 l 1
 15 41 l 1
 17 41 l 1
 17 43 l 1
17 39 m 1
 15 39 l 1
 15 37 l 1
 17 37 l 1
 17 39 l 1
17 35 m 1
 15 35 l 1
 15 33 l 1
 17 33 l 1
 17 35 l 1
17 31 m 1
 15 31 l 1
 15 29 l 1
 17 29 l 1
 17 31 l 1
17 27 m 1
 15 27 l 1
 15 25 l 1
 17 25 l 1
 17 27 l 1
31 43 m 1
 29 43 l 1
 29 41 l 1
 31 41 l 1
 31 43 l 1
31 39 m 1
 29 39 l 1
 29 37 l 1
 31 37 l 1
 31 39 l 1
31 35 m 1
 29 35 l 1
 29 33 l 1
 31 33 l 1
 31 35 l 1
36 37 m 1
 34 37 l 1
 34 35 l 1
 36 35 l 1
 36 37 l 1
36 33 m 1
 34 33 l 1
 34 31 l 1
 36 31 l 1
 36 33 l 1
41 43 m 1
 39 43 l 1
 39 41 l 1
 41 41 l 1
 41 43 l 1
44 43 m 1
 42 43 l 1
 42 41 l 1
 43 41 l 1
 43 42 l 1
 44 42 l 1
 44 43 l 1
46 43 m 1
 45 43 l 1
 45 42 l 1
 44 42 l 1
 44 41 l 1
 46 41 l 1
 46 43 l 1
49 43 m 1
 47 43 l 1
 47 41 l 1
 49 41 l 1
 49 43 l 1
55 43 m 1
 53 43 l 1
 53 41 l 1
 55 41 l 1
 55 43 l 1
41 39 m 1
 39 39 l 1
 39 37 l 1
 41 37 l 1
 41 39 l 1
41 35 m 1
 39 35 l 1
 39 33 l 1
 41 33 l 1
 41 35 l 1
49 39 m 1
 47 39 l 1
 47 37 l 1
 49 37 l 1
 49 39 l 1
49 35 m 1
 47 35 l 1
 47 33 l 1
 49 33 l 1
 49 35 l 1
55 35 m 1
 53 35 l 1
 53 33 l 1
 55 33 l 1
 55 35 l 1
58 43 m 1
 56 43 l 1
 56 41 l 1
 57 41 l 1
 57 42 l 1
 58 42 l 1
 58 43 l 1
59 42 m 1
 58 42 l 1
 58 41 l 1
 60 41 l 1
 60 43 l 1
 59 43 l 1
 59 42 l 1
63 43 m 1
 61 43 l 1
 61 41 l 1
 63 41 l 1
 63 43 l 1
63 39 m 1
 61 39 l 1
 61 37 l 1
 63 37 l 1
 63 39 l 1
57 35 m 1
 56 35 l 1
 56 33 l 1
 58 33 l 1
 58 34 l 1
 57 34 l 1
 57 35 l 1
60 35 m 1
 58 35 l 1
 58 34 l 1
 59 34 l 1
 59 33 l 1
 60 33 l 1
 60 35 l 1
63 35 m 1
 61 35 l 1
 61 33 l 1
 63 33 l 1
 63 35 l 1
31 31 m 1
 29 31 l 1
 29 29 l 1
 31 29 l 1
 31 31 l 1
31 27 m 1
 29 27 l 1
 29 25 l 1
 31 25 l 1
 31 27 l 1
41 31 m 1
 39 31 l 1
 39 29 l 1
 41 29 l 1
 41 31 l 1
41 27 m 1
 39 27 l 1
 39 25 l 1
 41 25 l 1
 41 27 l 1
44 27 m 1
 42 27 l 1
 42 25 l 1
 43 25 l 1
 43 26 l 1
 44 26 l 1
 44 27 l 1
46 27 m 1
 45 27 l 1
 45 26 l 1
 44 26 l 1
 44 25 l 1
 46 25 l 1
 46 27 l 1
49 31 m 1
 47 31 l 1
 47 29 l 1
 49 29 l 1
 49 31 l 1
55 31 m 1
 53 31 l 1
 53 29 l 1
 55 29 l 1
 55 31 l 1
49 27 m 1
 47 27 l 1
 47 25 l 1
 49 25 l 1
 49 27 l 1
55 27 m 1
 53 27 l 1
 53 25 l 1
 55 25 l 1
 55 27 l 1
58 27 m 1
 56 27 l 1
 56 25 l 1
 57 25 l 1
 57 26 l 1
 58 26 l 1
 58 27 l 1
59 26 m 1
 58 26 l 1
 58 25 l 1
 60 25 l 1
 60 27 l 1
 59 27 l 1
 59 26 l 1
63 27 m 1
 61 27 l 1
 61 25 l 1
 63 25 l 1
 63 27 l 1
EndSplineSet
EndChar

StartChar: custom_0_2_0_5_1
Encoding: 20619 20619 651
Width: 70
Flags: H
LayerCount: 2
Fore
SplineSet
17 43 m 1
 15 43 l 1
 15 41 l 1
 17 41 l 1
 17 43 l 1
17 39 m 1
 15 39 l 1
 15 37 l 1
 17 37 l 1
 17 39 l 1
17 35 m 1
 15 35 l 1
 15 33 l 1
 17 33 l 1
 17 35 l 1
17 31 m 1
 15 31 l 1
 15 29 l 1
 17 29 l 1
 17 31 l 1
17 27 m 1
 15 27 l 1
 15 25 l 1
 17 25 l 1
 17 27 l 1
31 43 m 1
 29 43 l 1
 29 41 l 1
 31 41 l 1
 31 43 l 1
31 39 m 1
 29 39 l 1
 29 37 l 1
 31 37 l 1
 31 39 l 1
31 35 m 1
 29 35 l 1
 29 33 l 1
 31 33 l 1
 31 35 l 1
36 37 m 1
 34 37 l 1
 34 35 l 1
 36 35 l 1
 36 37 l 1
36 33 m 1
 34 33 l 1
 34 31 l 1
 36 31 l 1
 36 33 l 1
41 43 m 1
 39 43 l 1
 39 41 l 1
 41 41 l 1
 41 43 l 1
44 43 m 1
 42 43 l 1
 42 41 l 1
 43 41 l 1
 43 42 l 1
 44 42 l 1
 44 43 l 1
46 43 m 1
 45 43 l 1
 45 42 l 1
 44 42 l 1
 44 41 l 1
 46 41 l 1
 46 43 l 1
49 43 m 1
 47 43 l 1
 47 41 l 1
 49 41 l 1
 49 43 l 1
55 43 m 1
 53 43 l 1
 53 41 l 1
 55 41 l 1
 55 43 l 1
41 39 m 1
 39 39 l 1
 39 37 l 1
 41 37 l 1
 41 39 l 1
41 35 m 1
 39 35 l 1
 39 33 l 1
 41 33 l 1
 41 35 l 1
49 39 m 1
 47 39 l 1
 47 37 l 1
 49 37 l 1
 49 39 l 1
49 35 m 1
 47 35 l 1
 47 33 l 1
 49 33 l 1
 49 35 l 1
55 35 m 1
 53 35 l 1
 53 33 l 1
 55 33 l 1
 55 35 l 1
58 43 m 1
 56 43 l 1
 56 41 l 1
 57 41 l 1
 57 42 l 1
 58 42 l 1
 58 43 l 1
59 42 m 1
 58 42 l 1
 58 41 l 1
 60 41 l 1
 60 43 l 1
 59 43 l 1
 59 42 l 1
63 43 m 1
 61 43 l 1
 61 41 l 1
 63 41 l 1
 63 43 l 1
63 39 m 1
 61 39 l 1
 61 37 l 1
 63 37 l 1
 63 39 l 1
57 35 m 1
 56 35 l 1
 56 33 l 1
 58 33 l 1
 58 34 l 1
 57 34 l 1
 57 35 l 1
60 35 m 1
 58 35 l 1
 58 34 l 1
 59 34 l 1
 59 33 l 1
 60 33 l 1
 60 35 l 1
63 35 m 1
 61 35 l 1
 61 33 l 1
 63 33 l 1
 63 35 l 1
31 31 m 1
 29 31 l 1
 29 29 l 1
 31 29 l 1
 31 31 l 1
31 27 m 1
 29 27 l 1
 29 25 l 1
 31 25 l 1
 31 27 l 1
41 31 m 1
 39 31 l 1
 39 29 l 1
 41 29 l 1
 41 31 l 1
41 27 m 1
 39 27 l 1
 39 25 l 1
 41 25 l 1
 41 27 l 1
44 27 m 1
 42 27 l 1
 42 25 l 1
 43 25 l 1
 43 26 l 1
 44 26 l 1
 44 27 l 1
46 27 m 1
 45 27 l 1
 45 26 l 1
 44 26 l 1
 44 25 l 1
 46 25 l 1
 46 27 l 1
49 31 m 1
 47 31 l 1
 47 29 l 1
 49 29 l 1
 49 31 l 1
55 31 m 1
 53 31 l 1
 53 29 l 1
 55 29 l 1
 55 31 l 1
49 27 m 1
 47 27 l 1
 47 25 l 1
 49 25 l 1
 49 27 l 1
55 27 m 1
 53 27 l 1
 53 25 l 1
 55 25 l 1
 55 27 l 1
58 27 m 1
 56 27 l 1
 56 25 l 1
 57 25 l 1
 57 26 l 1
 58 26 l 1
 58 27 l 1
59 26 m 1
 58 26 l 1
 58 25 l 1
 60 25 l 1
 60 27 l 1
 59 27 l 1
 59 26 l 1
63 27 m 1
 61 27 l 1
 61 25 l 1
 63 25 l 1
 63 27 l 1
EndSplineSet
EndChar

StartChar: custom_0_2_0_5_2
Encoding: 20620 20620 652
Width: 70
Flags: H
LayerCount: 2
Fore
SplineSet
17 43 m 1
 15 43 l 1
 15 41 l 1
 17 41 l 1
 17 43 l 1
17 39 m 1
 15 39 l 1
 15 37 l 1
 17 37 l 1
 17 39 l 1
17 35 m 1
 15 35 l 1
 15 33 l 1
 17 33 l 1
 17 35 l 1
17 31 m 1
 15 31 l 1
 15 29 l 1
 17 29 l 1
 17 31 l 1
17 27 m 1
 15 27 l 1
 15 25 l 1
 17 25 l 1
 17 27 l 1
31 43 m 1
 29 43 l 1
 29 41 l 1
 31 41 l 1
 31 43 l 1
31 39 m 1
 29 39 l 1
 29 37 l 1
 31 37 l 1
 31 39 l 1
31 35 m 1
 29 35 l 1
 29 33 l 1
 31 33 l 1
 31 35 l 1
36 37 m 1
 34 37 l 1
 34 35 l 1
 36 35 l 1
 36 37 l 1
36 33 m 1
 34 33 l 1
 34 31 l 1
 36 31 l 1
 36 33 l 1
41 43 m 1
 39 43 l 1
 39 41 l 1
 41 41 l 1
 41 43 l 1
44 43 m 1
 42 43 l 1
 42 41 l 1
 43 41 l 1
 43 42 l 1
 44 42 l 1
 44 43 l 1
46 43 m 1
 45 43 l 1
 45 42 l 1
 44 42 l 1
 44 41 l 1
 46 41 l 1
 46 43 l 1
49 43 m 1
 47 43 l 1
 47 41 l 1
 49 41 l 1
 49 43 l 1
55 43 m 1
 53 43 l 1
 53 41 l 1
 55 41 l 1
 55 43 l 1
41 39 m 1
 39 39 l 1
 39 37 l 1
 41 37 l 1
 41 39 l 1
41 35 m 1
 39 35 l 1
 39 33 l 1
 41 33 l 1
 41 35 l 1
49 39 m 1
 47 39 l 1
 47 37 l 1
 49 37 l 1
 49 39 l 1
49 35 m 1
 47 35 l 1
 47 33 l 1
 49 33 l 1
 49 35 l 1
55 35 m 1
 53 35 l 1
 53 33 l 1
 55 33 l 1
 55 35 l 1
58 43 m 1
 56 43 l 1
 56 41 l 1
 57 41 l 1
 57 42 l 1
 58 42 l 1
 58 43 l 1
59 42 m 1
 58 42 l 1
 58 41 l 1
 60 41 l 1
 60 43 l 1
 59 43 l 1
 59 42 l 1
63 43 m 1
 61 43 l 1
 61 41 l 1
 63 41 l 1
 63 43 l 1
63 39 m 1
 61 39 l 1
 61 37 l 1
 63 37 l 1
 63 39 l 1
57 35 m 1
 56 35 l 1
 56 33 l 1
 58 33 l 1
 58 34 l 1
 57 34 l 1
 57 35 l 1
60 35 m 1
 58 35 l 1
 58 34 l 1
 59 34 l 1
 59 33 l 1
 60 33 l 1
 60 35 l 1
63 35 m 1
 61 35 l 1
 61 33 l 1
 63 33 l 1
 63 35 l 1
31 31 m 1
 29 31 l 1
 29 29 l 1
 31 29 l 1
 31 31 l 1
31 27 m 1
 29 27 l 1
 29 25 l 1
 31 25 l 1
 31 27 l 1
41 31 m 1
 39 31 l 1
 39 29 l 1
 41 29 l 1
 41 31 l 1
41 27 m 1
 39 27 l 1
 39 25 l 1
 41 25 l 1
 41 27 l 1
44 27 m 1
 42 27 l 1
 42 25 l 1
 43 25 l 1
 43 26 l 1
 44 26 l 1
 44 27 l 1
46 27 m 1
 45 27 l 1
 45 26 l 1
 44 26 l 1
 44 25 l 1
 46 25 l 1
 46 27 l 1
49 31 m 1
 47 31 l 1
 47 29 l 1
 49 29 l 1
 49 31 l 1
55 31 m 1
 53 31 l 1
 53 29 l 1
 55 29 l 1
 55 31 l 1
49 27 m 1
 47 27 l 1
 47 25 l 1
 49 25 l 1
 49 27 l 1
55 27 m 1
 53 27 l 1
 53 25 l 1
 55 25 l 1
 55 27 l 1
58 27 m 1
 56 27 l 1
 56 25 l 1
 57 25 l 1
 57 26 l 1
 58 26 l 1
 58 27 l 1
59 26 m 1
 58 26 l 1
 58 25 l 1
 60 25 l 1
 60 27 l 1
 59 27 l 1
 59 26 l 1
63 27 m 1
 61 27 l 1
 61 25 l 1
 63 25 l 1
 63 27 l 1
EndSplineSet
EndChar

StartChar: custom_0_2_0_5_3
Encoding: 20621 20621 653
Width: 70
Flags: H
LayerCount: 2
Fore
SplineSet
17 43 m 1
 15 43 l 1
 15 41 l 1
 17 41 l 1
 17 43 l 1
17 39 m 1
 15 39 l 1
 15 37 l 1
 17 37 l 1
 17 39 l 1
17 35 m 1
 15 35 l 1
 15 33 l 1
 17 33 l 1
 17 35 l 1
17 31 m 1
 15 31 l 1
 15 29 l 1
 17 29 l 1
 17 31 l 1
17 27 m 1
 15 27 l 1
 15 25 l 1
 17 25 l 1
 17 27 l 1
31 43 m 1
 29 43 l 1
 29 41 l 1
 31 41 l 1
 31 43 l 1
31 39 m 1
 29 39 l 1
 29 37 l 1
 31 37 l 1
 31 39 l 1
31 35 m 1
 29 35 l 1
 29 33 l 1
 31 33 l 1
 31 35 l 1
36 37 m 1
 34 37 l 1
 34 35 l 1
 36 35 l 1
 36 37 l 1
36 33 m 1
 34 33 l 1
 34 31 l 1
 36 31 l 1
 36 33 l 1
41 43 m 1
 39 43 l 1
 39 41 l 1
 41 41 l 1
 41 43 l 1
44 43 m 1
 42 43 l 1
 42 41 l 1
 43 41 l 1
 43 42 l 1
 44 42 l 1
 44 43 l 1
46 43 m 1
 45 43 l 1
 45 42 l 1
 44 42 l 1
 44 41 l 1
 46 41 l 1
 46 43 l 1
49 43 m 1
 47 43 l 1
 47 41 l 1
 49 41 l 1
 49 43 l 1
55 43 m 1
 53 43 l 1
 53 41 l 1
 55 41 l 1
 55 43 l 1
41 39 m 1
 39 39 l 1
 39 37 l 1
 41 37 l 1
 41 39 l 1
41 35 m 1
 39 35 l 1
 39 33 l 1
 41 33 l 1
 41 35 l 1
49 39 m 1
 47 39 l 1
 47 37 l 1
 49 37 l 1
 49 39 l 1
49 35 m 1
 47 35 l 1
 47 33 l 1
 49 33 l 1
 49 35 l 1
55 35 m 1
 53 35 l 1
 53 33 l 1
 55 33 l 1
 55 35 l 1
58 43 m 1
 56 43 l 1
 56 41 l 1
 57 41 l 1
 57 42 l 1
 58 42 l 1
 58 43 l 1
59 42 m 1
 58 42 l 1
 58 41 l 1
 60 41 l 1
 60 43 l 1
 59 43 l 1
 59 42 l 1
63 43 m 1
 61 43 l 1
 61 41 l 1
 63 41 l 1
 63 43 l 1
63 39 m 1
 61 39 l 1
 61 37 l 1
 63 37 l 1
 63 39 l 1
57 35 m 1
 56 35 l 1
 56 33 l 1
 58 33 l 1
 58 34 l 1
 57 34 l 1
 57 35 l 1
60 35 m 1
 58 35 l 1
 58 34 l 1
 59 34 l 1
 59 33 l 1
 60 33 l 1
 60 35 l 1
63 35 m 1
 61 35 l 1
 61 33 l 1
 63 33 l 1
 63 35 l 1
31 31 m 1
 29 31 l 1
 29 29 l 1
 31 29 l 1
 31 31 l 1
31 27 m 1
 29 27 l 1
 29 25 l 1
 31 25 l 1
 31 27 l 1
41 31 m 1
 39 31 l 1
 39 29 l 1
 41 29 l 1
 41 31 l 1
41 27 m 1
 39 27 l 1
 39 25 l 1
 41 25 l 1
 41 27 l 1
44 27 m 1
 42 27 l 1
 42 25 l 1
 43 25 l 1
 43 26 l 1
 44 26 l 1
 44 27 l 1
46 27 m 1
 45 27 l 1
 45 26 l 1
 44 26 l 1
 44 25 l 1
 46 25 l 1
 46 27 l 1
49 31 m 1
 47 31 l 1
 47 29 l 1
 49 29 l 1
 49 31 l 1
55 31 m 1
 53 31 l 1
 53 29 l 1
 55 29 l 1
 55 31 l 1
49 27 m 1
 47 27 l 1
 47 25 l 1
 49 25 l 1
 49 27 l 1
55 27 m 1
 53 27 l 1
 53 25 l 1
 55 25 l 1
 55 27 l 1
58 27 m 1
 56 27 l 1
 56 25 l 1
 57 25 l 1
 57 26 l 1
 58 26 l 1
 58 27 l 1
59 26 m 1
 58 26 l 1
 58 25 l 1
 60 25 l 1
 60 27 l 1
 59 27 l 1
 59 26 l 1
63 27 m 1
 61 27 l 1
 61 25 l 1
 63 25 l 1
 63 27 l 1
EndSplineSet
EndChar

StartChar: custom_0_2_0_5_4
Encoding: 20622 20622 654
Width: 70
Flags: H
LayerCount: 2
Fore
SplineSet
17 43 m 1
 15 43 l 1
 15 41 l 1
 17 41 l 1
 17 43 l 1
17 39 m 1
 15 39 l 1
 15 37 l 1
 17 37 l 1
 17 39 l 1
17 35 m 1
 15 35 l 1
 15 33 l 1
 17 33 l 1
 17 35 l 1
17 31 m 1
 15 31 l 1
 15 29 l 1
 17 29 l 1
 17 31 l 1
17 27 m 1
 15 27 l 1
 15 25 l 1
 17 25 l 1
 17 27 l 1
31 43 m 1
 29 43 l 1
 29 41 l 1
 31 41 l 1
 31 43 l 1
31 39 m 1
 29 39 l 1
 29 37 l 1
 31 37 l 1
 31 39 l 1
31 35 m 1
 29 35 l 1
 29 33 l 1
 31 33 l 1
 31 35 l 1
36 37 m 1
 34 37 l 1
 34 35 l 1
 36 35 l 1
 36 37 l 1
36 33 m 1
 34 33 l 1
 34 31 l 1
 36 31 l 1
 36 33 l 1
41 43 m 1
 39 43 l 1
 39 41 l 1
 41 41 l 1
 41 43 l 1
44 43 m 1
 42 43 l 1
 42 41 l 1
 43 41 l 1
 43 42 l 1
 44 42 l 1
 44 43 l 1
46 43 m 1
 45 43 l 1
 45 42 l 1
 44 42 l 1
 44 41 l 1
 46 41 l 1
 46 43 l 1
49 43 m 1
 47 43 l 1
 47 41 l 1
 49 41 l 1
 49 43 l 1
55 43 m 1
 53 43 l 1
 53 41 l 1
 55 41 l 1
 55 43 l 1
41 39 m 1
 39 39 l 1
 39 37 l 1
 41 37 l 1
 41 39 l 1
41 35 m 1
 39 35 l 1
 39 33 l 1
 41 33 l 1
 41 35 l 1
49 39 m 1
 47 39 l 1
 47 37 l 1
 49 37 l 1
 49 39 l 1
49 35 m 1
 47 35 l 1
 47 33 l 1
 49 33 l 1
 49 35 l 1
55 35 m 1
 53 35 l 1
 53 33 l 1
 55 33 l 1
 55 35 l 1
58 43 m 1
 56 43 l 1
 56 41 l 1
 57 41 l 1
 57 42 l 1
 58 42 l 1
 58 43 l 1
59 42 m 1
 58 42 l 1
 58 41 l 1
 60 41 l 1
 60 43 l 1
 59 43 l 1
 59 42 l 1
63 43 m 1
 61 43 l 1
 61 41 l 1
 63 41 l 1
 63 43 l 1
63 39 m 1
 61 39 l 1
 61 37 l 1
 63 37 l 1
 63 39 l 1
57 35 m 1
 56 35 l 1
 56 33 l 1
 58 33 l 1
 58 34 l 1
 57 34 l 1
 57 35 l 1
60 35 m 1
 58 35 l 1
 58 34 l 1
 59 34 l 1
 59 33 l 1
 60 33 l 1
 60 35 l 1
63 35 m 1
 61 35 l 1
 61 33 l 1
 63 33 l 1
 63 35 l 1
31 31 m 1
 29 31 l 1
 29 29 l 1
 31 29 l 1
 31 31 l 1
31 27 m 1
 29 27 l 1
 29 25 l 1
 31 25 l 1
 31 27 l 1
41 31 m 1
 39 31 l 1
 39 29 l 1
 41 29 l 1
 41 31 l 1
41 27 m 1
 39 27 l 1
 39 25 l 1
 41 25 l 1
 41 27 l 1
44 27 m 1
 42 27 l 1
 42 25 l 1
 43 25 l 1
 43 26 l 1
 44 26 l 1
 44 27 l 1
46 27 m 1
 45 27 l 1
 45 26 l 1
 44 26 l 1
 44 25 l 1
 46 25 l 1
 46 27 l 1
49 31 m 1
 47 31 l 1
 47 29 l 1
 49 29 l 1
 49 31 l 1
55 31 m 1
 53 31 l 1
 53 29 l 1
 55 29 l 1
 55 31 l 1
49 27 m 1
 47 27 l 1
 47 25 l 1
 49 25 l 1
 49 27 l 1
55 27 m 1
 53 27 l 1
 53 25 l 1
 55 25 l 1
 55 27 l 1
58 27 m 1
 56 27 l 1
 56 25 l 1
 57 25 l 1
 57 26 l 1
 58 26 l 1
 58 27 l 1
59 26 m 1
 58 26 l 1
 58 25 l 1
 60 25 l 1
 60 27 l 1
 59 27 l 1
 59 26 l 1
63 27 m 1
 61 27 l 1
 61 25 l 1
 63 25 l 1
 63 27 l 1
EndSplineSet
EndChar

StartChar: custom_0_2_0_5_5
Encoding: 20623 20623 655
Width: 70
Flags: H
LayerCount: 2
Fore
SplineSet
17 43 m 1
 15 43 l 1
 15 41 l 1
 17 41 l 1
 17 43 l 1
17 39 m 1
 15 39 l 1
 15 37 l 1
 17 37 l 1
 17 39 l 1
17 35 m 1
 15 35 l 1
 15 33 l 1
 17 33 l 1
 17 35 l 1
17 31 m 1
 15 31 l 1
 15 29 l 1
 17 29 l 1
 17 31 l 1
17 27 m 1
 15 27 l 1
 15 25 l 1
 17 25 l 1
 17 27 l 1
31 43 m 1
 29 43 l 1
 29 41 l 1
 31 41 l 1
 31 43 l 1
31 39 m 1
 29 39 l 1
 29 37 l 1
 31 37 l 1
 31 39 l 1
31 35 m 1
 29 35 l 1
 29 33 l 1
 31 33 l 1
 31 35 l 1
36 37 m 1
 34 37 l 1
 34 35 l 1
 36 35 l 1
 36 37 l 1
36 33 m 1
 34 33 l 1
 34 31 l 1
 36 31 l 1
 36 33 l 1
41 43 m 1
 39 43 l 1
 39 41 l 1
 41 41 l 1
 41 43 l 1
44 43 m 1
 42 43 l 1
 42 41 l 1
 43 41 l 1
 43 42 l 1
 44 42 l 1
 44 43 l 1
46 43 m 1
 45 43 l 1
 45 42 l 1
 44 42 l 1
 44 41 l 1
 46 41 l 1
 46 43 l 1
49 43 m 1
 47 43 l 1
 47 41 l 1
 49 41 l 1
 49 43 l 1
55 43 m 1
 53 43 l 1
 53 41 l 1
 55 41 l 1
 55 43 l 1
41 39 m 1
 39 39 l 1
 39 37 l 1
 41 37 l 1
 41 39 l 1
41 35 m 1
 39 35 l 1
 39 33 l 1
 41 33 l 1
 41 35 l 1
49 39 m 1
 47 39 l 1
 47 37 l 1
 49 37 l 1
 49 39 l 1
49 35 m 1
 47 35 l 1
 47 33 l 1
 49 33 l 1
 49 35 l 1
55 35 m 1
 53 35 l 1
 53 33 l 1
 55 33 l 1
 55 35 l 1
58 43 m 1
 56 43 l 1
 56 41 l 1
 57 41 l 1
 57 42 l 1
 58 42 l 1
 58 43 l 1
59 42 m 1
 58 42 l 1
 58 41 l 1
 60 41 l 1
 60 43 l 1
 59 43 l 1
 59 42 l 1
63 43 m 1
 61 43 l 1
 61 41 l 1
 63 41 l 1
 63 43 l 1
63 39 m 1
 61 39 l 1
 61 37 l 1
 63 37 l 1
 63 39 l 1
57 35 m 1
 56 35 l 1
 56 33 l 1
 58 33 l 1
 58 34 l 1
 57 34 l 1
 57 35 l 1
60 35 m 1
 58 35 l 1
 58 34 l 1
 59 34 l 1
 59 33 l 1
 60 33 l 1
 60 35 l 1
63 35 m 1
 61 35 l 1
 61 33 l 1
 63 33 l 1
 63 35 l 1
31 31 m 1
 29 31 l 1
 29 29 l 1
 31 29 l 1
 31 31 l 1
31 27 m 1
 29 27 l 1
 29 25 l 1
 31 25 l 1
 31 27 l 1
41 31 m 1
 39 31 l 1
 39 29 l 1
 41 29 l 1
 41 31 l 1
41 27 m 1
 39 27 l 1
 39 25 l 1
 41 25 l 1
 41 27 l 1
44 27 m 1
 42 27 l 1
 42 25 l 1
 43 25 l 1
 43 26 l 1
 44 26 l 1
 44 27 l 1
46 27 m 1
 45 27 l 1
 45 26 l 1
 44 26 l 1
 44 25 l 1
 46 25 l 1
 46 27 l 1
49 31 m 1
 47 31 l 1
 47 29 l 1
 49 29 l 1
 49 31 l 1
55 31 m 1
 53 31 l 1
 53 29 l 1
 55 29 l 1
 55 31 l 1
49 27 m 1
 47 27 l 1
 47 25 l 1
 49 25 l 1
 49 27 l 1
55 27 m 1
 53 27 l 1
 53 25 l 1
 55 25 l 1
 55 27 l 1
58 27 m 1
 56 27 l 1
 56 25 l 1
 57 25 l 1
 57 26 l 1
 58 26 l 1
 58 27 l 1
59 26 m 1
 58 26 l 1
 58 25 l 1
 60 25 l 1
 60 27 l 1
 59 27 l 1
 59 26 l 1
63 27 m 1
 61 27 l 1
 61 25 l 1
 63 25 l 1
 63 27 l 1
EndSplineSet
EndChar

StartChar: custom_0_2_0_5_6
Encoding: 20624 20624 656
Width: 70
Flags: H
LayerCount: 2
Fore
SplineSet
17 43 m 1
 15 43 l 1
 15 41 l 1
 17 41 l 1
 17 43 l 1
17 39 m 1
 15 39 l 1
 15 37 l 1
 17 37 l 1
 17 39 l 1
17 35 m 1
 15 35 l 1
 15 33 l 1
 17 33 l 1
 17 35 l 1
17 31 m 1
 15 31 l 1
 15 29 l 1
 17 29 l 1
 17 31 l 1
17 27 m 1
 15 27 l 1
 15 25 l 1
 17 25 l 1
 17 27 l 1
31 43 m 1
 29 43 l 1
 29 41 l 1
 31 41 l 1
 31 43 l 1
31 39 m 1
 29 39 l 1
 29 37 l 1
 31 37 l 1
 31 39 l 1
31 35 m 1
 29 35 l 1
 29 33 l 1
 31 33 l 1
 31 35 l 1
36 37 m 1
 34 37 l 1
 34 35 l 1
 36 35 l 1
 36 37 l 1
36 33 m 1
 34 33 l 1
 34 31 l 1
 36 31 l 1
 36 33 l 1
41 43 m 1
 39 43 l 1
 39 41 l 1
 41 41 l 1
 41 43 l 1
44 43 m 1
 42 43 l 1
 42 41 l 1
 43 41 l 1
 43 42 l 1
 44 42 l 1
 44 43 l 1
46 43 m 1
 45 43 l 1
 45 42 l 1
 44 42 l 1
 44 41 l 1
 46 41 l 1
 46 43 l 1
49 43 m 1
 47 43 l 1
 47 41 l 1
 49 41 l 1
 49 43 l 1
55 43 m 1
 53 43 l 1
 53 41 l 1
 55 41 l 1
 55 43 l 1
41 39 m 1
 39 39 l 1
 39 37 l 1
 41 37 l 1
 41 39 l 1
41 35 m 1
 39 35 l 1
 39 33 l 1
 41 33 l 1
 41 35 l 1
49 39 m 1
 47 39 l 1
 47 37 l 1
 49 37 l 1
 49 39 l 1
49 35 m 1
 47 35 l 1
 47 33 l 1
 49 33 l 1
 49 35 l 1
55 35 m 1
 53 35 l 1
 53 33 l 1
 55 33 l 1
 55 35 l 1
58 43 m 1
 56 43 l 1
 56 41 l 1
 57 41 l 1
 57 42 l 1
 58 42 l 1
 58 43 l 1
59 42 m 1
 58 42 l 1
 58 41 l 1
 60 41 l 1
 60 43 l 1
 59 43 l 1
 59 42 l 1
63 43 m 1
 61 43 l 1
 61 41 l 1
 63 41 l 1
 63 43 l 1
63 39 m 1
 61 39 l 1
 61 37 l 1
 63 37 l 1
 63 39 l 1
57 35 m 1
 56 35 l 1
 56 33 l 1
 58 33 l 1
 58 34 l 1
 57 34 l 1
 57 35 l 1
60 35 m 1
 58 35 l 1
 58 34 l 1
 59 34 l 1
 59 33 l 1
 60 33 l 1
 60 35 l 1
63 35 m 1
 61 35 l 1
 61 33 l 1
 63 33 l 1
 63 35 l 1
31 31 m 1
 29 31 l 1
 29 29 l 1
 31 29 l 1
 31 31 l 1
31 27 m 1
 29 27 l 1
 29 25 l 1
 31 25 l 1
 31 27 l 1
41 31 m 1
 39 31 l 1
 39 29 l 1
 41 29 l 1
 41 31 l 1
41 27 m 1
 39 27 l 1
 39 25 l 1
 41 25 l 1
 41 27 l 1
44 27 m 1
 42 27 l 1
 42 25 l 1
 43 25 l 1
 43 26 l 1
 44 26 l 1
 44 27 l 1
46 27 m 1
 45 27 l 1
 45 26 l 1
 44 26 l 1
 44 25 l 1
 46 25 l 1
 46 27 l 1
49 31 m 1
 47 31 l 1
 47 29 l 1
 49 29 l 1
 49 31 l 1
55 31 m 1
 53 31 l 1
 53 29 l 1
 55 29 l 1
 55 31 l 1
49 27 m 1
 47 27 l 1
 47 25 l 1
 49 25 l 1
 49 27 l 1
55 27 m 1
 53 27 l 1
 53 25 l 1
 55 25 l 1
 55 27 l 1
58 27 m 1
 56 27 l 1
 56 25 l 1
 57 25 l 1
 57 26 l 1
 58 26 l 1
 58 27 l 1
59 26 m 1
 58 26 l 1
 58 25 l 1
 60 25 l 1
 60 27 l 1
 59 27 l 1
 59 26 l 1
63 27 m 1
 61 27 l 1
 61 25 l 1
 63 25 l 1
 63 27 l 1
EndSplineSet
EndChar

StartChar: custom_0_2_0_5_7
Encoding: 20625 20625 657
Width: 70
Flags: H
LayerCount: 2
Fore
SplineSet
17 43 m 1
 15 43 l 1
 15 41 l 1
 17 41 l 1
 17 43 l 1
17 39 m 1
 15 39 l 1
 15 37 l 1
 17 37 l 1
 17 39 l 1
17 35 m 1
 15 35 l 1
 15 33 l 1
 17 33 l 1
 17 35 l 1
17 31 m 1
 15 31 l 1
 15 29 l 1
 17 29 l 1
 17 31 l 1
17 27 m 1
 15 27 l 1
 15 25 l 1
 17 25 l 1
 17 27 l 1
31 43 m 1
 29 43 l 1
 29 41 l 1
 31 41 l 1
 31 43 l 1
31 39 m 1
 29 39 l 1
 29 37 l 1
 31 37 l 1
 31 39 l 1
31 35 m 1
 29 35 l 1
 29 33 l 1
 31 33 l 1
 31 35 l 1
36 37 m 1
 34 37 l 1
 34 35 l 1
 36 35 l 1
 36 37 l 1
36 33 m 1
 34 33 l 1
 34 31 l 1
 36 31 l 1
 36 33 l 1
41 43 m 1
 39 43 l 1
 39 41 l 1
 41 41 l 1
 41 43 l 1
44 43 m 1
 42 43 l 1
 42 41 l 1
 43 41 l 1
 43 42 l 1
 44 42 l 1
 44 43 l 1
46 43 m 1
 45 43 l 1
 45 42 l 1
 44 42 l 1
 44 41 l 1
 46 41 l 1
 46 43 l 1
49 43 m 1
 47 43 l 1
 47 41 l 1
 49 41 l 1
 49 43 l 1
55 43 m 1
 53 43 l 1
 53 41 l 1
 55 41 l 1
 55 43 l 1
41 39 m 1
 39 39 l 1
 39 37 l 1
 41 37 l 1
 41 39 l 1
41 35 m 1
 39 35 l 1
 39 33 l 1
 41 33 l 1
 41 35 l 1
49 39 m 1
 47 39 l 1
 47 37 l 1
 49 37 l 1
 49 39 l 1
49 35 m 1
 47 35 l 1
 47 33 l 1
 49 33 l 1
 49 35 l 1
55 35 m 1
 53 35 l 1
 53 33 l 1
 55 33 l 1
 55 35 l 1
58 43 m 1
 56 43 l 1
 56 41 l 1
 57 41 l 1
 57 42 l 1
 58 42 l 1
 58 43 l 1
59 42 m 1
 58 42 l 1
 58 41 l 1
 60 41 l 1
 60 43 l 1
 59 43 l 1
 59 42 l 1
63 43 m 1
 61 43 l 1
 61 41 l 1
 63 41 l 1
 63 43 l 1
63 39 m 1
 61 39 l 1
 61 37 l 1
 63 37 l 1
 63 39 l 1
57 35 m 1
 56 35 l 1
 56 33 l 1
 58 33 l 1
 58 34 l 1
 57 34 l 1
 57 35 l 1
60 35 m 1
 58 35 l 1
 58 34 l 1
 59 34 l 1
 59 33 l 1
 60 33 l 1
 60 35 l 1
63 35 m 1
 61 35 l 1
 61 33 l 1
 63 33 l 1
 63 35 l 1
31 31 m 1
 29 31 l 1
 29 29 l 1
 31 29 l 1
 31 31 l 1
31 27 m 1
 29 27 l 1
 29 25 l 1
 31 25 l 1
 31 27 l 1
41 31 m 1
 39 31 l 1
 39 29 l 1
 41 29 l 1
 41 31 l 1
41 27 m 1
 39 27 l 1
 39 25 l 1
 41 25 l 1
 41 27 l 1
44 27 m 1
 42 27 l 1
 42 25 l 1
 43 25 l 1
 43 26 l 1
 44 26 l 1
 44 27 l 1
46 27 m 1
 45 27 l 1
 45 26 l 1
 44 26 l 1
 44 25 l 1
 46 25 l 1
 46 27 l 1
49 31 m 1
 47 31 l 1
 47 29 l 1
 49 29 l 1
 49 31 l 1
55 31 m 1
 53 31 l 1
 53 29 l 1
 55 29 l 1
 55 31 l 1
49 27 m 1
 47 27 l 1
 47 25 l 1
 49 25 l 1
 49 27 l 1
55 27 m 1
 53 27 l 1
 53 25 l 1
 55 25 l 1
 55 27 l 1
58 27 m 1
 56 27 l 1
 56 25 l 1
 57 25 l 1
 57 26 l 1
 58 26 l 1
 58 27 l 1
59 26 m 1
 58 26 l 1
 58 25 l 1
 60 25 l 1
 60 27 l 1
 59 27 l 1
 59 26 l 1
63 27 m 1
 61 27 l 1
 61 25 l 1
 63 25 l 1
 63 27 l 1
EndSplineSet
EndChar

StartChar: custom_0_2_0_5_8
Encoding: 20626 20626 658
Width: 70
Flags: H
LayerCount: 2
Fore
SplineSet
17 43 m 1
 15 43 l 1
 15 41 l 1
 17 41 l 1
 17 43 l 1
17 39 m 1
 15 39 l 1
 15 37 l 1
 17 37 l 1
 17 39 l 1
17 35 m 1
 15 35 l 1
 15 33 l 1
 17 33 l 1
 17 35 l 1
17 31 m 1
 15 31 l 1
 15 29 l 1
 17 29 l 1
 17 31 l 1
17 27 m 1
 15 27 l 1
 15 25 l 1
 17 25 l 1
 17 27 l 1
31 43 m 1
 29 43 l 1
 29 41 l 1
 31 41 l 1
 31 43 l 1
31 39 m 1
 29 39 l 1
 29 37 l 1
 31 37 l 1
 31 39 l 1
31 35 m 1
 29 35 l 1
 29 33 l 1
 31 33 l 1
 31 35 l 1
36 37 m 1
 34 37 l 1
 34 35 l 1
 36 35 l 1
 36 37 l 1
36 33 m 1
 34 33 l 1
 34 31 l 1
 36 31 l 1
 36 33 l 1
41 43 m 1
 39 43 l 1
 39 41 l 1
 41 41 l 1
 41 43 l 1
44 43 m 1
 42 43 l 1
 42 41 l 1
 43 41 l 1
 43 42 l 1
 44 42 l 1
 44 43 l 1
46 43 m 1
 45 43 l 1
 45 42 l 1
 44 42 l 1
 44 41 l 1
 46 41 l 1
 46 43 l 1
49 43 m 1
 47 43 l 1
 47 41 l 1
 49 41 l 1
 49 43 l 1
55 43 m 1
 53 43 l 1
 53 41 l 1
 55 41 l 1
 55 43 l 1
41 39 m 1
 39 39 l 1
 39 37 l 1
 41 37 l 1
 41 39 l 1
41 35 m 1
 39 35 l 1
 39 33 l 1
 41 33 l 1
 41 35 l 1
49 39 m 1
 47 39 l 1
 47 37 l 1
 49 37 l 1
 49 39 l 1
49 35 m 1
 47 35 l 1
 47 33 l 1
 49 33 l 1
 49 35 l 1
55 35 m 1
 53 35 l 1
 53 33 l 1
 55 33 l 1
 55 35 l 1
58 43 m 1
 56 43 l 1
 56 41 l 1
 57 41 l 1
 57 42 l 1
 58 42 l 1
 58 43 l 1
59 42 m 1
 58 42 l 1
 58 41 l 1
 60 41 l 1
 60 43 l 1
 59 43 l 1
 59 42 l 1
63 43 m 1
 61 43 l 1
 61 41 l 1
 63 41 l 1
 63 43 l 1
63 39 m 1
 61 39 l 1
 61 37 l 1
 63 37 l 1
 63 39 l 1
57 35 m 1
 56 35 l 1
 56 33 l 1
 58 33 l 1
 58 34 l 1
 57 34 l 1
 57 35 l 1
60 35 m 1
 58 35 l 1
 58 34 l 1
 59 34 l 1
 59 33 l 1
 60 33 l 1
 60 35 l 1
63 35 m 1
 61 35 l 1
 61 33 l 1
 63 33 l 1
 63 35 l 1
31 31 m 1
 29 31 l 1
 29 29 l 1
 31 29 l 1
 31 31 l 1
31 27 m 1
 29 27 l 1
 29 25 l 1
 31 25 l 1
 31 27 l 1
41 31 m 1
 39 31 l 1
 39 29 l 1
 41 29 l 1
 41 31 l 1
41 27 m 1
 39 27 l 1
 39 25 l 1
 41 25 l 1
 41 27 l 1
44 27 m 1
 42 27 l 1
 42 25 l 1
 43 25 l 1
 43 26 l 1
 44 26 l 1
 44 27 l 1
46 27 m 1
 45 27 l 1
 45 26 l 1
 44 26 l 1
 44 25 l 1
 46 25 l 1
 46 27 l 1
49 31 m 1
 47 31 l 1
 47 29 l 1
 49 29 l 1
 49 31 l 1
55 31 m 1
 53 31 l 1
 53 29 l 1
 55 29 l 1
 55 31 l 1
49 27 m 1
 47 27 l 1
 47 25 l 1
 49 25 l 1
 49 27 l 1
55 27 m 1
 53 27 l 1
 53 25 l 1
 55 25 l 1
 55 27 l 1
58 27 m 1
 56 27 l 1
 56 25 l 1
 57 25 l 1
 57 26 l 1
 58 26 l 1
 58 27 l 1
59 26 m 1
 58 26 l 1
 58 25 l 1
 60 25 l 1
 60 27 l 1
 59 27 l 1
 59 26 l 1
63 27 m 1
 61 27 l 1
 61 25 l 1
 63 25 l 1
 63 27 l 1
EndSplineSet
EndChar

StartChar: custom_0_2_0_5_9
Encoding: 20627 20627 659
Width: 70
Flags: H
LayerCount: 2
Fore
SplineSet
17 43 m 1
 15 43 l 1
 15 41 l 1
 17 41 l 1
 17 43 l 1
17 39 m 1
 15 39 l 1
 15 37 l 1
 17 37 l 1
 17 39 l 1
17 35 m 1
 15 35 l 1
 15 33 l 1
 17 33 l 1
 17 35 l 1
17 31 m 1
 15 31 l 1
 15 29 l 1
 17 29 l 1
 17 31 l 1
17 27 m 1
 15 27 l 1
 15 25 l 1
 17 25 l 1
 17 27 l 1
31 43 m 1
 29 43 l 1
 29 41 l 1
 31 41 l 1
 31 43 l 1
31 39 m 1
 29 39 l 1
 29 37 l 1
 31 37 l 1
 31 39 l 1
31 35 m 1
 29 35 l 1
 29 33 l 1
 31 33 l 1
 31 35 l 1
36 37 m 1
 34 37 l 1
 34 35 l 1
 36 35 l 1
 36 37 l 1
36 33 m 1
 34 33 l 1
 34 31 l 1
 36 31 l 1
 36 33 l 1
41 43 m 1
 39 43 l 1
 39 41 l 1
 41 41 l 1
 41 43 l 1
44 43 m 1
 42 43 l 1
 42 41 l 1
 43 41 l 1
 43 42 l 1
 44 42 l 1
 44 43 l 1
46 43 m 1
 45 43 l 1
 45 42 l 1
 44 42 l 1
 44 41 l 1
 46 41 l 1
 46 43 l 1
49 43 m 1
 47 43 l 1
 47 41 l 1
 49 41 l 1
 49 43 l 1
55 43 m 1
 53 43 l 1
 53 41 l 1
 55 41 l 1
 55 43 l 1
41 39 m 1
 39 39 l 1
 39 37 l 1
 41 37 l 1
 41 39 l 1
41 35 m 1
 39 35 l 1
 39 33 l 1
 41 33 l 1
 41 35 l 1
49 39 m 1
 47 39 l 1
 47 37 l 1
 49 37 l 1
 49 39 l 1
49 35 m 1
 47 35 l 1
 47 33 l 1
 49 33 l 1
 49 35 l 1
55 35 m 1
 53 35 l 1
 53 33 l 1
 55 33 l 1
 55 35 l 1
58 43 m 1
 56 43 l 1
 56 41 l 1
 57 41 l 1
 57 42 l 1
 58 42 l 1
 58 43 l 1
59 42 m 1
 58 42 l 1
 58 41 l 1
 60 41 l 1
 60 43 l 1
 59 43 l 1
 59 42 l 1
63 43 m 1
 61 43 l 1
 61 41 l 1
 63 41 l 1
 63 43 l 1
63 39 m 1
 61 39 l 1
 61 37 l 1
 63 37 l 1
 63 39 l 1
57 35 m 1
 56 35 l 1
 56 33 l 1
 58 33 l 1
 58 34 l 1
 57 34 l 1
 57 35 l 1
60 35 m 1
 58 35 l 1
 58 34 l 1
 59 34 l 1
 59 33 l 1
 60 33 l 1
 60 35 l 1
63 35 m 1
 61 35 l 1
 61 33 l 1
 63 33 l 1
 63 35 l 1
31 31 m 1
 29 31 l 1
 29 29 l 1
 31 29 l 1
 31 31 l 1
31 27 m 1
 29 27 l 1
 29 25 l 1
 31 25 l 1
 31 27 l 1
41 31 m 1
 39 31 l 1
 39 29 l 1
 41 29 l 1
 41 31 l 1
41 27 m 1
 39 27 l 1
 39 25 l 1
 41 25 l 1
 41 27 l 1
44 27 m 1
 42 27 l 1
 42 25 l 1
 43 25 l 1
 43 26 l 1
 44 26 l 1
 44 27 l 1
46 27 m 1
 45 27 l 1
 45 26 l 1
 44 26 l 1
 44 25 l 1
 46 25 l 1
 46 27 l 1
49 31 m 1
 47 31 l 1
 47 29 l 1
 49 29 l 1
 49 31 l 1
55 31 m 1
 53 31 l 1
 53 29 l 1
 55 29 l 1
 55 31 l 1
49 27 m 1
 47 27 l 1
 47 25 l 1
 49 25 l 1
 49 27 l 1
55 27 m 1
 53 27 l 1
 53 25 l 1
 55 25 l 1
 55 27 l 1
58 27 m 1
 56 27 l 1
 56 25 l 1
 57 25 l 1
 57 26 l 1
 58 26 l 1
 58 27 l 1
59 26 m 1
 58 26 l 1
 58 25 l 1
 60 25 l 1
 60 27 l 1
 59 27 l 1
 59 26 l 1
63 27 m 1
 61 27 l 1
 61 25 l 1
 63 25 l 1
 63 27 l 1
EndSplineSet
EndChar

StartChar: custom_0_2_0_6_0
Encoding: 20628 20628 660
Width: 70
Flags: H
LayerCount: 2
Fore
SplineSet
17 43 m 1
 15 43 l 1
 15 41 l 1
 17 41 l 1
 17 43 l 1
17 39 m 1
 15 39 l 1
 15 37 l 1
 17 37 l 1
 17 39 l 1
17 35 m 1
 15 35 l 1
 15 33 l 1
 17 33 l 1
 17 35 l 1
17 31 m 1
 15 31 l 1
 15 29 l 1
 17 29 l 1
 17 31 l 1
17 27 m 1
 15 27 l 1
 15 25 l 1
 17 25 l 1
 17 27 l 1
31 43 m 1
 29 43 l 1
 29 41 l 1
 31 41 l 1
 31 43 l 1
31 39 m 1
 29 39 l 1
 29 37 l 1
 31 37 l 1
 31 39 l 1
31 35 m 1
 29 35 l 1
 29 33 l 1
 31 33 l 1
 31 35 l 1
36 37 m 1
 34 37 l 1
 34 35 l 1
 36 35 l 1
 36 37 l 1
36 33 m 1
 34 33 l 1
 34 31 l 1
 36 31 l 1
 36 33 l 1
41 43 m 1
 39 43 l 1
 39 41 l 1
 41 41 l 1
 41 43 l 1
44 43 m 1
 42 43 l 1
 42 41 l 1
 43 41 l 1
 43 42 l 1
 44 42 l 1
 44 43 l 1
46 43 m 1
 45 43 l 1
 45 42 l 1
 44 42 l 1
 44 41 l 1
 46 41 l 1
 46 43 l 1
49 43 m 1
 47 43 l 1
 47 41 l 1
 49 41 l 1
 49 43 l 1
55 43 m 1
 53 43 l 1
 53 41 l 1
 55 41 l 1
 55 43 l 1
41 39 m 1
 39 39 l 1
 39 37 l 1
 41 37 l 1
 41 39 l 1
41 35 m 1
 39 35 l 1
 39 33 l 1
 41 33 l 1
 41 35 l 1
49 39 m 1
 47 39 l 1
 47 37 l 1
 49 37 l 1
 49 39 l 1
49 35 m 1
 47 35 l 1
 47 33 l 1
 49 33 l 1
 49 35 l 1
55 35 m 1
 53 35 l 1
 53 33 l 1
 55 33 l 1
 55 35 l 1
58 43 m 1
 56 43 l 1
 56 41 l 1
 57 41 l 1
 57 42 l 1
 58 42 l 1
 58 43 l 1
59 42 m 1
 58 42 l 1
 58 41 l 1
 60 41 l 1
 60 43 l 1
 59 43 l 1
 59 42 l 1
63 43 m 1
 61 43 l 1
 61 41 l 1
 63 41 l 1
 63 43 l 1
63 39 m 1
 61 39 l 1
 61 37 l 1
 63 37 l 1
 63 39 l 1
57 35 m 1
 56 35 l 1
 56 33 l 1
 58 33 l 1
 58 34 l 1
 57 34 l 1
 57 35 l 1
60 35 m 1
 58 35 l 1
 58 34 l 1
 59 34 l 1
 59 33 l 1
 60 33 l 1
 60 35 l 1
63 35 m 1
 61 35 l 1
 61 33 l 1
 63 33 l 1
 63 35 l 1
31 31 m 1
 29 31 l 1
 29 29 l 1
 31 29 l 1
 31 31 l 1
31 27 m 1
 29 27 l 1
 29 25 l 1
 31 25 l 1
 31 27 l 1
41 31 m 1
 39 31 l 1
 39 29 l 1
 41 29 l 1
 41 31 l 1
41 27 m 1
 39 27 l 1
 39 25 l 1
 41 25 l 1
 41 27 l 1
44 27 m 1
 42 27 l 1
 42 25 l 1
 43 25 l 1
 43 26 l 1
 44 26 l 1
 44 27 l 1
46 27 m 1
 45 27 l 1
 45 26 l 1
 44 26 l 1
 44 25 l 1
 46 25 l 1
 46 27 l 1
49 31 m 1
 47 31 l 1
 47 29 l 1
 49 29 l 1
 49 31 l 1
55 31 m 1
 53 31 l 1
 53 29 l 1
 55 29 l 1
 55 31 l 1
49 27 m 1
 47 27 l 1
 47 25 l 1
 49 25 l 1
 49 27 l 1
55 27 m 1
 53 27 l 1
 53 25 l 1
 55 25 l 1
 55 27 l 1
58 27 m 1
 56 27 l 1
 56 25 l 1
 57 25 l 1
 57 26 l 1
 58 26 l 1
 58 27 l 1
59 26 m 1
 58 26 l 1
 58 25 l 1
 60 25 l 1
 60 27 l 1
 59 27 l 1
 59 26 l 1
63 27 m 1
 61 27 l 1
 61 25 l 1
 63 25 l 1
 63 27 l 1
EndSplineSet
EndChar

StartChar: custom_0_2_0_6_1
Encoding: 20629 20629 661
Width: 70
Flags: H
LayerCount: 2
Fore
SplineSet
17 43 m 1
 15 43 l 1
 15 41 l 1
 17 41 l 1
 17 43 l 1
17 39 m 1
 15 39 l 1
 15 37 l 1
 17 37 l 1
 17 39 l 1
17 35 m 1
 15 35 l 1
 15 33 l 1
 17 33 l 1
 17 35 l 1
17 31 m 1
 15 31 l 1
 15 29 l 1
 17 29 l 1
 17 31 l 1
17 27 m 1
 15 27 l 1
 15 25 l 1
 17 25 l 1
 17 27 l 1
31 43 m 1
 29 43 l 1
 29 41 l 1
 31 41 l 1
 31 43 l 1
31 39 m 1
 29 39 l 1
 29 37 l 1
 31 37 l 1
 31 39 l 1
31 35 m 1
 29 35 l 1
 29 33 l 1
 31 33 l 1
 31 35 l 1
36 37 m 1
 34 37 l 1
 34 35 l 1
 36 35 l 1
 36 37 l 1
36 33 m 1
 34 33 l 1
 34 31 l 1
 36 31 l 1
 36 33 l 1
41 43 m 1
 39 43 l 1
 39 41 l 1
 41 41 l 1
 41 43 l 1
44 43 m 1
 42 43 l 1
 42 41 l 1
 43 41 l 1
 43 42 l 1
 44 42 l 1
 44 43 l 1
46 43 m 1
 45 43 l 1
 45 42 l 1
 44 42 l 1
 44 41 l 1
 46 41 l 1
 46 43 l 1
49 43 m 1
 47 43 l 1
 47 41 l 1
 49 41 l 1
 49 43 l 1
55 43 m 1
 53 43 l 1
 53 41 l 1
 55 41 l 1
 55 43 l 1
41 39 m 1
 39 39 l 1
 39 37 l 1
 41 37 l 1
 41 39 l 1
41 35 m 1
 39 35 l 1
 39 33 l 1
 41 33 l 1
 41 35 l 1
49 39 m 1
 47 39 l 1
 47 37 l 1
 49 37 l 1
 49 39 l 1
49 35 m 1
 47 35 l 1
 47 33 l 1
 49 33 l 1
 49 35 l 1
55 35 m 1
 53 35 l 1
 53 33 l 1
 55 33 l 1
 55 35 l 1
58 43 m 1
 56 43 l 1
 56 41 l 1
 57 41 l 1
 57 42 l 1
 58 42 l 1
 58 43 l 1
59 42 m 1
 58 42 l 1
 58 41 l 1
 60 41 l 1
 60 43 l 1
 59 43 l 1
 59 42 l 1
63 43 m 1
 61 43 l 1
 61 41 l 1
 63 41 l 1
 63 43 l 1
63 39 m 1
 61 39 l 1
 61 37 l 1
 63 37 l 1
 63 39 l 1
57 35 m 1
 56 35 l 1
 56 33 l 1
 58 33 l 1
 58 34 l 1
 57 34 l 1
 57 35 l 1
60 35 m 1
 58 35 l 1
 58 34 l 1
 59 34 l 1
 59 33 l 1
 60 33 l 1
 60 35 l 1
63 35 m 1
 61 35 l 1
 61 33 l 1
 63 33 l 1
 63 35 l 1
31 31 m 1
 29 31 l 1
 29 29 l 1
 31 29 l 1
 31 31 l 1
31 27 m 1
 29 27 l 1
 29 25 l 1
 31 25 l 1
 31 27 l 1
41 31 m 1
 39 31 l 1
 39 29 l 1
 41 29 l 1
 41 31 l 1
41 27 m 1
 39 27 l 1
 39 25 l 1
 41 25 l 1
 41 27 l 1
44 27 m 1
 42 27 l 1
 42 25 l 1
 43 25 l 1
 43 26 l 1
 44 26 l 1
 44 27 l 1
46 27 m 1
 45 27 l 1
 45 26 l 1
 44 26 l 1
 44 25 l 1
 46 25 l 1
 46 27 l 1
49 31 m 1
 47 31 l 1
 47 29 l 1
 49 29 l 1
 49 31 l 1
55 31 m 1
 53 31 l 1
 53 29 l 1
 55 29 l 1
 55 31 l 1
49 27 m 1
 47 27 l 1
 47 25 l 1
 49 25 l 1
 49 27 l 1
55 27 m 1
 53 27 l 1
 53 25 l 1
 55 25 l 1
 55 27 l 1
58 27 m 1
 56 27 l 1
 56 25 l 1
 57 25 l 1
 57 26 l 1
 58 26 l 1
 58 27 l 1
59 26 m 1
 58 26 l 1
 58 25 l 1
 60 25 l 1
 60 27 l 1
 59 27 l 1
 59 26 l 1
63 27 m 1
 61 27 l 1
 61 25 l 1
 63 25 l 1
 63 27 l 1
EndSplineSet
EndChar

StartChar: custom_0_2_0_6_2
Encoding: 20630 20630 662
Width: 70
Flags: H
LayerCount: 2
Fore
SplineSet
17 43 m 1
 15 43 l 1
 15 41 l 1
 17 41 l 1
 17 43 l 1
17 39 m 1
 15 39 l 1
 15 37 l 1
 17 37 l 1
 17 39 l 1
17 35 m 1
 15 35 l 1
 15 33 l 1
 17 33 l 1
 17 35 l 1
17 31 m 1
 15 31 l 1
 15 29 l 1
 17 29 l 1
 17 31 l 1
17 27 m 1
 15 27 l 1
 15 25 l 1
 17 25 l 1
 17 27 l 1
31 43 m 1
 29 43 l 1
 29 41 l 1
 31 41 l 1
 31 43 l 1
31 39 m 1
 29 39 l 1
 29 37 l 1
 31 37 l 1
 31 39 l 1
31 35 m 1
 29 35 l 1
 29 33 l 1
 31 33 l 1
 31 35 l 1
36 37 m 1
 34 37 l 1
 34 35 l 1
 36 35 l 1
 36 37 l 1
36 33 m 1
 34 33 l 1
 34 31 l 1
 36 31 l 1
 36 33 l 1
41 43 m 1
 39 43 l 1
 39 41 l 1
 41 41 l 1
 41 43 l 1
44 43 m 1
 42 43 l 1
 42 41 l 1
 43 41 l 1
 43 42 l 1
 44 42 l 1
 44 43 l 1
46 43 m 1
 45 43 l 1
 45 42 l 1
 44 42 l 1
 44 41 l 1
 46 41 l 1
 46 43 l 1
49 43 m 1
 47 43 l 1
 47 41 l 1
 49 41 l 1
 49 43 l 1
55 43 m 1
 53 43 l 1
 53 41 l 1
 55 41 l 1
 55 43 l 1
41 39 m 1
 39 39 l 1
 39 37 l 1
 41 37 l 1
 41 39 l 1
41 35 m 1
 39 35 l 1
 39 33 l 1
 41 33 l 1
 41 35 l 1
49 39 m 1
 47 39 l 1
 47 37 l 1
 49 37 l 1
 49 39 l 1
49 35 m 1
 47 35 l 1
 47 33 l 1
 49 33 l 1
 49 35 l 1
55 35 m 1
 53 35 l 1
 53 33 l 1
 55 33 l 1
 55 35 l 1
58 43 m 1
 56 43 l 1
 56 41 l 1
 57 41 l 1
 57 42 l 1
 58 42 l 1
 58 43 l 1
59 42 m 1
 58 42 l 1
 58 41 l 1
 60 41 l 1
 60 43 l 1
 59 43 l 1
 59 42 l 1
63 43 m 1
 61 43 l 1
 61 41 l 1
 63 41 l 1
 63 43 l 1
63 39 m 1
 61 39 l 1
 61 37 l 1
 63 37 l 1
 63 39 l 1
57 35 m 1
 56 35 l 1
 56 33 l 1
 58 33 l 1
 58 34 l 1
 57 34 l 1
 57 35 l 1
60 35 m 1
 58 35 l 1
 58 34 l 1
 59 34 l 1
 59 33 l 1
 60 33 l 1
 60 35 l 1
63 35 m 1
 61 35 l 1
 61 33 l 1
 63 33 l 1
 63 35 l 1
31 31 m 1
 29 31 l 1
 29 29 l 1
 31 29 l 1
 31 31 l 1
31 27 m 1
 29 27 l 1
 29 25 l 1
 31 25 l 1
 31 27 l 1
41 31 m 1
 39 31 l 1
 39 29 l 1
 41 29 l 1
 41 31 l 1
41 27 m 1
 39 27 l 1
 39 25 l 1
 41 25 l 1
 41 27 l 1
44 27 m 1
 42 27 l 1
 42 25 l 1
 43 25 l 1
 43 26 l 1
 44 26 l 1
 44 27 l 1
46 27 m 1
 45 27 l 1
 45 26 l 1
 44 26 l 1
 44 25 l 1
 46 25 l 1
 46 27 l 1
49 31 m 1
 47 31 l 1
 47 29 l 1
 49 29 l 1
 49 31 l 1
55 31 m 1
 53 31 l 1
 53 29 l 1
 55 29 l 1
 55 31 l 1
49 27 m 1
 47 27 l 1
 47 25 l 1
 49 25 l 1
 49 27 l 1
55 27 m 1
 53 27 l 1
 53 25 l 1
 55 25 l 1
 55 27 l 1
58 27 m 1
 56 27 l 1
 56 25 l 1
 57 25 l 1
 57 26 l 1
 58 26 l 1
 58 27 l 1
59 26 m 1
 58 26 l 1
 58 25 l 1
 60 25 l 1
 60 27 l 1
 59 27 l 1
 59 26 l 1
63 27 m 1
 61 27 l 1
 61 25 l 1
 63 25 l 1
 63 27 l 1
EndSplineSet
EndChar

StartChar: custom_0_2_0_6_3
Encoding: 20631 20631 663
Width: 70
Flags: H
LayerCount: 2
Fore
SplineSet
17 43 m 1
 15 43 l 1
 15 41 l 1
 17 41 l 1
 17 43 l 1
17 39 m 1
 15 39 l 1
 15 37 l 1
 17 37 l 1
 17 39 l 1
17 35 m 1
 15 35 l 1
 15 33 l 1
 17 33 l 1
 17 35 l 1
17 31 m 1
 15 31 l 1
 15 29 l 1
 17 29 l 1
 17 31 l 1
17 27 m 1
 15 27 l 1
 15 25 l 1
 17 25 l 1
 17 27 l 1
31 43 m 1
 29 43 l 1
 29 41 l 1
 31 41 l 1
 31 43 l 1
31 39 m 1
 29 39 l 1
 29 37 l 1
 31 37 l 1
 31 39 l 1
31 35 m 1
 29 35 l 1
 29 33 l 1
 31 33 l 1
 31 35 l 1
36 37 m 1
 34 37 l 1
 34 35 l 1
 36 35 l 1
 36 37 l 1
36 33 m 1
 34 33 l 1
 34 31 l 1
 36 31 l 1
 36 33 l 1
41 43 m 1
 39 43 l 1
 39 41 l 1
 41 41 l 1
 41 43 l 1
44 43 m 1
 42 43 l 1
 42 41 l 1
 43 41 l 1
 43 42 l 1
 44 42 l 1
 44 43 l 1
46 43 m 1
 45 43 l 1
 45 42 l 1
 44 42 l 1
 44 41 l 1
 46 41 l 1
 46 43 l 1
49 43 m 1
 47 43 l 1
 47 41 l 1
 49 41 l 1
 49 43 l 1
55 43 m 1
 53 43 l 1
 53 41 l 1
 55 41 l 1
 55 43 l 1
41 39 m 1
 39 39 l 1
 39 37 l 1
 41 37 l 1
 41 39 l 1
41 35 m 1
 39 35 l 1
 39 33 l 1
 41 33 l 1
 41 35 l 1
49 39 m 1
 47 39 l 1
 47 37 l 1
 49 37 l 1
 49 39 l 1
49 35 m 1
 47 35 l 1
 47 33 l 1
 49 33 l 1
 49 35 l 1
55 35 m 1
 53 35 l 1
 53 33 l 1
 55 33 l 1
 55 35 l 1
58 43 m 1
 56 43 l 1
 56 41 l 1
 57 41 l 1
 57 42 l 1
 58 42 l 1
 58 43 l 1
59 42 m 1
 58 42 l 1
 58 41 l 1
 60 41 l 1
 60 43 l 1
 59 43 l 1
 59 42 l 1
63 43 m 1
 61 43 l 1
 61 41 l 1
 63 41 l 1
 63 43 l 1
63 39 m 1
 61 39 l 1
 61 37 l 1
 63 37 l 1
 63 39 l 1
57 35 m 1
 56 35 l 1
 56 33 l 1
 58 33 l 1
 58 34 l 1
 57 34 l 1
 57 35 l 1
60 35 m 1
 58 35 l 1
 58 34 l 1
 59 34 l 1
 59 33 l 1
 60 33 l 1
 60 35 l 1
63 35 m 1
 61 35 l 1
 61 33 l 1
 63 33 l 1
 63 35 l 1
31 31 m 1
 29 31 l 1
 29 29 l 1
 31 29 l 1
 31 31 l 1
31 27 m 1
 29 27 l 1
 29 25 l 1
 31 25 l 1
 31 27 l 1
41 31 m 1
 39 31 l 1
 39 29 l 1
 41 29 l 1
 41 31 l 1
41 27 m 1
 39 27 l 1
 39 25 l 1
 41 25 l 1
 41 27 l 1
44 27 m 1
 42 27 l 1
 42 25 l 1
 43 25 l 1
 43 26 l 1
 44 26 l 1
 44 27 l 1
46 27 m 1
 45 27 l 1
 45 26 l 1
 44 26 l 1
 44 25 l 1
 46 25 l 1
 46 27 l 1
49 31 m 1
 47 31 l 1
 47 29 l 1
 49 29 l 1
 49 31 l 1
55 31 m 1
 53 31 l 1
 53 29 l 1
 55 29 l 1
 55 31 l 1
49 27 m 1
 47 27 l 1
 47 25 l 1
 49 25 l 1
 49 27 l 1
55 27 m 1
 53 27 l 1
 53 25 l 1
 55 25 l 1
 55 27 l 1
58 27 m 1
 56 27 l 1
 56 25 l 1
 57 25 l 1
 57 26 l 1
 58 26 l 1
 58 27 l 1
59 26 m 1
 58 26 l 1
 58 25 l 1
 60 25 l 1
 60 27 l 1
 59 27 l 1
 59 26 l 1
63 27 m 1
 61 27 l 1
 61 25 l 1
 63 25 l 1
 63 27 l 1
EndSplineSet
EndChar

StartChar: custom_0_2_0_6_4
Encoding: 20632 20632 664
Width: 70
Flags: H
LayerCount: 2
Fore
SplineSet
17 43 m 1
 15 43 l 1
 15 41 l 1
 17 41 l 1
 17 43 l 1
17 39 m 1
 15 39 l 1
 15 37 l 1
 17 37 l 1
 17 39 l 1
17 35 m 1
 15 35 l 1
 15 33 l 1
 17 33 l 1
 17 35 l 1
17 31 m 1
 15 31 l 1
 15 29 l 1
 17 29 l 1
 17 31 l 1
17 27 m 1
 15 27 l 1
 15 25 l 1
 17 25 l 1
 17 27 l 1
31 43 m 1
 29 43 l 1
 29 41 l 1
 31 41 l 1
 31 43 l 1
31 39 m 1
 29 39 l 1
 29 37 l 1
 31 37 l 1
 31 39 l 1
31 35 m 1
 29 35 l 1
 29 33 l 1
 31 33 l 1
 31 35 l 1
36 37 m 1
 34 37 l 1
 34 35 l 1
 36 35 l 1
 36 37 l 1
36 33 m 1
 34 33 l 1
 34 31 l 1
 36 31 l 1
 36 33 l 1
41 43 m 1
 39 43 l 1
 39 41 l 1
 41 41 l 1
 41 43 l 1
44 43 m 1
 42 43 l 1
 42 41 l 1
 43 41 l 1
 43 42 l 1
 44 42 l 1
 44 43 l 1
46 43 m 1
 45 43 l 1
 45 42 l 1
 44 42 l 1
 44 41 l 1
 46 41 l 1
 46 43 l 1
49 43 m 1
 47 43 l 1
 47 41 l 1
 49 41 l 1
 49 43 l 1
55 43 m 1
 53 43 l 1
 53 41 l 1
 55 41 l 1
 55 43 l 1
41 39 m 1
 39 39 l 1
 39 37 l 1
 41 37 l 1
 41 39 l 1
41 35 m 1
 39 35 l 1
 39 33 l 1
 41 33 l 1
 41 35 l 1
49 39 m 1
 47 39 l 1
 47 37 l 1
 49 37 l 1
 49 39 l 1
49 35 m 1
 47 35 l 1
 47 33 l 1
 49 33 l 1
 49 35 l 1
55 35 m 1
 53 35 l 1
 53 33 l 1
 55 33 l 1
 55 35 l 1
58 43 m 1
 56 43 l 1
 56 41 l 1
 57 41 l 1
 57 42 l 1
 58 42 l 1
 58 43 l 1
59 42 m 1
 58 42 l 1
 58 41 l 1
 60 41 l 1
 60 43 l 1
 59 43 l 1
 59 42 l 1
63 43 m 1
 61 43 l 1
 61 41 l 1
 63 41 l 1
 63 43 l 1
63 39 m 1
 61 39 l 1
 61 37 l 1
 63 37 l 1
 63 39 l 1
57 35 m 1
 56 35 l 1
 56 33 l 1
 58 33 l 1
 58 34 l 1
 57 34 l 1
 57 35 l 1
60 35 m 1
 58 35 l 1
 58 34 l 1
 59 34 l 1
 59 33 l 1
 60 33 l 1
 60 35 l 1
63 35 m 1
 61 35 l 1
 61 33 l 1
 63 33 l 1
 63 35 l 1
31 31 m 1
 29 31 l 1
 29 29 l 1
 31 29 l 1
 31 31 l 1
31 27 m 1
 29 27 l 1
 29 25 l 1
 31 25 l 1
 31 27 l 1
41 31 m 1
 39 31 l 1
 39 29 l 1
 41 29 l 1
 41 31 l 1
41 27 m 1
 39 27 l 1
 39 25 l 1
 41 25 l 1
 41 27 l 1
44 27 m 1
 42 27 l 1
 42 25 l 1
 43 25 l 1
 43 26 l 1
 44 26 l 1
 44 27 l 1
46 27 m 1
 45 27 l 1
 45 26 l 1
 44 26 l 1
 44 25 l 1
 46 25 l 1
 46 27 l 1
49 31 m 1
 47 31 l 1
 47 29 l 1
 49 29 l 1
 49 31 l 1
55 31 m 1
 53 31 l 1
 53 29 l 1
 55 29 l 1
 55 31 l 1
49 27 m 1
 47 27 l 1
 47 25 l 1
 49 25 l 1
 49 27 l 1
55 27 m 1
 53 27 l 1
 53 25 l 1
 55 25 l 1
 55 27 l 1
58 27 m 1
 56 27 l 1
 56 25 l 1
 57 25 l 1
 57 26 l 1
 58 26 l 1
 58 27 l 1
59 26 m 1
 58 26 l 1
 58 25 l 1
 60 25 l 1
 60 27 l 1
 59 27 l 1
 59 26 l 1
63 27 m 1
 61 27 l 1
 61 25 l 1
 63 25 l 1
 63 27 l 1
EndSplineSet
EndChar

StartChar: custom_0_2_0_6_5
Encoding: 20633 20633 665
Width: 70
Flags: H
LayerCount: 2
Fore
SplineSet
17 43 m 1
 15 43 l 1
 15 41 l 1
 17 41 l 1
 17 43 l 1
17 39 m 1
 15 39 l 1
 15 37 l 1
 17 37 l 1
 17 39 l 1
17 35 m 1
 15 35 l 1
 15 33 l 1
 17 33 l 1
 17 35 l 1
17 31 m 1
 15 31 l 1
 15 29 l 1
 17 29 l 1
 17 31 l 1
17 27 m 1
 15 27 l 1
 15 25 l 1
 17 25 l 1
 17 27 l 1
31 43 m 1
 29 43 l 1
 29 41 l 1
 31 41 l 1
 31 43 l 1
31 39 m 1
 29 39 l 1
 29 37 l 1
 31 37 l 1
 31 39 l 1
31 35 m 1
 29 35 l 1
 29 33 l 1
 31 33 l 1
 31 35 l 1
36 37 m 1
 34 37 l 1
 34 35 l 1
 36 35 l 1
 36 37 l 1
36 33 m 1
 34 33 l 1
 34 31 l 1
 36 31 l 1
 36 33 l 1
41 43 m 1
 39 43 l 1
 39 41 l 1
 41 41 l 1
 41 43 l 1
44 43 m 1
 42 43 l 1
 42 41 l 1
 43 41 l 1
 43 42 l 1
 44 42 l 1
 44 43 l 1
46 43 m 1
 45 43 l 1
 45 42 l 1
 44 42 l 1
 44 41 l 1
 46 41 l 1
 46 43 l 1
49 43 m 1
 47 43 l 1
 47 41 l 1
 49 41 l 1
 49 43 l 1
55 43 m 1
 53 43 l 1
 53 41 l 1
 55 41 l 1
 55 43 l 1
41 39 m 1
 39 39 l 1
 39 37 l 1
 41 37 l 1
 41 39 l 1
41 35 m 1
 39 35 l 1
 39 33 l 1
 41 33 l 1
 41 35 l 1
49 39 m 1
 47 39 l 1
 47 37 l 1
 49 37 l 1
 49 39 l 1
49 35 m 1
 47 35 l 1
 47 33 l 1
 49 33 l 1
 49 35 l 1
55 35 m 1
 53 35 l 1
 53 33 l 1
 55 33 l 1
 55 35 l 1
58 43 m 1
 56 43 l 1
 56 41 l 1
 57 41 l 1
 57 42 l 1
 58 42 l 1
 58 43 l 1
59 42 m 1
 58 42 l 1
 58 41 l 1
 60 41 l 1
 60 43 l 1
 59 43 l 1
 59 42 l 1
63 43 m 1
 61 43 l 1
 61 41 l 1
 63 41 l 1
 63 43 l 1
63 39 m 1
 61 39 l 1
 61 37 l 1
 63 37 l 1
 63 39 l 1
57 35 m 1
 56 35 l 1
 56 33 l 1
 58 33 l 1
 58 34 l 1
 57 34 l 1
 57 35 l 1
60 35 m 1
 58 35 l 1
 58 34 l 1
 59 34 l 1
 59 33 l 1
 60 33 l 1
 60 35 l 1
63 35 m 1
 61 35 l 1
 61 33 l 1
 63 33 l 1
 63 35 l 1
31 31 m 1
 29 31 l 1
 29 29 l 1
 31 29 l 1
 31 31 l 1
31 27 m 1
 29 27 l 1
 29 25 l 1
 31 25 l 1
 31 27 l 1
41 31 m 1
 39 31 l 1
 39 29 l 1
 41 29 l 1
 41 31 l 1
41 27 m 1
 39 27 l 1
 39 25 l 1
 41 25 l 1
 41 27 l 1
44 27 m 1
 42 27 l 1
 42 25 l 1
 43 25 l 1
 43 26 l 1
 44 26 l 1
 44 27 l 1
46 27 m 1
 45 27 l 1
 45 26 l 1
 44 26 l 1
 44 25 l 1
 46 25 l 1
 46 27 l 1
49 31 m 1
 47 31 l 1
 47 29 l 1
 49 29 l 1
 49 31 l 1
55 31 m 1
 53 31 l 1
 53 29 l 1
 55 29 l 1
 55 31 l 1
49 27 m 1
 47 27 l 1
 47 25 l 1
 49 25 l 1
 49 27 l 1
55 27 m 1
 53 27 l 1
 53 25 l 1
 55 25 l 1
 55 27 l 1
58 27 m 1
 56 27 l 1
 56 25 l 1
 57 25 l 1
 57 26 l 1
 58 26 l 1
 58 27 l 1
59 26 m 1
 58 26 l 1
 58 25 l 1
 60 25 l 1
 60 27 l 1
 59 27 l 1
 59 26 l 1
63 27 m 1
 61 27 l 1
 61 25 l 1
 63 25 l 1
 63 27 l 1
EndSplineSet
EndChar

StartChar: custom_0_2_0_6_6
Encoding: 20634 20634 666
Width: 70
Flags: H
LayerCount: 2
Fore
SplineSet
17 43 m 1
 15 43 l 1
 15 41 l 1
 17 41 l 1
 17 43 l 1
17 39 m 1
 15 39 l 1
 15 37 l 1
 17 37 l 1
 17 39 l 1
17 35 m 1
 15 35 l 1
 15 33 l 1
 17 33 l 1
 17 35 l 1
17 31 m 1
 15 31 l 1
 15 29 l 1
 17 29 l 1
 17 31 l 1
17 27 m 1
 15 27 l 1
 15 25 l 1
 17 25 l 1
 17 27 l 1
31 43 m 1
 29 43 l 1
 29 41 l 1
 31 41 l 1
 31 43 l 1
31 39 m 1
 29 39 l 1
 29 37 l 1
 31 37 l 1
 31 39 l 1
31 35 m 1
 29 35 l 1
 29 33 l 1
 31 33 l 1
 31 35 l 1
36 37 m 1
 34 37 l 1
 34 35 l 1
 36 35 l 1
 36 37 l 1
36 33 m 1
 34 33 l 1
 34 31 l 1
 36 31 l 1
 36 33 l 1
41 43 m 1
 39 43 l 1
 39 41 l 1
 41 41 l 1
 41 43 l 1
44 43 m 1
 42 43 l 1
 42 41 l 1
 43 41 l 1
 43 42 l 1
 44 42 l 1
 44 43 l 1
46 43 m 1
 45 43 l 1
 45 42 l 1
 44 42 l 1
 44 41 l 1
 46 41 l 1
 46 43 l 1
49 43 m 1
 47 43 l 1
 47 41 l 1
 49 41 l 1
 49 43 l 1
55 43 m 1
 53 43 l 1
 53 41 l 1
 55 41 l 1
 55 43 l 1
41 39 m 1
 39 39 l 1
 39 37 l 1
 41 37 l 1
 41 39 l 1
41 35 m 1
 39 35 l 1
 39 33 l 1
 41 33 l 1
 41 35 l 1
49 39 m 1
 47 39 l 1
 47 37 l 1
 49 37 l 1
 49 39 l 1
49 35 m 1
 47 35 l 1
 47 33 l 1
 49 33 l 1
 49 35 l 1
55 35 m 1
 53 35 l 1
 53 33 l 1
 55 33 l 1
 55 35 l 1
58 43 m 1
 56 43 l 1
 56 41 l 1
 57 41 l 1
 57 42 l 1
 58 42 l 1
 58 43 l 1
59 42 m 1
 58 42 l 1
 58 41 l 1
 60 41 l 1
 60 43 l 1
 59 43 l 1
 59 42 l 1
63 43 m 1
 61 43 l 1
 61 41 l 1
 63 41 l 1
 63 43 l 1
63 39 m 1
 61 39 l 1
 61 37 l 1
 63 37 l 1
 63 39 l 1
57 35 m 1
 56 35 l 1
 56 33 l 1
 58 33 l 1
 58 34 l 1
 57 34 l 1
 57 35 l 1
60 35 m 1
 58 35 l 1
 58 34 l 1
 59 34 l 1
 59 33 l 1
 60 33 l 1
 60 35 l 1
63 35 m 1
 61 35 l 1
 61 33 l 1
 63 33 l 1
 63 35 l 1
31 31 m 1
 29 31 l 1
 29 29 l 1
 31 29 l 1
 31 31 l 1
31 27 m 1
 29 27 l 1
 29 25 l 1
 31 25 l 1
 31 27 l 1
41 31 m 1
 39 31 l 1
 39 29 l 1
 41 29 l 1
 41 31 l 1
41 27 m 1
 39 27 l 1
 39 25 l 1
 41 25 l 1
 41 27 l 1
44 27 m 1
 42 27 l 1
 42 25 l 1
 43 25 l 1
 43 26 l 1
 44 26 l 1
 44 27 l 1
46 27 m 1
 45 27 l 1
 45 26 l 1
 44 26 l 1
 44 25 l 1
 46 25 l 1
 46 27 l 1
49 31 m 1
 47 31 l 1
 47 29 l 1
 49 29 l 1
 49 31 l 1
55 31 m 1
 53 31 l 1
 53 29 l 1
 55 29 l 1
 55 31 l 1
49 27 m 1
 47 27 l 1
 47 25 l 1
 49 25 l 1
 49 27 l 1
55 27 m 1
 53 27 l 1
 53 25 l 1
 55 25 l 1
 55 27 l 1
58 27 m 1
 56 27 l 1
 56 25 l 1
 57 25 l 1
 57 26 l 1
 58 26 l 1
 58 27 l 1
59 26 m 1
 58 26 l 1
 58 25 l 1
 60 25 l 1
 60 27 l 1
 59 27 l 1
 59 26 l 1
63 27 m 1
 61 27 l 1
 61 25 l 1
 63 25 l 1
 63 27 l 1
EndSplineSet
EndChar

StartChar: custom_0_2_0_6_7
Encoding: 20635 20635 667
Width: 70
Flags: H
LayerCount: 2
Fore
SplineSet
17 43 m 1
 15 43 l 1
 15 41 l 1
 17 41 l 1
 17 43 l 1
17 39 m 1
 15 39 l 1
 15 37 l 1
 17 37 l 1
 17 39 l 1
17 35 m 1
 15 35 l 1
 15 33 l 1
 17 33 l 1
 17 35 l 1
17 31 m 1
 15 31 l 1
 15 29 l 1
 17 29 l 1
 17 31 l 1
17 27 m 1
 15 27 l 1
 15 25 l 1
 17 25 l 1
 17 27 l 1
31 43 m 1
 29 43 l 1
 29 41 l 1
 31 41 l 1
 31 43 l 1
31 39 m 1
 29 39 l 1
 29 37 l 1
 31 37 l 1
 31 39 l 1
31 35 m 1
 29 35 l 1
 29 33 l 1
 31 33 l 1
 31 35 l 1
36 37 m 1
 34 37 l 1
 34 35 l 1
 36 35 l 1
 36 37 l 1
36 33 m 1
 34 33 l 1
 34 31 l 1
 36 31 l 1
 36 33 l 1
41 43 m 1
 39 43 l 1
 39 41 l 1
 41 41 l 1
 41 43 l 1
44 43 m 1
 42 43 l 1
 42 41 l 1
 43 41 l 1
 43 42 l 1
 44 42 l 1
 44 43 l 1
46 43 m 1
 45 43 l 1
 45 42 l 1
 44 42 l 1
 44 41 l 1
 46 41 l 1
 46 43 l 1
49 43 m 1
 47 43 l 1
 47 41 l 1
 49 41 l 1
 49 43 l 1
55 43 m 1
 53 43 l 1
 53 41 l 1
 55 41 l 1
 55 43 l 1
41 39 m 1
 39 39 l 1
 39 37 l 1
 41 37 l 1
 41 39 l 1
41 35 m 1
 39 35 l 1
 39 33 l 1
 41 33 l 1
 41 35 l 1
49 39 m 1
 47 39 l 1
 47 37 l 1
 49 37 l 1
 49 39 l 1
49 35 m 1
 47 35 l 1
 47 33 l 1
 49 33 l 1
 49 35 l 1
55 35 m 1
 53 35 l 1
 53 33 l 1
 55 33 l 1
 55 35 l 1
58 43 m 1
 56 43 l 1
 56 41 l 1
 57 41 l 1
 57 42 l 1
 58 42 l 1
 58 43 l 1
59 42 m 1
 58 42 l 1
 58 41 l 1
 60 41 l 1
 60 43 l 1
 59 43 l 1
 59 42 l 1
63 43 m 1
 61 43 l 1
 61 41 l 1
 63 41 l 1
 63 43 l 1
63 39 m 1
 61 39 l 1
 61 37 l 1
 63 37 l 1
 63 39 l 1
57 35 m 1
 56 35 l 1
 56 33 l 1
 58 33 l 1
 58 34 l 1
 57 34 l 1
 57 35 l 1
60 35 m 1
 58 35 l 1
 58 34 l 1
 59 34 l 1
 59 33 l 1
 60 33 l 1
 60 35 l 1
63 35 m 1
 61 35 l 1
 61 33 l 1
 63 33 l 1
 63 35 l 1
31 31 m 1
 29 31 l 1
 29 29 l 1
 31 29 l 1
 31 31 l 1
31 27 m 1
 29 27 l 1
 29 25 l 1
 31 25 l 1
 31 27 l 1
41 31 m 1
 39 31 l 1
 39 29 l 1
 41 29 l 1
 41 31 l 1
41 27 m 1
 39 27 l 1
 39 25 l 1
 41 25 l 1
 41 27 l 1
44 27 m 1
 42 27 l 1
 42 25 l 1
 43 25 l 1
 43 26 l 1
 44 26 l 1
 44 27 l 1
46 27 m 1
 45 27 l 1
 45 26 l 1
 44 26 l 1
 44 25 l 1
 46 25 l 1
 46 27 l 1
49 31 m 1
 47 31 l 1
 47 29 l 1
 49 29 l 1
 49 31 l 1
55 31 m 1
 53 31 l 1
 53 29 l 1
 55 29 l 1
 55 31 l 1
49 27 m 1
 47 27 l 1
 47 25 l 1
 49 25 l 1
 49 27 l 1
55 27 m 1
 53 27 l 1
 53 25 l 1
 55 25 l 1
 55 27 l 1
58 27 m 1
 56 27 l 1
 56 25 l 1
 57 25 l 1
 57 26 l 1
 58 26 l 1
 58 27 l 1
59 26 m 1
 58 26 l 1
 58 25 l 1
 60 25 l 1
 60 27 l 1
 59 27 l 1
 59 26 l 1
63 27 m 1
 61 27 l 1
 61 25 l 1
 63 25 l 1
 63 27 l 1
EndSplineSet
EndChar

StartChar: custom_0_2_0_6_8
Encoding: 20636 20636 668
Width: 70
Flags: H
LayerCount: 2
Fore
SplineSet
17 43 m 1
 15 43 l 1
 15 41 l 1
 17 41 l 1
 17 43 l 1
17 39 m 1
 15 39 l 1
 15 37 l 1
 17 37 l 1
 17 39 l 1
17 35 m 1
 15 35 l 1
 15 33 l 1
 17 33 l 1
 17 35 l 1
17 31 m 1
 15 31 l 1
 15 29 l 1
 17 29 l 1
 17 31 l 1
17 27 m 1
 15 27 l 1
 15 25 l 1
 17 25 l 1
 17 27 l 1
31 43 m 1
 29 43 l 1
 29 41 l 1
 31 41 l 1
 31 43 l 1
31 39 m 1
 29 39 l 1
 29 37 l 1
 31 37 l 1
 31 39 l 1
31 35 m 1
 29 35 l 1
 29 33 l 1
 31 33 l 1
 31 35 l 1
36 37 m 1
 34 37 l 1
 34 35 l 1
 36 35 l 1
 36 37 l 1
36 33 m 1
 34 33 l 1
 34 31 l 1
 36 31 l 1
 36 33 l 1
41 43 m 1
 39 43 l 1
 39 41 l 1
 41 41 l 1
 41 43 l 1
44 43 m 1
 42 43 l 1
 42 41 l 1
 43 41 l 1
 43 42 l 1
 44 42 l 1
 44 43 l 1
46 43 m 1
 45 43 l 1
 45 42 l 1
 44 42 l 1
 44 41 l 1
 46 41 l 1
 46 43 l 1
49 43 m 1
 47 43 l 1
 47 41 l 1
 49 41 l 1
 49 43 l 1
55 43 m 1
 53 43 l 1
 53 41 l 1
 55 41 l 1
 55 43 l 1
41 39 m 1
 39 39 l 1
 39 37 l 1
 41 37 l 1
 41 39 l 1
41 35 m 1
 39 35 l 1
 39 33 l 1
 41 33 l 1
 41 35 l 1
49 39 m 1
 47 39 l 1
 47 37 l 1
 49 37 l 1
 49 39 l 1
49 35 m 1
 47 35 l 1
 47 33 l 1
 49 33 l 1
 49 35 l 1
55 35 m 1
 53 35 l 1
 53 33 l 1
 55 33 l 1
 55 35 l 1
58 43 m 1
 56 43 l 1
 56 41 l 1
 57 41 l 1
 57 42 l 1
 58 42 l 1
 58 43 l 1
59 42 m 1
 58 42 l 1
 58 41 l 1
 60 41 l 1
 60 43 l 1
 59 43 l 1
 59 42 l 1
63 43 m 1
 61 43 l 1
 61 41 l 1
 63 41 l 1
 63 43 l 1
63 39 m 1
 61 39 l 1
 61 37 l 1
 63 37 l 1
 63 39 l 1
57 35 m 1
 56 35 l 1
 56 33 l 1
 58 33 l 1
 58 34 l 1
 57 34 l 1
 57 35 l 1
60 35 m 1
 58 35 l 1
 58 34 l 1
 59 34 l 1
 59 33 l 1
 60 33 l 1
 60 35 l 1
63 35 m 1
 61 35 l 1
 61 33 l 1
 63 33 l 1
 63 35 l 1
31 31 m 1
 29 31 l 1
 29 29 l 1
 31 29 l 1
 31 31 l 1
31 27 m 1
 29 27 l 1
 29 25 l 1
 31 25 l 1
 31 27 l 1
41 31 m 1
 39 31 l 1
 39 29 l 1
 41 29 l 1
 41 31 l 1
41 27 m 1
 39 27 l 1
 39 25 l 1
 41 25 l 1
 41 27 l 1
44 27 m 1
 42 27 l 1
 42 25 l 1
 43 25 l 1
 43 26 l 1
 44 26 l 1
 44 27 l 1
46 27 m 1
 45 27 l 1
 45 26 l 1
 44 26 l 1
 44 25 l 1
 46 25 l 1
 46 27 l 1
49 31 m 1
 47 31 l 1
 47 29 l 1
 49 29 l 1
 49 31 l 1
55 31 m 1
 53 31 l 1
 53 29 l 1
 55 29 l 1
 55 31 l 1
49 27 m 1
 47 27 l 1
 47 25 l 1
 49 25 l 1
 49 27 l 1
55 27 m 1
 53 27 l 1
 53 25 l 1
 55 25 l 1
 55 27 l 1
58 27 m 1
 56 27 l 1
 56 25 l 1
 57 25 l 1
 57 26 l 1
 58 26 l 1
 58 27 l 1
59 26 m 1
 58 26 l 1
 58 25 l 1
 60 25 l 1
 60 27 l 1
 59 27 l 1
 59 26 l 1
63 27 m 1
 61 27 l 1
 61 25 l 1
 63 25 l 1
 63 27 l 1
EndSplineSet
EndChar

StartChar: custom_0_2_0_6_9
Encoding: 20637 20637 669
Width: 70
Flags: H
LayerCount: 2
Fore
SplineSet
17 43 m 1
 15 43 l 1
 15 41 l 1
 17 41 l 1
 17 43 l 1
17 39 m 1
 15 39 l 1
 15 37 l 1
 17 37 l 1
 17 39 l 1
17 35 m 1
 15 35 l 1
 15 33 l 1
 17 33 l 1
 17 35 l 1
17 31 m 1
 15 31 l 1
 15 29 l 1
 17 29 l 1
 17 31 l 1
17 27 m 1
 15 27 l 1
 15 25 l 1
 17 25 l 1
 17 27 l 1
31 43 m 1
 29 43 l 1
 29 41 l 1
 31 41 l 1
 31 43 l 1
31 39 m 1
 29 39 l 1
 29 37 l 1
 31 37 l 1
 31 39 l 1
31 35 m 1
 29 35 l 1
 29 33 l 1
 31 33 l 1
 31 35 l 1
36 37 m 1
 34 37 l 1
 34 35 l 1
 36 35 l 1
 36 37 l 1
36 33 m 1
 34 33 l 1
 34 31 l 1
 36 31 l 1
 36 33 l 1
41 43 m 1
 39 43 l 1
 39 41 l 1
 41 41 l 1
 41 43 l 1
44 43 m 1
 42 43 l 1
 42 41 l 1
 43 41 l 1
 43 42 l 1
 44 42 l 1
 44 43 l 1
46 43 m 1
 45 43 l 1
 45 42 l 1
 44 42 l 1
 44 41 l 1
 46 41 l 1
 46 43 l 1
49 43 m 1
 47 43 l 1
 47 41 l 1
 49 41 l 1
 49 43 l 1
55 43 m 1
 53 43 l 1
 53 41 l 1
 55 41 l 1
 55 43 l 1
41 39 m 1
 39 39 l 1
 39 37 l 1
 41 37 l 1
 41 39 l 1
41 35 m 1
 39 35 l 1
 39 33 l 1
 41 33 l 1
 41 35 l 1
49 39 m 1
 47 39 l 1
 47 37 l 1
 49 37 l 1
 49 39 l 1
49 35 m 1
 47 35 l 1
 47 33 l 1
 49 33 l 1
 49 35 l 1
55 35 m 1
 53 35 l 1
 53 33 l 1
 55 33 l 1
 55 35 l 1
58 43 m 1
 56 43 l 1
 56 41 l 1
 57 41 l 1
 57 42 l 1
 58 42 l 1
 58 43 l 1
59 42 m 1
 58 42 l 1
 58 41 l 1
 60 41 l 1
 60 43 l 1
 59 43 l 1
 59 42 l 1
63 43 m 1
 61 43 l 1
 61 41 l 1
 63 41 l 1
 63 43 l 1
63 39 m 1
 61 39 l 1
 61 37 l 1
 63 37 l 1
 63 39 l 1
57 35 m 1
 56 35 l 1
 56 33 l 1
 58 33 l 1
 58 34 l 1
 57 34 l 1
 57 35 l 1
60 35 m 1
 58 35 l 1
 58 34 l 1
 59 34 l 1
 59 33 l 1
 60 33 l 1
 60 35 l 1
63 35 m 1
 61 35 l 1
 61 33 l 1
 63 33 l 1
 63 35 l 1
31 31 m 1
 29 31 l 1
 29 29 l 1
 31 29 l 1
 31 31 l 1
31 27 m 1
 29 27 l 1
 29 25 l 1
 31 25 l 1
 31 27 l 1
41 31 m 1
 39 31 l 1
 39 29 l 1
 41 29 l 1
 41 31 l 1
41 27 m 1
 39 27 l 1
 39 25 l 1
 41 25 l 1
 41 27 l 1
44 27 m 1
 42 27 l 1
 42 25 l 1
 43 25 l 1
 43 26 l 1
 44 26 l 1
 44 27 l 1
46 27 m 1
 45 27 l 1
 45 26 l 1
 44 26 l 1
 44 25 l 1
 46 25 l 1
 46 27 l 1
49 31 m 1
 47 31 l 1
 47 29 l 1
 49 29 l 1
 49 31 l 1
55 31 m 1
 53 31 l 1
 53 29 l 1
 55 29 l 1
 55 31 l 1
49 27 m 1
 47 27 l 1
 47 25 l 1
 49 25 l 1
 49 27 l 1
55 27 m 1
 53 27 l 1
 53 25 l 1
 55 25 l 1
 55 27 l 1
58 27 m 1
 56 27 l 1
 56 25 l 1
 57 25 l 1
 57 26 l 1
 58 26 l 1
 58 27 l 1
59 26 m 1
 58 26 l 1
 58 25 l 1
 60 25 l 1
 60 27 l 1
 59 27 l 1
 59 26 l 1
63 27 m 1
 61 27 l 1
 61 25 l 1
 63 25 l 1
 63 27 l 1
61 -1 m 1
 60 -1 l 1
 60 -2 l 1
 61 -2 l 1
 61 -1 l 1
EndSplineSet
EndChar

StartChar: custom_0_2_0_7_0
Encoding: 20638 20638 670
Width: 70
Flags: H
LayerCount: 2
Fore
SplineSet
17 43 m 1
 15 43 l 1
 15 41 l 1
 17 41 l 1
 17 43 l 1
17 39 m 1
 15 39 l 1
 15 37 l 1
 17 37 l 1
 17 39 l 1
17 35 m 1
 15 35 l 1
 15 33 l 1
 17 33 l 1
 17 35 l 1
17 31 m 1
 15 31 l 1
 15 29 l 1
 17 29 l 1
 17 31 l 1
17 27 m 1
 15 27 l 1
 15 25 l 1
 17 25 l 1
 17 27 l 1
31 43 m 1
 29 43 l 1
 29 41 l 1
 31 41 l 1
 31 43 l 1
31 39 m 1
 29 39 l 1
 29 37 l 1
 31 37 l 1
 31 39 l 1
31 35 m 1
 29 35 l 1
 29 33 l 1
 31 33 l 1
 31 35 l 1
36 37 m 1
 34 37 l 1
 34 35 l 1
 36 35 l 1
 36 37 l 1
36 33 m 1
 34 33 l 1
 34 31 l 1
 36 31 l 1
 36 33 l 1
41 43 m 1
 39 43 l 1
 39 41 l 1
 41 41 l 1
 41 43 l 1
44 43 m 1
 42 43 l 1
 42 41 l 1
 43 41 l 1
 43 42 l 1
 44 42 l 1
 44 43 l 1
46 43 m 1
 45 43 l 1
 45 42 l 1
 44 42 l 1
 44 41 l 1
 46 41 l 1
 46 43 l 1
49 43 m 1
 47 43 l 1
 47 41 l 1
 49 41 l 1
 49 43 l 1
55 43 m 1
 53 43 l 1
 53 41 l 1
 55 41 l 1
 55 43 l 1
41 39 m 1
 39 39 l 1
 39 37 l 1
 41 37 l 1
 41 39 l 1
41 35 m 1
 39 35 l 1
 39 33 l 1
 41 33 l 1
 41 35 l 1
49 39 m 1
 47 39 l 1
 47 37 l 1
 49 37 l 1
 49 39 l 1
49 35 m 1
 47 35 l 1
 47 33 l 1
 49 33 l 1
 49 35 l 1
55 35 m 1
 53 35 l 1
 53 33 l 1
 55 33 l 1
 55 35 l 1
58 43 m 1
 56 43 l 1
 56 41 l 1
 57 41 l 1
 57 42 l 1
 58 42 l 1
 58 43 l 1
59 42 m 1
 58 42 l 1
 58 41 l 1
 60 41 l 1
 60 43 l 1
 59 43 l 1
 59 42 l 1
63 43 m 1
 61 43 l 1
 61 41 l 1
 63 41 l 1
 63 43 l 1
63 39 m 1
 61 39 l 1
 61 37 l 1
 63 37 l 1
 63 39 l 1
57 35 m 1
 56 35 l 1
 56 33 l 1
 58 33 l 1
 58 34 l 1
 57 34 l 1
 57 35 l 1
60 35 m 1
 58 35 l 1
 58 34 l 1
 59 34 l 1
 59 33 l 1
 60 33 l 1
 60 35 l 1
63 35 m 1
 61 35 l 1
 61 33 l 1
 63 33 l 1
 63 35 l 1
31 31 m 1
 29 31 l 1
 29 29 l 1
 31 29 l 1
 31 31 l 1
31 27 m 1
 29 27 l 1
 29 25 l 1
 31 25 l 1
 31 27 l 1
41 31 m 1
 39 31 l 1
 39 29 l 1
 41 29 l 1
 41 31 l 1
41 27 m 1
 39 27 l 1
 39 25 l 1
 41 25 l 1
 41 27 l 1
44 27 m 1
 42 27 l 1
 42 25 l 1
 43 25 l 1
 43 26 l 1
 44 26 l 1
 44 27 l 1
46 27 m 1
 45 27 l 1
 45 26 l 1
 44 26 l 1
 44 25 l 1
 46 25 l 1
 46 27 l 1
49 31 m 1
 47 31 l 1
 47 29 l 1
 49 29 l 1
 49 31 l 1
55 31 m 1
 53 31 l 1
 53 29 l 1
 55 29 l 1
 55 31 l 1
49 27 m 1
 47 27 l 1
 47 25 l 1
 49 25 l 1
 49 27 l 1
55 27 m 1
 53 27 l 1
 53 25 l 1
 55 25 l 1
 55 27 l 1
58 27 m 1
 56 27 l 1
 56 25 l 1
 57 25 l 1
 57 26 l 1
 58 26 l 1
 58 27 l 1
59 26 m 1
 58 26 l 1
 58 25 l 1
 60 25 l 1
 60 27 l 1
 59 27 l 1
 59 26 l 1
63 27 m 1
 61 27 l 1
 61 25 l 1
 63 25 l 1
 63 27 l 1
61 -1 m 1
 59 -1 l 1
 59 -2 l 1
 61 -2 l 1
 61 -1 l 1
EndSplineSet
EndChar

StartChar: custom_0_2_0_7_1
Encoding: 20639 20639 671
Width: 70
Flags: H
LayerCount: 2
Fore
SplineSet
17 43 m 1
 15 43 l 1
 15 41 l 1
 17 41 l 1
 17 43 l 1
17 39 m 1
 15 39 l 1
 15 37 l 1
 17 37 l 1
 17 39 l 1
17 35 m 1
 15 35 l 1
 15 33 l 1
 17 33 l 1
 17 35 l 1
17 31 m 1
 15 31 l 1
 15 29 l 1
 17 29 l 1
 17 31 l 1
17 27 m 1
 15 27 l 1
 15 25 l 1
 17 25 l 1
 17 27 l 1
31 43 m 1
 29 43 l 1
 29 41 l 1
 31 41 l 1
 31 43 l 1
31 39 m 1
 29 39 l 1
 29 37 l 1
 31 37 l 1
 31 39 l 1
31 35 m 1
 29 35 l 1
 29 33 l 1
 31 33 l 1
 31 35 l 1
36 37 m 1
 34 37 l 1
 34 35 l 1
 36 35 l 1
 36 37 l 1
36 33 m 1
 34 33 l 1
 34 31 l 1
 36 31 l 1
 36 33 l 1
41 43 m 1
 39 43 l 1
 39 41 l 1
 41 41 l 1
 41 43 l 1
44 43 m 1
 42 43 l 1
 42 41 l 1
 43 41 l 1
 43 42 l 1
 44 42 l 1
 44 43 l 1
46 43 m 1
 45 43 l 1
 45 42 l 1
 44 42 l 1
 44 41 l 1
 46 41 l 1
 46 43 l 1
49 43 m 1
 47 43 l 1
 47 41 l 1
 49 41 l 1
 49 43 l 1
55 43 m 1
 53 43 l 1
 53 41 l 1
 55 41 l 1
 55 43 l 1
41 39 m 1
 39 39 l 1
 39 37 l 1
 41 37 l 1
 41 39 l 1
41 35 m 1
 39 35 l 1
 39 33 l 1
 41 33 l 1
 41 35 l 1
49 39 m 1
 47 39 l 1
 47 37 l 1
 49 37 l 1
 49 39 l 1
49 35 m 1
 47 35 l 1
 47 33 l 1
 49 33 l 1
 49 35 l 1
55 35 m 1
 53 35 l 1
 53 33 l 1
 55 33 l 1
 55 35 l 1
58 43 m 1
 56 43 l 1
 56 41 l 1
 57 41 l 1
 57 42 l 1
 58 42 l 1
 58 43 l 1
59 42 m 1
 58 42 l 1
 58 41 l 1
 60 41 l 1
 60 43 l 1
 59 43 l 1
 59 42 l 1
63 43 m 1
 61 43 l 1
 61 41 l 1
 63 41 l 1
 63 43 l 1
63 39 m 1
 61 39 l 1
 61 37 l 1
 63 37 l 1
 63 39 l 1
57 35 m 1
 56 35 l 1
 56 33 l 1
 58 33 l 1
 58 34 l 1
 57 34 l 1
 57 35 l 1
60 35 m 1
 58 35 l 1
 58 34 l 1
 59 34 l 1
 59 33 l 1
 60 33 l 1
 60 35 l 1
63 35 m 1
 61 35 l 1
 61 33 l 1
 63 33 l 1
 63 35 l 1
31 31 m 1
 29 31 l 1
 29 29 l 1
 31 29 l 1
 31 31 l 1
31 27 m 1
 29 27 l 1
 29 25 l 1
 31 25 l 1
 31 27 l 1
41 31 m 1
 39 31 l 1
 39 29 l 1
 41 29 l 1
 41 31 l 1
41 27 m 1
 39 27 l 1
 39 25 l 1
 41 25 l 1
 41 27 l 1
44 27 m 1
 42 27 l 1
 42 25 l 1
 43 25 l 1
 43 26 l 1
 44 26 l 1
 44 27 l 1
46 27 m 1
 45 27 l 1
 45 26 l 1
 44 26 l 1
 44 25 l 1
 46 25 l 1
 46 27 l 1
49 31 m 1
 47 31 l 1
 47 29 l 1
 49 29 l 1
 49 31 l 1
55 31 m 1
 53 31 l 1
 53 29 l 1
 55 29 l 1
 55 31 l 1
49 27 m 1
 47 27 l 1
 47 25 l 1
 49 25 l 1
 49 27 l 1
55 27 m 1
 53 27 l 1
 53 25 l 1
 55 25 l 1
 55 27 l 1
58 27 m 1
 56 27 l 1
 56 25 l 1
 57 25 l 1
 57 26 l 1
 58 26 l 1
 58 27 l 1
59 26 m 1
 58 26 l 1
 58 25 l 1
 60 25 l 1
 60 27 l 1
 59 27 l 1
 59 26 l 1
63 27 m 1
 61 27 l 1
 61 25 l 1
 63 25 l 1
 63 27 l 1
61 -1 m 1
 59 -1 l 1
 59 -2 l 1
 61 -2 l 1
 61 -1 l 1
EndSplineSet
EndChar

StartChar: custom_0_2_0_7_2
Encoding: 20640 20640 672
Width: 70
Flags: H
LayerCount: 2
Fore
SplineSet
17 43 m 1
 15 43 l 1
 15 41 l 1
 17 41 l 1
 17 43 l 1
17 39 m 1
 15 39 l 1
 15 37 l 1
 17 37 l 1
 17 39 l 1
17 35 m 1
 15 35 l 1
 15 33 l 1
 17 33 l 1
 17 35 l 1
17 31 m 1
 15 31 l 1
 15 29 l 1
 17 29 l 1
 17 31 l 1
17 27 m 1
 15 27 l 1
 15 25 l 1
 17 25 l 1
 17 27 l 1
31 43 m 1
 29 43 l 1
 29 41 l 1
 31 41 l 1
 31 43 l 1
31 39 m 1
 29 39 l 1
 29 37 l 1
 31 37 l 1
 31 39 l 1
31 35 m 1
 29 35 l 1
 29 33 l 1
 31 33 l 1
 31 35 l 1
36 37 m 1
 34 37 l 1
 34 35 l 1
 36 35 l 1
 36 37 l 1
36 33 m 1
 34 33 l 1
 34 31 l 1
 36 31 l 1
 36 33 l 1
41 43 m 1
 39 43 l 1
 39 41 l 1
 41 41 l 1
 41 43 l 1
44 43 m 1
 42 43 l 1
 42 41 l 1
 43 41 l 1
 43 42 l 1
 44 42 l 1
 44 43 l 1
46 43 m 1
 45 43 l 1
 45 42 l 1
 44 42 l 1
 44 41 l 1
 46 41 l 1
 46 43 l 1
49 43 m 1
 47 43 l 1
 47 41 l 1
 49 41 l 1
 49 43 l 1
55 43 m 1
 53 43 l 1
 53 41 l 1
 55 41 l 1
 55 43 l 1
41 39 m 1
 39 39 l 1
 39 37 l 1
 41 37 l 1
 41 39 l 1
41 35 m 1
 39 35 l 1
 39 33 l 1
 41 33 l 1
 41 35 l 1
49 39 m 1
 47 39 l 1
 47 37 l 1
 49 37 l 1
 49 39 l 1
49 35 m 1
 47 35 l 1
 47 33 l 1
 49 33 l 1
 49 35 l 1
55 35 m 1
 53 35 l 1
 53 33 l 1
 55 33 l 1
 55 35 l 1
58 43 m 1
 56 43 l 1
 56 41 l 1
 57 41 l 1
 57 42 l 1
 58 42 l 1
 58 43 l 1
59 42 m 1
 58 42 l 1
 58 41 l 1
 60 41 l 1
 60 43 l 1
 59 43 l 1
 59 42 l 1
63 43 m 1
 61 43 l 1
 61 41 l 1
 63 41 l 1
 63 43 l 1
63 39 m 1
 61 39 l 1
 61 37 l 1
 63 37 l 1
 63 39 l 1
57 35 m 1
 56 35 l 1
 56 33 l 1
 58 33 l 1
 58 34 l 1
 57 34 l 1
 57 35 l 1
60 35 m 1
 58 35 l 1
 58 34 l 1
 59 34 l 1
 59 33 l 1
 60 33 l 1
 60 35 l 1
63 35 m 1
 61 35 l 1
 61 33 l 1
 63 33 l 1
 63 35 l 1
31 31 m 1
 29 31 l 1
 29 29 l 1
 31 29 l 1
 31 31 l 1
31 27 m 1
 29 27 l 1
 29 25 l 1
 31 25 l 1
 31 27 l 1
41 31 m 1
 39 31 l 1
 39 29 l 1
 41 29 l 1
 41 31 l 1
41 27 m 1
 39 27 l 1
 39 25 l 1
 41 25 l 1
 41 27 l 1
44 27 m 1
 42 27 l 1
 42 25 l 1
 43 25 l 1
 43 26 l 1
 44 26 l 1
 44 27 l 1
46 27 m 1
 45 27 l 1
 45 26 l 1
 44 26 l 1
 44 25 l 1
 46 25 l 1
 46 27 l 1
49 31 m 1
 47 31 l 1
 47 29 l 1
 49 29 l 1
 49 31 l 1
55 31 m 1
 53 31 l 1
 53 29 l 1
 55 29 l 1
 55 31 l 1
49 27 m 1
 47 27 l 1
 47 25 l 1
 49 25 l 1
 49 27 l 1
55 27 m 1
 53 27 l 1
 53 25 l 1
 55 25 l 1
 55 27 l 1
58 27 m 1
 56 27 l 1
 56 25 l 1
 57 25 l 1
 57 26 l 1
 58 26 l 1
 58 27 l 1
59 26 m 1
 58 26 l 1
 58 25 l 1
 60 25 l 1
 60 27 l 1
 59 27 l 1
 59 26 l 1
63 27 m 1
 61 27 l 1
 61 25 l 1
 63 25 l 1
 63 27 l 1
61 -1 m 1
 58 -1 l 1
 58 -2 l 1
 61 -2 l 1
 61 -1 l 1
EndSplineSet
EndChar

StartChar: custom_0_2_0_7_3
Encoding: 20641 20641 673
Width: 70
Flags: H
LayerCount: 2
Fore
SplineSet
17 43 m 1
 15 43 l 1
 15 41 l 1
 17 41 l 1
 17 43 l 1
17 39 m 1
 15 39 l 1
 15 37 l 1
 17 37 l 1
 17 39 l 1
17 35 m 1
 15 35 l 1
 15 33 l 1
 17 33 l 1
 17 35 l 1
17 31 m 1
 15 31 l 1
 15 29 l 1
 17 29 l 1
 17 31 l 1
17 27 m 1
 15 27 l 1
 15 25 l 1
 17 25 l 1
 17 27 l 1
31 43 m 1
 29 43 l 1
 29 41 l 1
 31 41 l 1
 31 43 l 1
31 39 m 1
 29 39 l 1
 29 37 l 1
 31 37 l 1
 31 39 l 1
31 35 m 1
 29 35 l 1
 29 33 l 1
 31 33 l 1
 31 35 l 1
36 37 m 1
 34 37 l 1
 34 35 l 1
 36 35 l 1
 36 37 l 1
36 33 m 1
 34 33 l 1
 34 31 l 1
 36 31 l 1
 36 33 l 1
41 43 m 1
 39 43 l 1
 39 41 l 1
 41 41 l 1
 41 43 l 1
44 43 m 1
 42 43 l 1
 42 41 l 1
 43 41 l 1
 43 42 l 1
 44 42 l 1
 44 43 l 1
46 43 m 1
 45 43 l 1
 45 42 l 1
 44 42 l 1
 44 41 l 1
 46 41 l 1
 46 43 l 1
49 43 m 1
 47 43 l 1
 47 41 l 1
 49 41 l 1
 49 43 l 1
55 43 m 1
 53 43 l 1
 53 41 l 1
 55 41 l 1
 55 43 l 1
41 39 m 1
 39 39 l 1
 39 37 l 1
 41 37 l 1
 41 39 l 1
41 35 m 1
 39 35 l 1
 39 33 l 1
 41 33 l 1
 41 35 l 1
49 39 m 1
 47 39 l 1
 47 37 l 1
 49 37 l 1
 49 39 l 1
49 35 m 1
 47 35 l 1
 47 33 l 1
 49 33 l 1
 49 35 l 1
55 35 m 1
 53 35 l 1
 53 33 l 1
 55 33 l 1
 55 35 l 1
58 43 m 1
 56 43 l 1
 56 41 l 1
 57 41 l 1
 57 42 l 1
 58 42 l 1
 58 43 l 1
59 42 m 1
 58 42 l 1
 58 41 l 1
 60 41 l 1
 60 43 l 1
 59 43 l 1
 59 42 l 1
63 43 m 1
 61 43 l 1
 61 41 l 1
 63 41 l 1
 63 43 l 1
63 39 m 1
 61 39 l 1
 61 37 l 1
 63 37 l 1
 63 39 l 1
57 35 m 1
 56 35 l 1
 56 33 l 1
 58 33 l 1
 58 34 l 1
 57 34 l 1
 57 35 l 1
60 35 m 1
 58 35 l 1
 58 34 l 1
 59 34 l 1
 59 33 l 1
 60 33 l 1
 60 35 l 1
63 35 m 1
 61 35 l 1
 61 33 l 1
 63 33 l 1
 63 35 l 1
31 31 m 1
 29 31 l 1
 29 29 l 1
 31 29 l 1
 31 31 l 1
31 27 m 1
 29 27 l 1
 29 25 l 1
 31 25 l 1
 31 27 l 1
41 31 m 1
 39 31 l 1
 39 29 l 1
 41 29 l 1
 41 31 l 1
41 27 m 1
 39 27 l 1
 39 25 l 1
 41 25 l 1
 41 27 l 1
44 27 m 1
 42 27 l 1
 42 25 l 1
 43 25 l 1
 43 26 l 1
 44 26 l 1
 44 27 l 1
46 27 m 1
 45 27 l 1
 45 26 l 1
 44 26 l 1
 44 25 l 1
 46 25 l 1
 46 27 l 1
49 31 m 1
 47 31 l 1
 47 29 l 1
 49 29 l 1
 49 31 l 1
55 31 m 1
 53 31 l 1
 53 29 l 1
 55 29 l 1
 55 31 l 1
49 27 m 1
 47 27 l 1
 47 25 l 1
 49 25 l 1
 49 27 l 1
55 27 m 1
 53 27 l 1
 53 25 l 1
 55 25 l 1
 55 27 l 1
58 27 m 1
 56 27 l 1
 56 25 l 1
 57 25 l 1
 57 26 l 1
 58 26 l 1
 58 27 l 1
59 26 m 1
 58 26 l 1
 58 25 l 1
 60 25 l 1
 60 27 l 1
 59 27 l 1
 59 26 l 1
63 27 m 1
 61 27 l 1
 61 25 l 1
 63 25 l 1
 63 27 l 1
59 -1 m 1
 58 -1 l 1
 58 -2 l 1
 60 -2 l 1
 60 0 l 1
 59 0 l 1
 59 -1 l 1
EndSplineSet
EndChar

StartChar: custom_0_2_0_7_4
Encoding: 20642 20642 674
Width: 70
Flags: H
LayerCount: 2
Fore
SplineSet
17 43 m 1
 15 43 l 1
 15 41 l 1
 17 41 l 1
 17 43 l 1
17 39 m 1
 15 39 l 1
 15 37 l 1
 17 37 l 1
 17 39 l 1
17 35 m 1
 15 35 l 1
 15 33 l 1
 17 33 l 1
 17 35 l 1
17 31 m 1
 15 31 l 1
 15 29 l 1
 17 29 l 1
 17 31 l 1
17 27 m 1
 15 27 l 1
 15 25 l 1
 17 25 l 1
 17 27 l 1
31 43 m 1
 29 43 l 1
 29 41 l 1
 31 41 l 1
 31 43 l 1
31 39 m 1
 29 39 l 1
 29 37 l 1
 31 37 l 1
 31 39 l 1
31 35 m 1
 29 35 l 1
 29 33 l 1
 31 33 l 1
 31 35 l 1
36 37 m 1
 34 37 l 1
 34 35 l 1
 36 35 l 1
 36 37 l 1
36 33 m 1
 34 33 l 1
 34 31 l 1
 36 31 l 1
 36 33 l 1
41 43 m 1
 39 43 l 1
 39 41 l 1
 41 41 l 1
 41 43 l 1
44 43 m 1
 42 43 l 1
 42 41 l 1
 43 41 l 1
 43 42 l 1
 44 42 l 1
 44 43 l 1
46 43 m 1
 45 43 l 1
 45 42 l 1
 44 42 l 1
 44 41 l 1
 46 41 l 1
 46 43 l 1
49 43 m 1
 47 43 l 1
 47 41 l 1
 49 41 l 1
 49 43 l 1
55 43 m 1
 53 43 l 1
 53 41 l 1
 55 41 l 1
 55 43 l 1
41 39 m 1
 39 39 l 1
 39 37 l 1
 41 37 l 1
 41 39 l 1
41 35 m 1
 39 35 l 1
 39 33 l 1
 41 33 l 1
 41 35 l 1
49 39 m 1
 47 39 l 1
 47 37 l 1
 49 37 l 1
 49 39 l 1
49 35 m 1
 47 35 l 1
 47 33 l 1
 49 33 l 1
 49 35 l 1
55 35 m 1
 53 35 l 1
 53 33 l 1
 55 33 l 1
 55 35 l 1
58 43 m 1
 56 43 l 1
 56 41 l 1
 57 41 l 1
 57 42 l 1
 58 42 l 1
 58 43 l 1
59 42 m 1
 58 42 l 1
 58 41 l 1
 60 41 l 1
 60 43 l 1
 59 43 l 1
 59 42 l 1
63 43 m 1
 61 43 l 1
 61 41 l 1
 63 41 l 1
 63 43 l 1
63 39 m 1
 61 39 l 1
 61 37 l 1
 63 37 l 1
 63 39 l 1
57 35 m 1
 56 35 l 1
 56 33 l 1
 58 33 l 1
 58 34 l 1
 57 34 l 1
 57 35 l 1
60 35 m 1
 58 35 l 1
 58 34 l 1
 59 34 l 1
 59 33 l 1
 60 33 l 1
 60 35 l 1
63 35 m 1
 61 35 l 1
 61 33 l 1
 63 33 l 1
 63 35 l 1
31 31 m 1
 29 31 l 1
 29 29 l 1
 31 29 l 1
 31 31 l 1
31 27 m 1
 29 27 l 1
 29 25 l 1
 31 25 l 1
 31 27 l 1
41 31 m 1
 39 31 l 1
 39 29 l 1
 41 29 l 1
 41 31 l 1
41 27 m 1
 39 27 l 1
 39 25 l 1
 41 25 l 1
 41 27 l 1
44 27 m 1
 42 27 l 1
 42 25 l 1
 43 25 l 1
 43 26 l 1
 44 26 l 1
 44 27 l 1
46 27 m 1
 45 27 l 1
 45 26 l 1
 44 26 l 1
 44 25 l 1
 46 25 l 1
 46 27 l 1
49 31 m 1
 47 31 l 1
 47 29 l 1
 49 29 l 1
 49 31 l 1
55 31 m 1
 53 31 l 1
 53 29 l 1
 55 29 l 1
 55 31 l 1
49 27 m 1
 47 27 l 1
 47 25 l 1
 49 25 l 1
 49 27 l 1
55 27 m 1
 53 27 l 1
 53 25 l 1
 55 25 l 1
 55 27 l 1
58 27 m 1
 56 27 l 1
 56 25 l 1
 57 25 l 1
 57 26 l 1
 58 26 l 1
 58 27 l 1
59 26 m 1
 58 26 l 1
 58 25 l 1
 60 25 l 1
 60 27 l 1
 59 27 l 1
 59 26 l 1
63 27 m 1
 61 27 l 1
 61 25 l 1
 63 25 l 1
 63 27 l 1
60 0 m 1
 58 0 l 1
 58 -2 l 1
 59 -2 l 1
 59 -1 l 1
 60 -1 l 1
 60 0 l 1
61 -1 m 1
 60 -1 l 1
 60 -2 l 1
 61 -2 l 1
 61 -1 l 1
EndSplineSet
EndChar

StartChar: custom_0_2_0_7_5
Encoding: 20643 20643 675
Width: 70
Flags: H
LayerCount: 2
Fore
SplineSet
17 43 m 1
 15 43 l 1
 15 41 l 1
 17 41 l 1
 17 43 l 1
17 39 m 1
 15 39 l 1
 15 37 l 1
 17 37 l 1
 17 39 l 1
17 35 m 1
 15 35 l 1
 15 33 l 1
 17 33 l 1
 17 35 l 1
17 31 m 1
 15 31 l 1
 15 29 l 1
 17 29 l 1
 17 31 l 1
17 27 m 1
 15 27 l 1
 15 25 l 1
 17 25 l 1
 17 27 l 1
31 43 m 1
 29 43 l 1
 29 41 l 1
 31 41 l 1
 31 43 l 1
31 39 m 1
 29 39 l 1
 29 37 l 1
 31 37 l 1
 31 39 l 1
31 35 m 1
 29 35 l 1
 29 33 l 1
 31 33 l 1
 31 35 l 1
36 37 m 1
 34 37 l 1
 34 35 l 1
 36 35 l 1
 36 37 l 1
36 33 m 1
 34 33 l 1
 34 31 l 1
 36 31 l 1
 36 33 l 1
41 43 m 1
 39 43 l 1
 39 41 l 1
 41 41 l 1
 41 43 l 1
44 43 m 1
 42 43 l 1
 42 41 l 1
 43 41 l 1
 43 42 l 1
 44 42 l 1
 44 43 l 1
46 43 m 1
 45 43 l 1
 45 42 l 1
 44 42 l 1
 44 41 l 1
 46 41 l 1
 46 43 l 1
49 43 m 1
 47 43 l 1
 47 41 l 1
 49 41 l 1
 49 43 l 1
55 43 m 1
 53 43 l 1
 53 41 l 1
 55 41 l 1
 55 43 l 1
41 39 m 1
 39 39 l 1
 39 37 l 1
 41 37 l 1
 41 39 l 1
41 35 m 1
 39 35 l 1
 39 33 l 1
 41 33 l 1
 41 35 l 1
49 39 m 1
 47 39 l 1
 47 37 l 1
 49 37 l 1
 49 39 l 1
49 35 m 1
 47 35 l 1
 47 33 l 1
 49 33 l 1
 49 35 l 1
55 35 m 1
 53 35 l 1
 53 33 l 1
 55 33 l 1
 55 35 l 1
58 43 m 1
 56 43 l 1
 56 41 l 1
 57 41 l 1
 57 42 l 1
 58 42 l 1
 58 43 l 1
59 42 m 1
 58 42 l 1
 58 41 l 1
 60 41 l 1
 60 43 l 1
 59 43 l 1
 59 42 l 1
63 43 m 1
 61 43 l 1
 61 41 l 1
 63 41 l 1
 63 43 l 1
63 39 m 1
 61 39 l 1
 61 37 l 1
 63 37 l 1
 63 39 l 1
57 35 m 1
 56 35 l 1
 56 33 l 1
 58 33 l 1
 58 34 l 1
 57 34 l 1
 57 35 l 1
60 35 m 1
 58 35 l 1
 58 34 l 1
 59 34 l 1
 59 33 l 1
 60 33 l 1
 60 35 l 1
63 35 m 1
 61 35 l 1
 61 33 l 1
 63 33 l 1
 63 35 l 1
31 31 m 1
 29 31 l 1
 29 29 l 1
 31 29 l 1
 31 31 l 1
31 27 m 1
 29 27 l 1
 29 25 l 1
 31 25 l 1
 31 27 l 1
41 31 m 1
 39 31 l 1
 39 29 l 1
 41 29 l 1
 41 31 l 1
41 27 m 1
 39 27 l 1
 39 25 l 1
 41 25 l 1
 41 27 l 1
44 27 m 1
 42 27 l 1
 42 25 l 1
 43 25 l 1
 43 26 l 1
 44 26 l 1
 44 27 l 1
46 27 m 1
 45 27 l 1
 45 26 l 1
 44 26 l 1
 44 25 l 1
 46 25 l 1
 46 27 l 1
49 31 m 1
 47 31 l 1
 47 29 l 1
 49 29 l 1
 49 31 l 1
55 31 m 1
 53 31 l 1
 53 29 l 1
 55 29 l 1
 55 31 l 1
49 27 m 1
 47 27 l 1
 47 25 l 1
 49 25 l 1
 49 27 l 1
55 27 m 1
 53 27 l 1
 53 25 l 1
 55 25 l 1
 55 27 l 1
58 27 m 1
 56 27 l 1
 56 25 l 1
 57 25 l 1
 57 26 l 1
 58 26 l 1
 58 27 l 1
59 26 m 1
 58 26 l 1
 58 25 l 1
 60 25 l 1
 60 27 l 1
 59 27 l 1
 59 26 l 1
63 27 m 1
 61 27 l 1
 61 25 l 1
 63 25 l 1
 63 27 l 1
60 0 m 1
 58 0 l 1
 58 -1 l 1
 57 -1 l 1
 57 -2 l 1
 59 -2 l 1
 59 -1 l 1
 60 -1 l 1
 60 0 l 1
EndSplineSet
EndChar

StartChar: custom_0_2_0_7_6
Encoding: 20644 20644 676
Width: 70
Flags: H
LayerCount: 2
Fore
SplineSet
17 43 m 1
 15 43 l 1
 15 41 l 1
 17 41 l 1
 17 43 l 1
17 39 m 1
 15 39 l 1
 15 37 l 1
 17 37 l 1
 17 39 l 1
17 35 m 1
 15 35 l 1
 15 33 l 1
 17 33 l 1
 17 35 l 1
17 31 m 1
 15 31 l 1
 15 29 l 1
 17 29 l 1
 17 31 l 1
17 27 m 1
 15 27 l 1
 15 25 l 1
 17 25 l 1
 17 27 l 1
31 43 m 1
 29 43 l 1
 29 41 l 1
 31 41 l 1
 31 43 l 1
31 39 m 1
 29 39 l 1
 29 37 l 1
 31 37 l 1
 31 39 l 1
31 35 m 1
 29 35 l 1
 29 33 l 1
 31 33 l 1
 31 35 l 1
36 37 m 1
 34 37 l 1
 34 35 l 1
 36 35 l 1
 36 37 l 1
36 33 m 1
 34 33 l 1
 34 31 l 1
 36 31 l 1
 36 33 l 1
41 43 m 1
 39 43 l 1
 39 41 l 1
 41 41 l 1
 41 43 l 1
44 43 m 1
 42 43 l 1
 42 41 l 1
 43 41 l 1
 43 42 l 1
 44 42 l 1
 44 43 l 1
46 43 m 1
 45 43 l 1
 45 42 l 1
 44 42 l 1
 44 41 l 1
 46 41 l 1
 46 43 l 1
49 43 m 1
 47 43 l 1
 47 41 l 1
 49 41 l 1
 49 43 l 1
55 43 m 1
 53 43 l 1
 53 41 l 1
 55 41 l 1
 55 43 l 1
41 39 m 1
 39 39 l 1
 39 37 l 1
 41 37 l 1
 41 39 l 1
41 35 m 1
 39 35 l 1
 39 33 l 1
 41 33 l 1
 41 35 l 1
49 39 m 1
 47 39 l 1
 47 37 l 1
 49 37 l 1
 49 39 l 1
49 35 m 1
 47 35 l 1
 47 33 l 1
 49 33 l 1
 49 35 l 1
55 35 m 1
 53 35 l 1
 53 33 l 1
 55 33 l 1
 55 35 l 1
58 43 m 1
 56 43 l 1
 56 41 l 1
 57 41 l 1
 57 42 l 1
 58 42 l 1
 58 43 l 1
59 42 m 1
 58 42 l 1
 58 41 l 1
 60 41 l 1
 60 43 l 1
 59 43 l 1
 59 42 l 1
63 43 m 1
 61 43 l 1
 61 41 l 1
 63 41 l 1
 63 43 l 1
63 39 m 1
 61 39 l 1
 61 37 l 1
 63 37 l 1
 63 39 l 1
57 35 m 1
 56 35 l 1
 56 33 l 1
 58 33 l 1
 58 34 l 1
 57 34 l 1
 57 35 l 1
60 35 m 1
 58 35 l 1
 58 34 l 1
 59 34 l 1
 59 33 l 1
 60 33 l 1
 60 35 l 1
63 35 m 1
 61 35 l 1
 61 33 l 1
 63 33 l 1
 63 35 l 1
31 31 m 1
 29 31 l 1
 29 29 l 1
 31 29 l 1
 31 31 l 1
31 27 m 1
 29 27 l 1
 29 25 l 1
 31 25 l 1
 31 27 l 1
41 31 m 1
 39 31 l 1
 39 29 l 1
 41 29 l 1
 41 31 l 1
41 27 m 1
 39 27 l 1
 39 25 l 1
 41 25 l 1
 41 27 l 1
44 27 m 1
 42 27 l 1
 42 25 l 1
 43 25 l 1
 43 26 l 1
 44 26 l 1
 44 27 l 1
46 27 m 1
 45 27 l 1
 45 26 l 1
 44 26 l 1
 44 25 l 1
 46 25 l 1
 46 27 l 1
49 31 m 1
 47 31 l 1
 47 29 l 1
 49 29 l 1
 49 31 l 1
55 31 m 1
 53 31 l 1
 53 29 l 1
 55 29 l 1
 55 31 l 1
49 27 m 1
 47 27 l 1
 47 25 l 1
 49 25 l 1
 49 27 l 1
55 27 m 1
 53 27 l 1
 53 25 l 1
 55 25 l 1
 55 27 l 1
58 27 m 1
 56 27 l 1
 56 25 l 1
 57 25 l 1
 57 26 l 1
 58 26 l 1
 58 27 l 1
59 26 m 1
 58 26 l 1
 58 25 l 1
 60 25 l 1
 60 27 l 1
 59 27 l 1
 59 26 l 1
63 27 m 1
 61 27 l 1
 61 25 l 1
 63 25 l 1
 63 27 l 1
60 0 m 1
 57 0 l 1
 57 -2 l 1
 58 -2 l 1
 58 -1 l 1
 60 -1 l 1
 60 0 l 1
EndSplineSet
EndChar

StartChar: custom_0_2_0_7_7
Encoding: 20645 20645 677
Width: 70
Flags: H
LayerCount: 2
Fore
SplineSet
17 43 m 1
 15 43 l 1
 15 41 l 1
 17 41 l 1
 17 43 l 1
17 39 m 1
 15 39 l 1
 15 37 l 1
 17 37 l 1
 17 39 l 1
17 35 m 1
 15 35 l 1
 15 33 l 1
 17 33 l 1
 17 35 l 1
17 31 m 1
 15 31 l 1
 15 29 l 1
 17 29 l 1
 17 31 l 1
17 27 m 1
 15 27 l 1
 15 25 l 1
 17 25 l 1
 17 27 l 1
31 43 m 1
 29 43 l 1
 29 41 l 1
 31 41 l 1
 31 43 l 1
31 39 m 1
 29 39 l 1
 29 37 l 1
 31 37 l 1
 31 39 l 1
31 35 m 1
 29 35 l 1
 29 33 l 1
 31 33 l 1
 31 35 l 1
36 37 m 1
 34 37 l 1
 34 35 l 1
 36 35 l 1
 36 37 l 1
36 33 m 1
 34 33 l 1
 34 31 l 1
 36 31 l 1
 36 33 l 1
41 43 m 1
 39 43 l 1
 39 41 l 1
 41 41 l 1
 41 43 l 1
44 43 m 1
 42 43 l 1
 42 41 l 1
 43 41 l 1
 43 42 l 1
 44 42 l 1
 44 43 l 1
46 43 m 1
 45 43 l 1
 45 42 l 1
 44 42 l 1
 44 41 l 1
 46 41 l 1
 46 43 l 1
49 43 m 1
 47 43 l 1
 47 41 l 1
 49 41 l 1
 49 43 l 1
55 43 m 1
 53 43 l 1
 53 41 l 1
 55 41 l 1
 55 43 l 1
41 39 m 1
 39 39 l 1
 39 37 l 1
 41 37 l 1
 41 39 l 1
41 35 m 1
 39 35 l 1
 39 33 l 1
 41 33 l 1
 41 35 l 1
49 39 m 1
 47 39 l 1
 47 37 l 1
 49 37 l 1
 49 39 l 1
49 35 m 1
 47 35 l 1
 47 33 l 1
 49 33 l 1
 49 35 l 1
55 35 m 1
 53 35 l 1
 53 33 l 1
 55 33 l 1
 55 35 l 1
58 43 m 1
 56 43 l 1
 56 41 l 1
 57 41 l 1
 57 42 l 1
 58 42 l 1
 58 43 l 1
59 42 m 1
 58 42 l 1
 58 41 l 1
 60 41 l 1
 60 43 l 1
 59 43 l 1
 59 42 l 1
63 43 m 1
 61 43 l 1
 61 41 l 1
 63 41 l 1
 63 43 l 1
63 39 m 1
 61 39 l 1
 61 37 l 1
 63 37 l 1
 63 39 l 1
57 35 m 1
 56 35 l 1
 56 33 l 1
 58 33 l 1
 58 34 l 1
 57 34 l 1
 57 35 l 1
60 35 m 1
 58 35 l 1
 58 34 l 1
 59 34 l 1
 59 33 l 1
 60 33 l 1
 60 35 l 1
63 35 m 1
 61 35 l 1
 61 33 l 1
 63 33 l 1
 63 35 l 1
31 31 m 1
 29 31 l 1
 29 29 l 1
 31 29 l 1
 31 31 l 1
31 27 m 1
 29 27 l 1
 29 25 l 1
 31 25 l 1
 31 27 l 1
41 31 m 1
 39 31 l 1
 39 29 l 1
 41 29 l 1
 41 31 l 1
41 27 m 1
 39 27 l 1
 39 25 l 1
 41 25 l 1
 41 27 l 1
44 27 m 1
 42 27 l 1
 42 25 l 1
 43 25 l 1
 43 26 l 1
 44 26 l 1
 44 27 l 1
46 27 m 1
 45 27 l 1
 45 26 l 1
 44 26 l 1
 44 25 l 1
 46 25 l 1
 46 27 l 1
49 31 m 1
 47 31 l 1
 47 29 l 1
 49 29 l 1
 49 31 l 1
55 31 m 1
 53 31 l 1
 53 29 l 1
 55 29 l 1
 55 31 l 1
49 27 m 1
 47 27 l 1
 47 25 l 1
 49 25 l 1
 49 27 l 1
55 27 m 1
 53 27 l 1
 53 25 l 1
 55 25 l 1
 55 27 l 1
58 27 m 1
 56 27 l 1
 56 25 l 1
 57 25 l 1
 57 26 l 1
 58 26 l 1
 58 27 l 1
59 26 m 1
 58 26 l 1
 58 25 l 1
 60 25 l 1
 60 27 l 1
 59 27 l 1
 59 26 l 1
63 27 m 1
 61 27 l 1
 61 25 l 1
 63 25 l 1
 63 27 l 1
59 1 m 1
 58 1 l 1
 58 0 l 1
 57 0 l 1
 57 -2 l 1
 58 -2 l 1
 58 -1 l 1
 59 -1 l 1
 59 1 l 1
60 -1 m 1
 59 -1 l 1
 59 -2 l 1
 60 -2 l 1
 60 -1 l 1
EndSplineSet
EndChar

StartChar: custom_0_2_0_7_8
Encoding: 20646 20646 678
Width: 70
Flags: H
LayerCount: 2
Fore
SplineSet
17 43 m 1
 15 43 l 1
 15 41 l 1
 17 41 l 1
 17 43 l 1
17 39 m 1
 15 39 l 1
 15 37 l 1
 17 37 l 1
 17 39 l 1
17 35 m 1
 15 35 l 1
 15 33 l 1
 17 33 l 1
 17 35 l 1
17 31 m 1
 15 31 l 1
 15 29 l 1
 17 29 l 1
 17 31 l 1
17 27 m 1
 15 27 l 1
 15 25 l 1
 17 25 l 1
 17 27 l 1
31 43 m 1
 29 43 l 1
 29 41 l 1
 31 41 l 1
 31 43 l 1
31 39 m 1
 29 39 l 1
 29 37 l 1
 31 37 l 1
 31 39 l 1
31 35 m 1
 29 35 l 1
 29 33 l 1
 31 33 l 1
 31 35 l 1
36 37 m 1
 34 37 l 1
 34 35 l 1
 36 35 l 1
 36 37 l 1
36 33 m 1
 34 33 l 1
 34 31 l 1
 36 31 l 1
 36 33 l 1
41 43 m 1
 39 43 l 1
 39 41 l 1
 41 41 l 1
 41 43 l 1
44 43 m 1
 42 43 l 1
 42 41 l 1
 43 41 l 1
 43 42 l 1
 44 42 l 1
 44 43 l 1
46 43 m 1
 45 43 l 1
 45 42 l 1
 44 42 l 1
 44 41 l 1
 46 41 l 1
 46 43 l 1
49 43 m 1
 47 43 l 1
 47 41 l 1
 49 41 l 1
 49 43 l 1
55 43 m 1
 53 43 l 1
 53 41 l 1
 55 41 l 1
 55 43 l 1
41 39 m 1
 39 39 l 1
 39 37 l 1
 41 37 l 1
 41 39 l 1
41 35 m 1
 39 35 l 1
 39 33 l 1
 41 33 l 1
 41 35 l 1
49 39 m 1
 47 39 l 1
 47 37 l 1
 49 37 l 1
 49 39 l 1
49 35 m 1
 47 35 l 1
 47 33 l 1
 49 33 l 1
 49 35 l 1
55 35 m 1
 53 35 l 1
 53 33 l 1
 55 33 l 1
 55 35 l 1
58 43 m 1
 56 43 l 1
 56 41 l 1
 57 41 l 1
 57 42 l 1
 58 42 l 1
 58 43 l 1
59 42 m 1
 58 42 l 1
 58 41 l 1
 60 41 l 1
 60 43 l 1
 59 43 l 1
 59 42 l 1
63 43 m 1
 61 43 l 1
 61 41 l 1
 63 41 l 1
 63 43 l 1
63 39 m 1
 61 39 l 1
 61 37 l 1
 63 37 l 1
 63 39 l 1
57 35 m 1
 56 35 l 1
 56 33 l 1
 58 33 l 1
 58 34 l 1
 57 34 l 1
 57 35 l 1
60 35 m 1
 58 35 l 1
 58 34 l 1
 59 34 l 1
 59 33 l 1
 60 33 l 1
 60 35 l 1
63 35 m 1
 61 35 l 1
 61 33 l 1
 63 33 l 1
 63 35 l 1
31 31 m 1
 29 31 l 1
 29 29 l 1
 31 29 l 1
 31 31 l 1
31 27 m 1
 29 27 l 1
 29 25 l 1
 31 25 l 1
 31 27 l 1
41 31 m 1
 39 31 l 1
 39 29 l 1
 41 29 l 1
 41 31 l 1
41 27 m 1
 39 27 l 1
 39 25 l 1
 41 25 l 1
 41 27 l 1
44 27 m 1
 42 27 l 1
 42 25 l 1
 43 25 l 1
 43 26 l 1
 44 26 l 1
 44 27 l 1
46 27 m 1
 45 27 l 1
 45 26 l 1
 44 26 l 1
 44 25 l 1
 46 25 l 1
 46 27 l 1
49 31 m 1
 47 31 l 1
 47 29 l 1
 49 29 l 1
 49 31 l 1
55 31 m 1
 53 31 l 1
 53 29 l 1
 55 29 l 1
 55 31 l 1
49 27 m 1
 47 27 l 1
 47 25 l 1
 49 25 l 1
 49 27 l 1
55 27 m 1
 53 27 l 1
 53 25 l 1
 55 25 l 1
 55 27 l 1
58 27 m 1
 56 27 l 1
 56 25 l 1
 57 25 l 1
 57 26 l 1
 58 26 l 1
 58 27 l 1
59 26 m 1
 58 26 l 1
 58 25 l 1
 60 25 l 1
 60 27 l 1
 59 27 l 1
 59 26 l 1
63 27 m 1
 61 27 l 1
 61 25 l 1
 63 25 l 1
 63 27 l 1
59 1 m 1
 57 1 l 1
 57 -2 l 1
 58 -2 l 1
 58 0 l 1
 59 0 l 1
 59 1 l 1
60 0 m 1
 59 0 l 1
 59 -1 l 1
 60 -1 l 1
 60 0 l 1
EndSplineSet
EndChar

